<svg width="31" height="31" viewBox="0 0 31 31" fill="none" xmlns="http://www.w3.org/2000/svg">
<path d="M25.8333 15.5C25.8333 21.1963 21.1962 25.8333 15.5 25.8333C9.80371 25.8333 5.16662 21.1963 5.16662 15.5C5.16662 9.80376 9.80371 5.16668 15.5 5.16668C21.1962 5.16668 25.8333 9.80376 25.8333 15.5ZM28.4166 15.5C28.4166 8.37001 22.63 2.58334 15.5 2.58334C8.36996 2.58334 2.58329 8.37001 2.58329 15.5C2.58329 22.63 8.36996 28.4167 15.5 28.4167C22.63 28.4167 28.4166 22.63 28.4166 15.5ZM15.5 16.7917H20.6666V14.2083H15.5V10.3333L10.3333 15.5L15.5 20.6667L15.5 16.7917Z" fill="#58526F"/>
</svg>
