<svg width="238" height="174" viewBox="0 0 238 174" fill="none" xmlns="http://www.w3.org/2000/svg">
<path d="M200.963 142.825L163.757 142.943L163.776 149.068L200.983 148.95L200.963 142.825Z" fill="#CBDBBB"/>
<path d="M201.002 155.256L163.796 155.374L163.816 161.589L201.022 161.471L201.002 155.256Z" fill="#CBDBBB"/>
<path d="M194.841 167.706L170.036 167.785L170.056 174L194.86 173.921L194.841 167.706Z" fill="#CBDBBB"/>
<path d="M181.793 2.01287e-07L178.227 0.11294C167.511 1.35546 159.514 3.72642 154.234 7.22583C147.683 11.0162 142.069 15.8036 137.392 21.5881C132.85 27.2959 129.632 33.6503 127.739 40.6513C125.723 47.2089 125.46 54.871 126.95 63.6376C128.074 69.3688 130.049 74.7892 132.872 79.8988L146.931 100.133C148.988 102.952 150.736 106.098 152.177 109.571C155.816 118.01 157.512 127.024 157.264 136.613L207.054 136.454C206.644 126.764 208.172 117.7 211.635 109.262C213.667 104.677 214.685 102.602 214.691 103.036L229.584 81.9632C231.319 79.5681 233.288 75.1742 235.491 68.7817C237.166 62.2231 237.936 57.4521 237.8 54.4686C238.009 53.213 237.642 49.6189 236.701 43.6862C236.3 40.0134 234.115 34.4943 230.145 27.1287C226.371 21.0445 221.425 15.706 215.31 11.1132C205.075 3.7034 193.903 -0.000997028 181.793 2.01287e-07ZM181.947 6.02264L185.015 6.11911C197.078 6.27823 208.83 12.2951 220.272 24.1699L223.895 28.843C226.083 32.1003 227.806 35.5438 229.066 39.1734C231.594 46.5304 232.218 54.046 230.937 61.7203C230.293 65.5086 229.16 69.1902 227.539 72.7649L224.736 77.9738C213.987 92.5512 207.575 102.573 205.498 108.04C202.178 116.814 200.638 124.25 200.879 130.35L194.678 130.369L194.54 86.8621L194.895 86.1449L188.502 86.4448L188.294 86.8819L188.431 130.389L176.029 130.428L175.892 87.0367L169.644 87.3299L169.782 130.448L163.581 130.468C163.483 121.81 161.553 113.607 157.79 105.859C154.433 99.4289 152.564 96.0763 152.185 95.8012L139.303 78.2448C137.167 74.8636 135.521 71.3236 134.368 67.6249C132.067 60.1298 131.687 52.5859 133.227 44.9933C135.553 33.5376 142.036 23.8154 152.675 15.8269C161.592 9.29157 171.349 6.02349 181.947 6.02264Z" fill="#CBDBBB"/>
<path d="M171.505 36.2973C171.506 36.2972 171.506 36.2972 171.507 36.2972L171.507 36.2974C171.507 36.2972 171.507 36.2973 171.506 36.2973H171.505ZM152.489 36.1173C152.489 36.1147 152.489 36.1101 152.489 36.104L152.49 36.1043C152.49 36.1106 152.49 36.1149 152.49 36.1173H152.489ZM171.906 34.6995V34.6998C171.905 34.6987 171.903 34.6973 171.901 34.6955L171.902 34.6957C171.904 34.6973 171.906 34.6987 171.907 34.6995H171.906ZM152.106 56.0823C152.53 56.0823 152.937 56.0551 153.207 55.9939L153.207 55.9942C154.662 55.6653 155.763 54.6756 156.11 53.3592C156.355 52.4486 156.208 51.1204 155.732 49.8212L155.732 49.8208C155.679 49.6787 155.643 49.5772 155.62 49.5059C157.552 50.2769 158.729 50.5508 160.137 50.5508C160.152 50.5508 160.174 50.5507 160.19 50.5507L160.19 50.5509C161.873 50.5435 163.13 50.0026 164.114 48.8448L164.114 48.8448C164.522 48.3638 165.162 47.1228 165.34 46.4525L165.464 46.0016C165.477 45.9565 165.463 45.9083 165.428 45.877L164.998 45.4875L164.998 45.4878C164.323 44.8577 163.794 43.9408 163.564 43.0106V43.0108C163.518 42.8141 163.477 42.3326 163.47 41.9529V41.9532V41.2457C163.47 41.2042 163.449 41.1654 163.415 41.1426L163.172 40.9826L163.172 40.9828C162.775 40.7123 161.878 39.8137 161.573 39.3863C159.536 36.5075 160.221 32.8781 162.916 30.9612C163.301 30.6875 163.727 30.4484 164.193 30.2513C164.747 30.0181 165.638 29.7646 166.138 29.7037L166.14 29.7034C166.472 29.6558 166.613 29.6283 166.667 29.3698V29.3701C166.914 28.2783 167.22 27.5494 167.786 26.73C168.432 25.8026 169.574 24.8503 170.643 24.3656L170.643 24.3658L170.644 24.3652C170.783 24.3014 170.905 24.2493 170.984 24.2179C171.112 24.5275 171.485 25.5097 171.571 25.7653L171.572 25.7655C171.521 25.8032 171.419 25.8662 171.288 25.9295L171.286 25.9306C169.002 27.0928 167.795 29.5209 168.476 31.6973V31.6976C168.879 33.0029 170.039 34.0642 171.581 34.5675L171.583 34.568C171.699 34.6043 171.795 34.6427 171.852 34.6689L171.853 34.6692C171.794 34.9684 171.541 36.0182 171.457 36.2929L171.456 36.2931C171.159 36.2461 170.112 35.8514 169.611 35.5732V35.5735C168.294 34.8246 167.205 33.4125 166.79 31.8926L166.79 31.8913L166.665 31.4531C166.649 31.3994 166.601 31.3635 166.546 31.3635C166.54 31.3635 166.534 31.364 166.528 31.3649L166.25 31.4067H166.25C165.646 31.4993 165.087 31.6842 164.454 31.9872L164.454 31.9875C163.92 32.2371 163.679 32.4123 163.268 32.8179L163.267 32.8186C162.397 33.6909 162.028 34.6362 162.1 35.8139V35.8144C162.207 37.4864 163.405 39.1678 165.167 40.1637L165.444 40.3217L165.37 40.7078V40.7081C165.236 41.3842 165.249 42.473 165.393 43.0491C165.559 43.7225 165.992 44.3508 166.511 44.6625L166.511 44.6629C167.025 44.9674 167.31 45.0418 167.962 45.0418C168.961 45.0418 169.937 44.6594 170.958 43.8902C171.341 43.6032 171.45 43.5458 171.493 43.5458L171.494 43.546C172.067 43.9447 172.708 44.3057 173.138 44.4638V44.4641C173.559 44.6197 173.739 44.6534 174.361 44.6534C174.431 44.6534 174.508 44.653 174.59 44.6523L174.589 44.6526C175.392 44.6523 175.57 44.6314 176.001 44.463L176.001 44.4633C177.06 44.0569 177.989 43.3027 178.648 42.3088V42.309C180.675 39.2577 180.244 35.1355 177.605 32.0123L177.605 32.012C177.417 31.7922 177.32 31.6435 177.295 31.5806L177.296 31.5808C177.355 31.5014 177.513 31.2993 177.688 31.0943L177.688 31.0938C178.509 30.123 179.26 28.8232 179.661 27.6887L179.661 27.6885C181.112 23.5659 179.47 19.3353 175.923 18.081V18.0813C175.85 18.0552 175.776 18.0305 175.702 18.0073L175.701 18.0072C175.315 17.8885 174.69 17.8309 174.088 17.8309C173.542 17.8309 172.997 17.878 172.647 17.9787L172.646 17.979C171.413 18.3463 170.168 19.0656 169.183 19.982L168.703 20.4259L168.371 20.3111L168.37 20.3107C167.264 19.9249 166.71 19.8108 165.676 19.7755L165.676 19.7757C165.414 19.7651 165.21 19.7589 165.04 19.7589C164.635 19.7589 164.418 19.7936 164.06 19.8834L164.059 19.8835C162.537 20.2684 161.523 21.1216 160.835 22.5794L160.835 22.5796C160.345 23.6106 160.24 24.2081 160.24 25.8807C160.24 26.5613 160.229 26.9619 160.21 27.1359L160.209 27.1361C159.685 26.9744 158.777 26.8866 157.959 26.8866C157.401 26.8867 156.868 26.9275 156.515 27.0203C154.729 27.4892 153.352 28.6912 152.623 30.4021L152.623 30.4025C152.021 31.8296 151.924 33.8123 152.374 35.5864L152.374 35.5866C152.423 35.7799 152.461 35.9418 152.479 36.0327L152.48 36.033C152.385 36.0705 152.216 36.1362 152.028 36.2052L152.026 36.2057C149.547 37.1489 147.671 38.8539 146.456 41.2808C144.101 45.9879 145.102 52.7643 148.559 55.065V55.0653C149.153 55.4619 149.581 55.6615 150.368 55.901L150.368 55.9013C150.75 56.0199 151.464 56.0823 152.106 56.0823Z" fill="#539821"/>
<path d="M171.621 89.5596C172.113 89.5596 172.608 89.5123 172.983 89.4148L172.983 89.4147C174.851 88.9236 176.465 87.4539 177.483 85.3497L177.483 85.3495C179.122 81.9524 178.71 77.8025 176.399 74.2867L176.398 74.2843V74.2845C176.217 74.012 176.071 73.7782 176.014 73.6782L176.015 73.6785C176.074 73.5953 176.212 73.4183 176.378 73.2156L176.378 73.2156C177.493 71.8518 178.224 70.3523 178.568 68.7111V68.711C178.78 67.6997 178.78 66.1661 178.568 65.1547C178.146 63.1386 177.127 61.3574 175.487 59.7703V59.7705L175.021 59.3149L175.642 58.6869L175.642 58.6867C177.079 57.225 178.02 55.5782 178.519 53.6437C178.8 52.5734 178.863 51.9073 178.821 50.6595L178.821 50.6593C178.765 49.0483 178.475 47.9453 177.745 46.5241L177.745 46.5237C177.546 46.1386 177.431 45.9242 177.287 45.87L177.287 45.8699C177.265 45.8617 177.243 45.8569 177.22 45.8552L177.22 45.8555C177.214 45.8548 177.207 45.8546 177.201 45.8546C177.181 45.8546 177.161 45.8571 177.143 45.8607L177.144 45.861C177.051 45.8763 176.707 45.9772 176.387 46.0728V46.073C175.742 46.2636 175.055 46.359 174.38 46.359C173.556 46.359 172.75 46.2173 172.054 45.9375L172.053 45.9372L171.63 45.7702C171.615 45.7645 171.6 45.7617 171.585 45.7617C171.565 45.7617 171.545 45.7666 171.527 45.7762L171.006 46.0544L171.005 46.055C170.357 46.4102 169.67 46.6486 168.971 46.7506V46.7508C168.762 46.7809 168.48 46.7958 168.2 46.7958C167.789 46.7958 167.42 46.7635 167.299 46.716L167.298 46.7156C167.296 46.715 167.293 46.7137 167.291 46.7131L167.29 46.7129C167.27 46.7059 167.247 46.7007 167.221 46.7007C167.167 46.7007 167.122 46.7227 167.086 46.7548V46.755C167.005 46.8288 166.946 46.993 166.873 47.2237V47.2239C165.836 50.3836 163.259 52.3069 160.068 52.3069C160.06 52.3069 160.059 52.3069 160.051 52.3069L160.051 52.3072C159.581 52.3 159.344 52.2799 158.277 52.1341L158.277 52.1344L157.918 52.0788C157.912 52.0779 157.905 52.0774 157.899 52.0774C157.87 52.0774 157.842 52.0878 157.819 52.1071C157.792 52.1306 157.776 52.1648 157.776 52.2008V52.5486C157.776 53.2088 157.525 54.2257 157.193 54.8922V54.8924L157.026 55.2191C157.008 55.2549 157.008 55.2975 157.027 55.333C157.046 55.3686 157.081 55.3928 157.121 55.3978L157.454 55.4395L157.454 55.4398C158.869 55.6317 160.488 56.3528 161.39 57.1883L161.39 57.1889L161.703 57.4741C161.726 57.4956 161.756 57.5063 161.785 57.5063C161.817 57.5063 161.849 57.494 161.873 57.4694L162.304 57.0312V57.0315C163.356 55.9764 164.724 55.407 166.132 55.407C166.461 55.407 166.791 55.4379 167.12 55.5008L167.12 55.5011C167.691 55.6099 168.406 55.8699 168.822 56.1185L168.823 56.1191C168.972 56.2062 169.127 56.2839 169.185 56.302L169.185 56.3021C169.189 56.3033 169.209 56.3099 169.232 56.3099C169.291 56.3099 169.332 56.2653 169.331 56.2653L169.331 56.2655C169.389 56.2086 169.526 56.0046 169.657 55.7835L169.658 55.7823C170.25 54.7585 171.232 53.8229 172.195 53.3334L172.195 53.3337L172.548 53.1568L172.56 53.1866L172.56 53.1868C172.597 53.2816 172.748 53.6688 172.906 54.0614L172.906 54.0617L172.907 54.0635C173.023 54.3463 173.118 54.5944 173.162 54.7125L173.163 54.7128C173.1 54.7542 172.985 54.8228 172.843 54.9034L172.841 54.9042C172.614 55.0366 172.182 55.385 171.886 55.689V55.6892C171.446 56.1298 171.278 56.3707 171.022 56.9049V56.9051C170.633 57.7137 170.476 58.3927 170.476 59.233C170.476 60.5749 170.927 61.6354 171.907 62.6173L172.438 63.1499L171.983 63.8159L171.983 63.8162C171.764 64.1323 171.568 64.4001 171.48 64.5121L171.479 64.5124C171.26 64.3759 170.592 63.7841 170.299 63.4195L170.299 63.4192C169.269 62.1409 168.779 60.7425 168.779 59.0591V58.2105C168.779 58.171 168.76 58.1339 168.728 58.1107L168.499 57.9437L168.499 57.944C168.123 57.6543 167.415 57.3287 166.936 57.2141L166.935 57.2139C166.648 57.1463 166.364 57.1124 166.084 57.1124C165.116 57.1124 164.22 57.5189 163.447 58.3047L163.446 58.305C163.155 58.6032 162.964 58.8266 162.935 58.9656V58.9656C162.93 58.991 162.927 59.0231 162.937 59.0568L162.939 59.0634C162.96 59.1278 163.071 59.4476 163.189 59.7748C163.535 60.7619 163.602 61.8804 163.369 62.7205L163.369 62.7207C163.305 62.9136 163.419 63.026 163.574 63.1219L163.576 63.1233C163.945 63.3411 164.674 64.0703 164.986 64.5453L164.986 64.546C166.002 66.0729 166.169 68.2757 165.391 70.1832L165.391 70.184L165.224 70.6014C165.21 70.637 165.213 70.6772 165.233 70.7101C165.252 70.7431 165.286 70.7651 165.324 70.7698L165.608 70.8045L165.608 70.8048C166.634 70.9295 167.013 70.9981 167.514 71.1611L167.515 71.1614C169.852 71.8988 171.339 73.6073 171.755 76.0241V76.0242C171.817 76.3865 171.864 76.7733 171.864 76.8865C171.864 77.1864 171.976 77.2334 172.367 77.3776V77.3779C173.513 77.8103 174.725 78.9817 175.275 80.1925C175.43 80.5353 175.563 80.9429 175.596 81.1089L175.597 81.1091C175.319 81.1873 174.392 81.423 174.072 81.4883L174.072 81.4884C174.029 81.4972 174.005 81.5013 173.99 81.5024L173.989 81.5026C173.976 81.4785 173.957 81.4201 173.917 81.271L173.917 81.2712C173.706 80.4492 172.981 79.5603 172.19 79.1422L172.19 79.142C171.617 78.8412 170.988 78.6955 170.347 78.6955C169.164 78.6955 167.941 79.1904 166.949 80.1203L166.949 80.1205L166.688 80.36L166.209 79.9571L166.209 79.9567L166.209 79.957L166.209 79.9567V79.957C165.897 79.6923 165.583 79.4047 165.498 79.3134L165.497 79.312L165.423 79.2348L165.84 78.8403V78.8405C166.42 78.2925 166.937 77.931 167.697 77.5609L167.697 77.5606C168.278 77.273 169.369 76.9681 169.773 76.9681C169.863 76.9681 169.973 76.9661 170.054 76.9112V76.9115C170.083 76.8914 170.108 76.8656 170.126 76.8342V76.8344C170.158 76.7801 170.166 76.7178 170.166 76.657C170.166 76.511 170.112 76.2815 170.024 75.9376C169.677 74.5455 168.9 73.5174 167.786 72.9842L167.786 72.984C166.983 72.6023 166.6 72.5196 165.569 72.5196C165.525 72.5196 165.474 72.5198 165.428 72.52L165.429 72.5203L165.428 72.52C164.616 72.5271 164.321 72.5625 163.753 72.7119H163.753C161.191 73.3873 159.007 75.0843 158.024 77.1605L158.024 77.161C157.662 77.9358 157.54 78.4963 157.54 79.3487C157.54 80.2668 157.67 80.7929 158.108 81.6979L158.108 81.6993C158.378 82.2402 158.552 82.4803 158.985 82.9138L158.985 82.9142C159.846 83.7694 160.762 84.1861 161.952 84.2505L161.952 84.2508L161.953 84.2506C162.082 84.2573 162.197 84.2612 162.309 84.2612C162.793 84.2612 163.162 84.1859 163.937 83.9534L163.941 83.9522C163.952 83.9485 163.958 83.948 163.961 83.948C163.961 83.948 163.961 83.948 163.961 83.948C163.964 83.948 163.994 83.9544 164.066 84.0782L164.067 84.079C164.734 85.2053 166.618 87.3173 167.679 88.1137L167.679 88.1139C168.419 88.6785 169.502 89.2223 170.249 89.4148L170.249 89.4149C170.63 89.5121 171.129 89.5596 171.621 89.5596Z" fill="#539821"/>
<path d="M160.599 63.973C160.599 63.9729 160.599 63.9728 160.598 63.9727L160.598 63.9729C160.598 63.9725 160.599 63.9723 160.599 63.9721V63.9724C160.599 63.9724 160.6 63.9727 160.601 63.973H160.599ZM155.984 77.3855C156.057 77.3855 156.103 77.3116 156.103 77.3075L156.101 77.3077C156.146 77.2245 156.305 76.8914 156.484 76.5076L156.484 76.5074C157.006 75.3855 157.567 74.5698 158.368 73.7598L158.368 73.7601C159.368 72.7513 160.851 71.822 162.277 71.3201L162.28 71.3192C162.681 71.1727 162.85 71.0562 163.174 70.7029L163.174 70.7031C163.927 69.8976 164.326 68.73 164.247 67.5921V67.5919C164.176 66.5795 163.854 65.7804 163.223 65.0832L163.223 65.083C162.632 64.4326 161.669 63.9923 160.814 63.9923C160.787 63.9923 160.761 63.9916 160.738 63.9905L160.739 63.9907C160.773 63.9453 160.817 63.8916 160.866 63.8348L160.866 63.8346C161.177 63.472 161.573 62.7187 161.723 62.2102V62.2104C161.97 61.3816 161.811 60.3429 161.341 59.6113C160.816 58.7831 159.764 58.0107 158.635 57.6006V57.6008C157.787 57.2878 157.049 57.1322 156.252 57.1322C155.579 57.1322 154.869 57.2429 154.018 57.4578L154.017 57.4579C153.166 57.6748 152.428 57.7809 151.754 57.7809C151.442 57.7809 151.144 57.7582 150.853 57.7129L150.853 57.7127C149.978 57.5826 149.483 57.4266 148.583 57.0065V57.0068L147.924 56.6939C147.907 56.6859 147.889 56.682 147.871 56.682C147.836 56.682 147.802 56.6969 147.778 56.7246L147.598 56.9332L147.597 56.9346C147.285 57.3046 146.842 58.1612 146.651 58.7201L146.651 58.7214C145.899 61.0099 146.554 63.526 148.393 65.4328H148.393C149.633 66.718 151.126 67.4503 152.735 67.5569L152.736 67.5569C152.911 67.5672 153.065 67.5807 153.175 67.5927L153.176 67.5929C153.133 67.6496 153.08 67.7195 153.021 67.7953V67.7955C152.321 68.6811 151.842 69.7495 151.595 70.9417C151.418 71.7859 151.439 73.1413 151.632 73.8515L151.632 73.8518C152.152 75.7366 153.524 76.9513 155.545 77.307L155.545 77.3072C155.771 77.3481 155.96 77.3831 155.961 77.3834L155.984 77.3855Z" fill="#539821"/>
<path d="M201.089 83.9716C201.088 83.9716 201.089 83.9713 201.092 83.971H201.092C201.092 83.971 201.093 83.9709 201.094 83.9709C201.092 83.9714 201.09 83.9716 201.089 83.9716H201.089ZM189.388 81.0875C189.387 81.0872 189.386 81.0868 189.385 81.0865V81.0868C189.367 81.0797 189.361 81.0761 189.363 81.0762C189.366 81.0762 189.376 81.0798 189.389 81.0875H189.388ZM193.153 89.5547C194.37 89.5547 195.688 89.1338 196.898 88.3487C198.031 87.6151 199.394 86.2682 200.462 84.8485L200.462 84.8477L200.463 84.847L200.463 84.8469C200.767 84.4342 201.036 84.0803 201.121 83.9722C201.194 83.9789 201.344 84.011 201.513 84.0642V84.0645C201.918 84.1919 202.476 84.2588 202.992 84.2588C203.325 84.2588 203.646 84.2311 203.903 84.1711L203.904 84.1709C204.768 83.9633 205.398 83.5961 206.079 82.9139C206.745 82.2463 207.089 81.6865 207.372 80.7767L207.373 80.7761C207.509 80.3283 207.538 80.0711 207.538 79.3488C207.538 78.0829 207.285 77.3215 206.496 76.1697L206.496 76.1699C206.091 75.5786 205.129 74.6296 204.467 74.1567L204.467 74.1565C203 73.1146 201.137 72.4906 199.548 72.4906C199.439 72.4906 199.332 72.4935 199.226 72.4994H199.226C197.199 72.6134 195.815 73.6537 195.195 75.5261L195.194 75.5266C195.084 75.8658 194.97 76.2964 194.947 76.4854L194.947 76.4856L194.898 76.8053C194.893 76.8389 194.902 76.873 194.923 76.8997C194.944 76.9265 194.974 76.9435 195.008 76.9468L195.508 76.9955L195.509 76.9956C196.032 77.0426 196.981 77.3295 197.552 77.6224L197.553 77.6227C198.235 77.9682 199.397 78.853 199.607 79.1854L199.609 79.1878L199.609 79.1878C199.629 79.2188 199.637 79.2336 199.64 79.2406L199.641 79.2408C199.631 79.2648 199.584 79.3183 199.399 79.4871L199.397 79.4894C199.219 79.6608 198.909 79.9373 198.702 80.1095L198.701 80.1104L198.409 80.3602L198.066 80.05C197.09 79.1623 195.881 78.695 194.727 78.695C193.978 78.695 193.251 78.8924 192.628 79.3011L192.627 79.3017L192.627 79.3019L192.625 79.3029C192.403 79.4559 192.123 79.6709 192.009 79.793L192.008 79.7933C191.717 80.1068 191.32 80.8047 191.183 81.2381C191.128 81.4101 191.099 81.4711 191.083 81.4914L191.082 81.4916C191.08 81.491 191.076 81.4903 191.072 81.4892L191.069 81.4886C190.633 81.3966 189.768 81.1894 189.478 81.1127L189.478 81.113C189.541 80.8851 189.743 80.3326 189.877 80.0648C190.468 78.8928 191.371 78.0091 192.538 77.4717V77.472L193.128 77.2005C193.168 77.182 193.195 77.1436 193.199 77.0996L193.241 76.6475C193.31 75.9639 193.591 74.8933 193.848 74.3445V74.3447C194.188 73.6284 194.554 73.126 195.133 72.5729C196.165 71.5927 197.43 71.0387 199.066 70.8535L199.066 70.8534C199.382 70.8162 199.674 70.7768 199.743 70.756L199.743 70.7562C199.746 70.7555 199.78 70.7463 199.805 70.721L199.805 70.7212C199.857 70.6706 199.845 70.5966 199.845 70.5966L199.845 70.5968C199.837 70.5204 199.779 70.3708 199.72 70.2359L199.72 70.2355C199.348 69.3947 199.149 68.0323 199.251 67.0149L199.251 67.0146C199.401 65.4877 200.121 64.1646 201.235 63.3388V63.339L201.699 62.9983C201.738 62.97 201.757 62.9216 201.747 62.8745L201.692 62.5963L201.692 62.5965C201.666 62.4526 201.639 61.9374 201.639 61.438C201.639 60.5063 201.768 59.9074 202.084 59.2818L202.084 59.2821L202.221 59.0275C202.247 58.9797 202.238 58.9207 202.2 58.882L201.624 58.2977L201.624 58.2972C200.813 57.4853 199.992 57.1064 198.983 57.1064C198.246 57.1064 197.354 57.4086 196.65 57.8932L196.649 57.8939L196.323 58.1235C196.287 58.149 196.267 58.1921 196.271 58.2363L196.32 58.7435C196.442 60.0885 195.98 61.7293 195.134 62.9673C194.748 63.5236 193.861 64.384 193.599 64.5316L193.598 64.5319C193.562 64.4804 193.505 64.3966 193.432 64.2886C193.337 64.1495 193.223 63.9815 193.095 63.7955L192.627 63.1137L192.763 63.011L192.763 63.0107C194.102 61.9827 194.815 60.2843 194.601 58.6398L194.601 58.6385C194.502 57.9371 194.262 57.1844 193.947 56.633L193.947 56.6328C193.618 56.0584 192.839 55.2633 192.278 54.9389L192.278 54.9391C192.113 54.8375 191.986 54.7504 191.923 54.7007L191.924 54.7009C191.983 54.5571 192.111 54.2371 192.254 53.8816V53.8819L192.546 53.1653L192.68 53.2249V53.2252C193.75 53.707 194.854 54.7443 195.474 55.8494L195.474 55.8496C195.575 56.0331 195.682 56.2054 195.728 56.2582L195.728 56.2584C195.726 56.2582 195.769 56.31 195.832 56.31C195.857 56.31 195.878 56.3019 195.879 56.3016L195.879 56.3016C195.942 56.2809 196.195 56.1567 196.47 56.0187L196.47 56.0185C197.348 55.5754 197.912 55.4405 198.948 55.4405C199.597 55.4405 199.959 55.4754 200.268 55.5613H200.268C201.206 55.8199 202.288 56.4622 202.91 57.1392L203.194 57.4521C203.218 57.4788 203.252 57.4925 203.285 57.4925C203.313 57.4925 203.34 57.4835 203.363 57.4651L203.904 57.0268L203.904 57.0266C204.817 56.2828 206.025 55.7411 207.298 55.508L207.298 55.5083L207.298 55.508C207.606 55.4512 207.896 55.386 207.963 55.3603H207.963L207.963 55.3605C207.965 55.3597 207.993 55.3497 208.015 55.3279C208.082 55.2603 208.046 55.1705 208.042 55.161C208.028 55.1222 208.002 55.0829 207.973 55.0489L207.973 55.0491C207.748 54.7695 207.391 53.5548 207.322 52.74L207.322 52.7394L207.273 52.1968C207.27 52.1626 207.253 52.1312 207.226 52.1102C207.204 52.0934 207.178 52.0844 207.151 52.0844C207.144 52.0844 207.137 52.085 207.13 52.0861L206.881 52.1278V52.1281C206.225 52.2374 205.597 52.2923 205.012 52.2923C204.456 52.2923 203.942 52.2424 203.485 52.1429L203.484 52.1428C201.017 51.6168 199.21 49.9732 198.294 47.4154L198.293 47.4152C198.164 47.0552 198.078 46.8363 197.961 46.7585C197.924 46.7335 197.882 46.7206 197.838 46.7206C197.829 46.7206 197.819 46.7212 197.81 46.7223L197.81 46.7223L197.809 46.7225L197.807 46.7227C197.484 46.7659 197.17 46.7875 196.864 46.7875C195.816 46.7875 194.87 46.5332 194.014 46.0225L194.014 46.0228C193.777 45.8796 193.635 45.7965 193.494 45.7965C193.418 45.7965 193.349 45.8202 193.282 45.8468L193.28 45.8475C192.473 46.1786 191.535 46.3633 190.672 46.3633C190.449 46.3633 190.233 46.3511 190.024 46.326L190.023 46.3259C189.343 46.2502 188.495 46.0504 188.093 45.8825L188.092 45.8821L187.87 45.7917C187.855 45.7855 187.839 45.7826 187.824 45.7826C187.78 45.7826 187.738 45.8059 187.716 45.8461L187.439 46.3462C187.037 47.0604 186.672 48.0243 186.454 48.9451L186.454 48.9459C186.292 49.654 186.271 49.887 186.271 51.0393C186.271 52.0995 186.299 52.4647 186.426 53.0546C186.917 55.3459 187.991 57.2876 189.653 58.8976L189.654 58.8979L190.08 59.3082L189.683 59.6783V59.6785C188.728 60.5646 187.817 61.7943 187.282 62.9218C185.643 66.3494 186.222 70.2472 188.811 73.3346L189.093 73.6742L188.769 74.1606C188.235 74.9567 187.543 76.4073 187.248 77.3432L187.248 77.3442C187.114 77.7804 186.933 78.5367 186.848 79.0289L186.848 79.0302C186.722 79.8186 186.701 80.112 186.736 81.2994C186.764 82.4233 186.806 82.7942 186.947 83.4108L186.947 83.4117C187.41 85.3569 188.19 86.8057 189.39 87.9452L189.391 87.9453C190.272 88.7791 191.083 89.2299 192.142 89.451V89.4512C192.468 89.5206 192.806 89.5547 193.153 89.5547Z" fill="#539821"/>
<path d="M209.17 77.3785L209.2 77.3748C209.221 77.3696 209.326 77.3495 209.441 77.3359L209.444 77.3355C209.945 77.2639 210.554 77.0717 211.111 76.8029C211.598 76.5732 211.832 76.3967 212.256 75.9644V75.9647C213.076 75.1355 213.468 74.26 213.609 72.984V72.9842C213.8 71.2748 213.194 69.211 212.125 67.878L212.124 67.8768C212.034 67.7672 211.955 67.6662 211.897 67.5891L211.898 67.5893C212.007 67.5788 212.158 67.5671 212.328 67.5568L212.328 67.5571C213.164 67.5072 213.748 67.3569 214.559 66.975V66.9753C216.125 66.2397 217.235 65.1483 218.011 63.5794L218.011 63.5789C218.56 62.4566 218.697 61.8957 218.704 60.6387V60.6389C218.711 59.7851 218.683 59.5282 218.546 59.0527V59.0529C218.376 58.4484 218.002 57.6573 217.654 57.1589L217.654 57.1584C217.535 56.9896 217.419 56.8259 217.392 56.7856L217.392 56.7856C217.35 56.7227 217.279 56.72 217.26 56.7194L217.261 56.7197C217.258 56.7194 217.257 56.7194 217.254 56.7194C217.138 56.7194 216.901 56.8079 216.642 56.9295V56.9297C215.385 57.5009 214.417 57.7322 213.258 57.7322C212.48 57.7322 212.032 57.6719 210.563 57.3525L210.563 57.3524C209.852 57.2016 209.24 57.1222 208.671 57.1222C207.703 57.1222 206.871 57.3522 205.903 57.8354V57.8357C204.748 58.4068 203.94 59.14 203.508 60.0127L203.508 60.013L203.508 60.0134C203.281 60.4742 203.266 60.5577 203.266 61.2988C203.266 61.9894 203.288 62.1399 203.477 62.5848C203.592 62.8589 203.854 63.3187 204.059 63.6098L204.061 63.6126L204.061 63.6129V63.6132C204.171 63.7628 204.265 63.896 204.329 63.9908L204.33 63.991C204.302 63.9917 204.27 63.9924 204.236 63.9924C202.719 63.9924 201.33 65.2171 200.938 66.8689C200.815 67.3751 200.815 68.3618 200.938 68.8744L200.938 68.8749C201.081 69.4642 201.479 70.2337 201.875 70.6804L201.875 70.6806C202.174 71.0177 202.337 71.1249 202.837 71.3252L202.838 71.3257C203.781 71.6912 205.096 72.4025 205.716 72.874L205.717 72.8745C206.449 73.4233 207.348 74.359 207.818 75.0696L207.819 75.071C208.022 75.3698 208.366 75.9966 208.594 76.4673L208.595 76.468C208.797 76.8796 208.995 77.2451 209.064 77.3253L209.064 77.3256C209.063 77.3253 209.105 77.3785 209.17 77.3785Z" fill="#539821"/>
<path d="M209.55 49.4029C209.546 49.399 209.543 49.3949 209.54 49.3908V49.391L209.55 49.4029H209.55ZM193.447 25.7383C193.447 25.7382 193.447 25.7381 193.447 25.738L193.447 25.7379C193.441 25.7331 193.439 25.7307 193.439 25.7302L193.439 25.7305C193.44 25.7307 193.444 25.7335 193.448 25.7383H193.447ZM194.051 24.2238C194.049 24.2237 194.05 24.2234 194.053 24.2234C194.054 24.2235 194.054 24.2235 194.055 24.2235L194.055 24.2238C194.054 24.2237 194.053 24.2237 194.052 24.2238H194.051ZM213.077 56.1607C213.387 56.1607 213.694 56.1409 213.937 56.0997V56.0999C215.621 55.8149 217.287 54.6511 218.336 53.0477L218.337 53.047C219.02 51.9876 219.47 50.7821 219.722 49.3286L219.722 49.3283C219.898 48.2986 219.911 46.3037 219.757 45.1112L219.757 45.1106C219.183 40.8365 217.001 37.8187 213.395 36.3392L213.393 36.3385L213.392 36.338V36.3382C213.071 36.2105 212.752 36.0877 212.607 36.0465L212.607 36.0467C212.646 35.9259 212.722 35.6174 212.795 35.3137L212.795 35.3133C212.923 34.7698 212.944 34.4447 212.951 33.3033V33.3025C212.951 32.0835 212.93 31.8677 212.78 31.322C212.575 30.5805 212.244 29.8441 211.867 29.2956V29.2959C211.58 28.8648 210.876 28.1526 210.455 27.8592V27.8594C210.032 27.5645 209.241 27.2115 208.648 27.0486L208.647 27.0484C208.23 26.9356 207.619 26.8816 207.003 26.8816C206.396 26.8816 205.772 26.934 205.305 27.0403L205.304 27.0406C205.114 27.0862 204.945 27.1232 204.83 27.1474L204.829 27.1476C204.838 27.0161 204.854 26.8069 204.879 26.5682L204.879 26.5669C205.013 25.1142 204.76 23.5888 204.187 22.4048L204.187 22.4044C203.56 21.119 202.364 20.1695 200.981 19.8551L200.979 19.8548C200.675 19.7897 200.424 19.7596 200.02 19.7596C199.848 19.7596 199.646 19.7651 199.401 19.7756L199.402 19.7759C198.355 19.8108 197.668 19.9525 196.726 20.3118L196.421 20.4251L196.018 20.0643L196.018 20.0646C194.813 18.9761 193.665 18.3179 192.38 17.9781L192.38 17.9783C192.024 17.8835 191.616 17.8488 190.967 17.8488L190.968 17.849C190.936 17.8486 190.901 17.8484 190.869 17.8484C189.893 17.8484 189.413 17.9557 188.597 18.3475C186.881 19.1578 185.68 20.6777 185.11 22.7514C184.973 23.229 184.952 23.5093 184.952 24.6768C184.945 25.9464 184.959 26.0986 185.144 26.7889V26.7892C185.389 27.7174 185.789 28.6811 186.253 29.4635L186.254 29.4639C186.651 30.127 187.462 31.2378 187.746 31.5071L187.749 31.51L187.841 31.5912L187.478 32.0348C186.294 33.4819 185.576 34.9826 185.287 36.6197L185.287 36.6204C185.132 37.533 185.18 39.0949 185.4 39.9277V39.928C185.914 41.8943 187.008 43.4017 188.516 44.1863C189.163 44.5238 189.844 44.6917 190.53 44.6917C191.471 44.6917 192.417 44.3765 193.293 43.7605L193.642 43.5203L193.758 43.6108V43.6111C194.312 44.0536 195.174 44.5815 195.66 44.7753V44.7756C196.173 44.9852 196.302 45.0001 197.073 45.0071L197.074 45.0074C197.849 45.0071 197.963 44.9933 198.357 44.7997V44.7999C199.042 44.4671 199.526 43.7922 199.727 42.9365V42.9368C199.843 42.456 199.842 41.4023 199.728 40.7987V40.7989C199.694 40.5948 199.677 40.4141 199.677 40.3474L199.678 40.3476C199.729 40.2983 199.888 40.1829 200.092 40.0662L200.094 40.0649C200.342 39.9155 200.779 39.6047 201.057 39.3554L201.057 39.3556C202.319 38.2665 202.992 36.9623 202.992 35.5631C202.992 34.4365 202.679 33.7032 201.846 32.8608C201.406 32.4125 201.186 32.258 200.632 31.9946C199.946 31.6649 199.319 31.463 198.832 31.4266L198.832 31.4268L198.576 31.4058C198.573 31.4055 198.57 31.4054 198.566 31.4054C198.514 31.4053 198.467 31.4386 198.45 31.489L198.241 32.1011L198.241 32.1013C197.661 33.8181 196.669 34.9812 195.145 35.7448C194.722 35.957 194.073 36.1961 193.712 36.2699L193.71 36.2702L193.608 36.2925L193.517 35.8706V35.8709C193.465 35.6235 193.389 35.2898 193.338 35.0614C193.329 35.0216 193.315 34.9594 193.308 34.9307L193.244 34.6431L193.414 34.5973L193.414 34.5975C193.585 34.5525 193.94 34.4095 194.209 34.2921L194.212 34.2908C196.54 33.2051 197.429 30.7997 196.366 28.5083C196.352 28.479 196.339 28.4505 196.324 28.4212L196.324 28.4207C195.819 27.3938 195.057 26.6247 193.948 26.0226L193.946 26.0219C193.752 25.9201 193.591 25.8287 193.507 25.7771L193.508 25.7773C193.613 25.4883 193.994 24.5108 194.107 24.234C194.17 24.2507 194.276 24.2875 194.408 24.3452L194.408 24.3455C196.318 25.193 197.921 27.0961 198.342 29.0234L198.342 29.0236L198.46 29.5591C198.471 29.61 198.513 29.6483 198.564 29.655L198.939 29.7036L198.94 29.7037C200.584 29.9089 202.352 30.841 203.33 32.0046C203.784 32.5478 204.344 33.6169 204.52 34.2735L204.52 34.2741C204.674 34.8401 204.729 36.1848 204.621 36.7791L204.621 36.7794C204.336 38.3747 203.431 39.8292 202.067 40.8617L202.067 40.8619L201.685 41.1468C201.654 41.1702 201.635 41.2068 201.635 41.2458V41.8718C201.635 42.6729 201.487 43.3154 201.12 44.0853C200.87 44.6007 200.718 44.8197 200.241 45.3047L200.241 45.3051L199.651 45.9103C199.619 45.9435 199.608 45.992 199.622 46.0359L199.844 46.6967C200.225 47.8678 200.714 48.6521 201.475 49.3432L201.475 49.3433C202.372 50.1576 203.549 50.5622 204.952 50.5622C206.031 50.5622 207.245 50.3233 208.573 49.848L208.575 49.8472L208.575 49.8474C208.947 49.7127 209.331 49.567 209.476 49.4978C209.451 49.5747 209.418 49.671 209.375 49.7757L209.374 49.7793C208.924 50.997 208.779 52.3873 209.03 53.3244V53.3247C209.397 54.7213 210.517 55.7556 211.969 56.0639L211.969 56.0641C212.272 56.1286 212.682 56.1607 213.077 56.1607Z" fill="#539821"/>
<path fill-rule="evenodd" clip-rule="evenodd" d="M45.6884 166.614L48.1712 167.698C51.2444 159.22 52.0368 149.862 50.47 140.998C48.9014 132.134 44.9824 123.815 39.3243 117.25C37.4911 115.115 35.4193 113.126 32.9762 111.771C30.5299 110.411 27.6671 109.768 24.9567 110.382C22.4204 110.969 20.1917 112.631 18.6095 114.775C17.0283 116.917 16.0576 119.502 15.553 122.147C14.9394 125.357 14.988 128.699 15.6861 131.866C15.0768 128.678 15.1254 125.357 15.8192 122.211C16.3918 119.619 17.4129 117.121 18.9944 115.113C20.5741 113.108 22.7375 111.599 25.0974 111.142C27.6159 110.64 30.2652 111.352 32.5244 112.683C34.7882 114.02 36.6993 115.988 38.4306 118.113C43.7526 124.671 47.2979 132.839 48.5582 141.356C49.8201 149.873 48.7992 158.746 45.6885 166.614L45.6884 166.614Z" fill="#351500"/>
<path fill-rule="evenodd" clip-rule="evenodd" d="M49.3603 167.554L52.0398 167.616C52.0924 160.493 52.1531 153.369 52.2219 146.246C52.2666 141.709 52.3059 137.132 51.9848 132.553C51.6681 128.007 50.9714 123.446 49.5675 119.107C48.477 115.726 46.9174 112.456 44.6746 109.758C42.4297 107.056 39.444 104.989 36.1251 104.287C33.9637 103.841 31.7761 103.974 29.6513 104.205C27.5269 104.431 25.4273 104.747 23.3347 104.668C19.7031 104.531 16.0194 103.139 13.4246 100.373C11.3179 98.1315 9.99297 95.0283 9.7934 91.817C9.91082 95.0331 11.1573 98.2073 13.2484 100.559C15.8272 103.455 19.5625 105.015 23.3083 105.26C25.4616 105.401 27.6032 105.146 29.7135 104.982C31.8238 104.822 33.9415 104.749 35.941 105.235C39.0126 105.965 41.7466 108.002 43.7924 110.584C45.8415 113.172 47.2282 116.324 48.2019 119.596C49.4492 123.802 50.0016 128.229 50.2032 132.671C50.4047 137.149 50.2481 141.658 50.0893 146.191C49.8385 153.312 49.5955 160.433 49.3604 167.554V167.554L49.3603 167.554Z" fill="#351500"/>
<path fill-rule="evenodd" clip-rule="evenodd" d="M49.2352 167.067L51.8659 167.616C55.3478 147.019 54.3081 125.625 48.9031 105.637C48.1434 102.813 47.2697 99.959 45.8771 97.3552C44.4858 94.7459 42.504 92.4099 39.9657 91.0601C38.0616 90.0631 35.9874 89.6712 33.9716 89.3339C31.9575 88.9895 29.944 88.6795 28.1164 87.8385C25.2521 86.5302 22.9172 83.909 21.7123 80.7833C20.8797 78.6237 20.5664 76.2251 20.818 73.8883C21.0697 71.5514 21.8862 69.2781 23.1721 67.355C21.8426 69.2435 20.966 71.5067 20.6571 73.866C20.3483 76.2254 20.6079 78.6754 21.4109 80.9126C22.5738 84.1537 24.9147 86.93 27.8907 88.3883C29.7896 89.3126 31.8514 89.6953 33.8526 90.085C35.8515 90.4821 37.8482 90.9047 39.5776 91.8836C41.8954 93.1744 43.682 95.4215 44.9526 97.9118C46.2227 100.409 46.9937 103.187 47.6886 105.998C52.5853 125.917 53.1024 147.011 49.2354 167.067L49.2352 167.067Z" fill="#351500"/>
<path fill-rule="evenodd" clip-rule="evenodd" d="M51.8717 167.484H54.5516L53.2116 63L51.8717 167.484H51.8717Z" fill="#351500"/>
<path fill-rule="evenodd" clip-rule="evenodd" d="M58.3872 167.697L60.87 166.613C57.7594 158.745 56.7383 149.873 58.0003 141.356C59.2607 132.839 62.8059 124.67 68.1279 118.113C69.8592 115.988 71.7703 114.02 74.0341 112.683C76.2933 111.352 78.9426 110.64 81.4611 111.142C83.821 111.599 85.9844 113.108 87.5641 115.113C89.1454 117.121 90.1667 119.619 90.7393 122.21C91.4331 125.357 91.4817 128.678 90.8724 131.866C91.5705 128.699 91.6191 125.357 91.0055 122.147C90.5009 119.502 89.5301 116.917 87.949 114.775C86.3668 112.631 84.1381 110.969 81.6018 110.381C78.8914 109.768 76.0286 110.411 73.5823 111.771C71.1392 113.126 69.0676 115.115 67.2342 117.25C61.5761 123.815 57.657 132.133 56.0885 140.998C54.5216 149.861 55.3141 159.22 58.3873 167.697L58.3872 167.697Z" fill="#351500"/>
<path fill-rule="evenodd" clip-rule="evenodd" d="M44.0317 168C44.0317 168 47.1722 166.789 48.1385 158.831C49.1048 150.874 49.5075 148.798 49.5075 148.798L57.0769 148.625C57.0769 148.625 57.56 162.464 59.8147 165.232L62.0694 168H44.0323L44.0317 168Z" fill="#351500"/>
<path fill-rule="evenodd" clip-rule="evenodd" d="M54.518 167.616L57.1971 167.554C56.9621 160.433 56.7193 153.311 56.4683 146.191C56.3097 141.657 56.1529 137.149 56.3543 132.671C56.556 128.228 57.1084 123.801 58.3557 119.596C59.3294 116.323 60.7163 113.172 62.7652 110.584C64.8113 108.002 67.5449 105.965 70.6166 105.235C72.6161 104.749 74.7339 104.822 76.8441 104.982C78.9546 105.146 81.0963 105.4 83.2494 105.259C86.9952 105.015 90.7305 103.455 93.3094 100.559C95.4002 98.207 96.6467 95.0327 96.7643 91.8168C96.5645 95.0281 95.2398 98.1313 93.1331 100.373C90.538 103.139 86.8545 104.53 83.2227 104.668C81.1303 104.746 79.0306 104.43 76.9061 104.204C74.7813 103.974 72.5937 103.84 70.4323 104.287C67.1135 104.989 64.1279 107.056 61.8829 109.758C59.64 112.455 58.0806 115.726 56.9899 119.107C55.5862 123.446 54.8893 128.006 54.5726 132.553C54.2517 137.132 54.2908 141.708 54.3357 146.246C54.4043 153.369 54.465 160.493 54.5179 167.616L54.518 167.616Z" fill="#351500"/>
<path fill-rule="evenodd" clip-rule="evenodd" d="M54.6917 167.615L57.3225 167.066C53.4553 147.01 53.9726 125.916 58.8691 105.997C59.564 103.186 60.3351 100.408 61.6051 97.9109C62.8758 95.4206 64.6624 93.1735 66.9802 91.8826C68.7097 90.9038 70.7064 90.4811 72.7054 90.0842C74.7064 89.6944 76.7682 89.3118 78.6671 88.3875C81.643 86.9292 83.9841 84.1527 85.1469 80.9118C85.9498 78.6746 86.2095 76.2246 85.9007 73.8652C85.5917 71.5059 84.715 69.2427 83.3856 67.3542C84.6714 69.2771 85.488 71.5505 85.7396 73.8875C85.9913 76.2243 85.6779 78.6229 84.8454 80.7825C83.6403 83.9082 81.3055 86.5295 78.4412 87.8377C76.6136 88.6786 74.6 88.9887 72.5862 89.3331C70.5701 89.6703 68.4961 90.0623 66.5919 91.0593C64.0535 92.4092 62.0719 94.7451 60.6805 97.3544V97.3544C59.2879 99.958 58.4141 102.812 57.6546 105.636C52.2497 125.624 51.21 147.018 54.6918 167.615L54.6917 167.615Z" fill="#351500"/>
<path d="M14.7884 123.985C14.7884 123.985 11.2131 125.101 9.90099 126.998C8.58889 128.896 7.77637 133.528 7.77637 133.528C7.77637 133.528 10.7152 132.547 12.1009 130.848C13.4868 129.15 14.7808 124.081 14.7883 123.986L14.7884 123.985Z" fill="#5AA02C" stroke="#17280B" stroke-width="1.43"/>
<path fill-rule="evenodd" clip-rule="evenodd" d="M15.0831 122.985L15.3632 123.149C14.4301 124.923 13.3695 126.617 12.1947 128.211C11.2555 129.485 10.2435 130.695 9.16664 131.832C10.2099 130.659 11.1841 129.418 12.0822 128.118C13.2057 126.492 14.2098 124.774 15.0831 122.985L15.0831 122.985Z" fill="#17280B"/>
<path d="M31.3927 112.792C31.3927 112.792 30.8946 112.621 28.5865 113.283C25.0697 114.291 24.8769 120.497 24.8769 120.497C24.8769 120.497 30.6775 118.537 31.023 115.885C31.3227 113.584 31.5305 112.779 31.3927 112.792L31.3927 112.792Z" fill="#5AA02C" stroke="#17280B" stroke-width="1.434"/>
<path fill-rule="evenodd" clip-rule="evenodd" d="M31.4761 111.63L31.9703 111.817C31.3818 113.451 30.4988 114.95 29.3919 116.208C28.5866 117.123 27.6638 117.912 26.6619 118.544C27.6246 117.845 28.4905 117.002 29.2269 116.051C30.2391 114.744 31.0059 113.231 31.4761 111.63L31.4761 111.63Z" fill="#17280B"/>
<path d="M20.3255 111.485C20.3255 111.485 17.3144 108.287 13.2239 109.948C9.13338 111.608 7.12787 113.893 7.12787 113.893C7.12787 113.893 11.367 115.061 14.1352 114.591C16.9035 114.121 20.4723 111.634 20.3256 111.485L20.3255 111.485Z" fill="#5AA02C" stroke="#17280B" stroke-width="1.434"/>
<path fill-rule="evenodd" clip-rule="evenodd" d="M22.5006 111.537L22.4306 111.916C20.3868 111.448 18.2799 111.275 16.1856 111.407C14.1401 111.536 12.1065 111.954 10.1545 112.651C12.087 111.894 14.1159 111.41 16.1727 111.217C18.2785 111.019 20.4132 111.126 22.5007 111.537L22.5006 111.537Z" fill="#17280B"/>
<path d="M29.3455 103.245C29.3455 103.245 29.2494 99.9429 27.6161 97.7759C25.9829 95.6089 20.5067 95.5056 20.5067 95.5056C20.5067 95.5056 23.7732 101.078 26.0789 102.316C28.4385 103.583 29.5375 103.245 29.3455 103.245V103.245Z" fill="#5AA02C" stroke="#17280B" stroke-width="1.434"/>
<path fill-rule="evenodd" clip-rule="evenodd" d="M29.9584 104.055L29.4914 104.287C29.0529 103.199 28.5043 102.157 27.8569 101.188C26.9635 99.8519 25.8785 98.6494 24.6013 97.7234C23.9505 97.2515 23.2515 96.8522 22.5193 96.5351C23.2652 96.8129 23.9857 97.1759 24.6645 97.6171C25.9964 98.4835 27.1592 99.646 28.1341 100.963C28.8408 101.917 29.4537 102.956 29.9582 104.055L29.9584 104.055Z" fill="#17280B"/>
<path d="M43.0116 110.982C43.0116 110.982 40.3758 113.782 36.7953 112.329C33.2147 110.875 31.4592 108.875 31.4592 108.875C31.4592 108.875 35.1698 107.852 37.5928 108.264C40.0158 108.675 43.1397 110.852 43.0114 110.982L43.0116 110.982Z" fill="#5AA02C" stroke="#17280B" stroke-width="1.434"/>
<path fill-rule="evenodd" clip-rule="evenodd" d="M44.9157 110.938L44.8545 110.606C43.0655 111.016 41.2212 111.167 39.388 111.051C37.5975 110.939 35.8174 110.572 34.1088 109.963C35.8003 110.625 37.5762 111.049 39.3766 111.218C41.2201 111.391 43.0886 111.297 44.9156 110.938H44.9157Z" fill="#17280B"/>
<path d="M13.1679 101.733C13.1679 101.733 10.2557 104.197 6.85006 102.319C3.44457 100.442 1.90965 98.243 1.90965 98.243C1.90965 98.243 5.70387 97.6751 8.06838 98.3769C10.433 99.0788 13.309 101.619 13.1678 101.733L13.1679 101.733Z" fill="#5AA02C" stroke="#17280B" stroke-width="1.434"/>
<path fill-rule="evenodd" clip-rule="evenodd" d="M15.065 101.919L15.039 101.582C13.2183 101.773 11.37 101.7 9.56045 101.364C7.79315 101.036 6.06282 100.457 4.4288 99.6444C6.04016 100.507 7.76049 101.143 9.53168 101.528C11.3451 101.923 13.2117 102.056 15.065 101.919L15.065 101.919Z" fill="#17280B"/>
<path d="M35.2147 88.413C35.2147 88.413 36.7171 84.4238 33.8765 81.1932C31.036 77.9627 28.4484 76.9147 28.4484 76.9147C28.4484 76.9147 29.0436 81.3156 30.4346 83.74C31.8256 86.1644 35.1475 88.6046 35.2148 88.413H35.2147Z" fill="#5AA02C" stroke="#17280B" stroke-width="1.434"/>
<path fill-rule="evenodd" clip-rule="evenodd" d="M35.9652 90.4713L35.6315 90.5439C35.2671 88.4568 34.6395 86.4184 33.7693 84.5024C32.9193 82.6311 31.838 80.8766 30.5606 79.3001C31.8797 80.8366 33.0126 82.5626 33.9194 84.4208C34.8477 86.3234 35.5384 88.3641 35.9652 90.4712L35.9652 90.4713Z" fill="#17280B"/>
<path d="M22.1156 83.8641C22.1156 83.8641 19.0613 84.3259 16.789 82.9624C14.5165 81.5989 13.4866 75.8043 13.4866 75.8043C13.4866 75.8043 19.1708 78.3198 20.7037 80.5557C22.2722 82.8437 22.1487 84.068 22.1157 83.864L22.1156 83.8641Z" fill="#5AA02C" stroke="#17280B" stroke-width="1.434"/>
<path fill-rule="evenodd" clip-rule="evenodd" d="M22.9648 84.3755L23.0986 83.8402C22.022 83.5609 20.9705 83.1563 19.9684 82.6346C18.5865 81.9145 17.2949 80.9684 16.225 79.7709C15.6797 79.1607 15.1931 78.487 14.7764 77.764C15.1592 78.5082 15.6162 79.2109 16.1381 79.8561C17.1625 81.1219 18.4305 82.1576 19.8085 82.9673C20.8071 83.5546 21.867 84.0279 22.9648 84.3755L22.9648 84.3755Z" fill="#17280B"/>
<path d="M43.9998 97.6414C43.9998 97.6414 43.7231 97.1539 41.5405 96.0115C38.2145 94.2713 34.2201 98.8993 34.2201 98.8993C34.2201 98.8993 39.8892 101.542 41.7988 99.7522C43.4547 98.1998 44.1137 97.7297 43.9998 97.6413V97.6414Z" fill="#5AA02C" stroke="#17280B" stroke-width="1.434"/>
<path fill-rule="evenodd" clip-rule="evenodd" d="M44.7836 96.8075L45.0475 97.3042C43.5826 98.1386 41.9755 98.6582 40.3456 98.833C39.1596 98.9601 37.9626 98.9057 36.8009 98.6749C37.9737 98.8263 39.1611 98.798 40.3162 98.5942C41.9037 98.3142 43.43 97.7008 44.7835 96.8074L44.7836 96.8075Z" fill="#17280B"/>
<path d="M54.0552 81.2817C54.0552 81.2817 54.5537 81.6729 57.3686 81.8564C61.6578 82.136 64.029 75.2626 64.029 75.2626C64.029 75.2626 56.8518 75.1333 55.5434 77.9658C54.4087 80.4223 53.8963 81.2412 54.0552 81.2818V81.2817Z" fill="#5AA02C" stroke="#17280B" stroke-width="1.434"/>
<path fill-rule="evenodd" clip-rule="evenodd" d="M53.5576 82.5506L53.0689 82.1436C54.2956 80.5488 55.805 79.2239 57.4818 78.2582C58.7018 77.5556 60.009 77.0425 61.3508 76.7355C60.0297 77.133 58.7672 77.7303 57.6121 78.5005C56.0245 79.5589 54.6404 80.9459 53.5577 82.5507L53.5576 82.5506Z" fill="#17280B"/>
<path d="M51.4798 90.374C51.4798 90.374 47.5497 90.2244 45.9904 86.1967C44.4312 82.1693 44.5921 79.2586 44.5921 79.2586C44.5921 79.2586 48.0264 81.5927 49.4931 83.902C50.9596 86.2113 51.6668 90.386 51.48 90.374H51.4798Z" fill="#5AA02C" stroke="#17280B" stroke-width="1.434"/>
<path fill-rule="evenodd" clip-rule="evenodd" d="M52.896 91.9209L53.0901 91.6286C51.4943 90.4427 50.0443 89.0228 48.7937 87.4182C47.5722 85.8512 46.541 84.1082 45.7364 82.2474C46.4907 84.1323 47.4777 85.9137 48.6654 87.5302C49.8818 89.1852 51.3083 90.6669 52.8961 91.921L52.896 91.9209Z" fill="#17280B"/>
<path d="M14.7884 123.985C14.7884 123.985 11.2131 125.101 9.90099 126.998C8.58889 128.896 7.77637 133.528 7.77637 133.528C7.77637 133.528 10.7152 132.547 12.1009 130.848C13.4868 129.15 14.7808 124.081 14.7883 123.986L14.7884 123.985Z" fill="#5AA02C" stroke="#17280B" stroke-width="1.43"/>
<path fill-rule="evenodd" clip-rule="evenodd" d="M15.0831 122.985L15.3632 123.149C14.4301 124.923 13.3695 126.617 12.1947 128.211C11.2555 129.485 10.2435 130.695 9.16664 131.832C10.2099 130.659 11.1841 129.418 12.0822 128.118C13.2057 126.492 14.2098 124.774 15.0831 122.985L15.0831 122.985Z" fill="#17280B"/>
<path d="M31.3927 112.792C31.3927 112.792 30.8946 112.621 28.5865 113.283C25.0697 114.291 24.8769 120.497 24.8769 120.497C24.8769 120.497 30.6775 118.537 31.023 115.885C31.3227 113.584 31.5305 112.779 31.3927 112.792L31.3927 112.792Z" fill="#5AA02C" stroke="#17280B" stroke-width="1.434"/>
<path fill-rule="evenodd" clip-rule="evenodd" d="M31.4761 111.63L31.9703 111.817C31.3818 113.451 30.4988 114.95 29.3919 116.208C28.5866 117.123 27.6638 117.912 26.6619 118.544C27.6246 117.845 28.4905 117.002 29.2269 116.051C30.2391 114.744 31.0059 113.231 31.4761 111.63L31.4761 111.63Z" fill="#17280B"/>
<path d="M20.3255 111.485C20.3255 111.485 17.3144 108.287 13.2239 109.948C9.13338 111.608 7.12787 113.893 7.12787 113.893C7.12787 113.893 11.367 115.061 14.1352 114.591C16.9035 114.121 20.4723 111.634 20.3256 111.485L20.3255 111.485Z" fill="#5AA02C" stroke="#17280B" stroke-width="1.434"/>
<path fill-rule="evenodd" clip-rule="evenodd" d="M22.5006 111.537L22.4306 111.916C20.3868 111.448 18.2799 111.275 16.1856 111.407C14.1401 111.536 12.1065 111.954 10.1545 112.651C12.087 111.894 14.1159 111.41 16.1727 111.217C18.2785 111.019 20.4132 111.126 22.5007 111.537L22.5006 111.537Z" fill="#17280B"/>
<path d="M29.3455 103.245C29.3455 103.245 29.2494 99.9429 27.6161 97.7759C25.9829 95.6089 20.5067 95.5056 20.5067 95.5056C20.5067 95.5056 23.7732 101.078 26.0789 102.316C28.4385 103.583 29.5375 103.245 29.3455 103.245V103.245Z" fill="#5AA02C" stroke="#17280B" stroke-width="1.434"/>
<path fill-rule="evenodd" clip-rule="evenodd" d="M29.9584 104.055L29.4914 104.287C29.0529 103.199 28.5043 102.157 27.8569 101.188C26.9635 99.8519 25.8785 98.6494 24.6013 97.7234C23.9505 97.2515 23.2515 96.8522 22.5193 96.5351C23.2652 96.8129 23.9857 97.1759 24.6645 97.6171C25.9964 98.4835 27.1592 99.646 28.1341 100.963C28.8408 101.917 29.4537 102.956 29.9582 104.055L29.9584 104.055Z" fill="#17280B"/>
<path d="M43.0116 110.982C43.0116 110.982 40.3758 113.782 36.7953 112.329C33.2147 110.875 31.4592 108.875 31.4592 108.875C31.4592 108.875 35.1698 107.852 37.5928 108.264C40.0158 108.675 43.1397 110.852 43.0114 110.982L43.0116 110.982Z" fill="#5AA02C" stroke="#17280B" stroke-width="1.434"/>
<path fill-rule="evenodd" clip-rule="evenodd" d="M44.9157 110.938L44.8545 110.606C43.0655 111.016 41.2212 111.167 39.388 111.051C37.5975 110.939 35.8174 110.572 34.1088 109.963C35.8003 110.625 37.5762 111.049 39.3766 111.218C41.2201 111.391 43.0886 111.297 44.9156 110.938H44.9157Z" fill="#17280B"/>
<path d="M13.1679 101.733C13.1679 101.733 10.2557 104.197 6.85006 102.319C3.44457 100.442 1.90965 98.243 1.90965 98.243C1.90965 98.243 5.70387 97.6751 8.06838 98.3769C10.433 99.0788 13.309 101.619 13.1678 101.733L13.1679 101.733Z" fill="#5AA02C" stroke="#17280B" stroke-width="1.434"/>
<path fill-rule="evenodd" clip-rule="evenodd" d="M15.065 101.919L15.039 101.582C13.2183 101.773 11.37 101.7 9.56045 101.364C7.79315 101.036 6.06282 100.457 4.4288 99.6444C6.04016 100.507 7.76049 101.143 9.53168 101.528C11.3451 101.923 13.2117 102.056 15.065 101.919L15.065 101.919Z" fill="#17280B"/>
<path d="M35.2147 88.413C35.2147 88.413 36.7171 84.4238 33.8765 81.1932C31.036 77.9627 28.4484 76.9147 28.4484 76.9147C28.4484 76.9147 29.0436 81.3156 30.4346 83.74C31.8256 86.1644 35.1475 88.6046 35.2148 88.413H35.2147Z" fill="#5AA02C" stroke="#17280B" stroke-width="1.434"/>
<path fill-rule="evenodd" clip-rule="evenodd" d="M35.9652 90.4713L35.6315 90.5439C35.2671 88.4568 34.6395 86.4184 33.7693 84.5024C32.9193 82.6311 31.838 80.8766 30.5606 79.3001C31.8797 80.8366 33.0126 82.5626 33.9194 84.4208C34.8477 86.3234 35.5384 88.3641 35.9652 90.4712L35.9652 90.4713Z" fill="#17280B"/>
<path d="M22.1156 83.8641C22.1156 83.8641 19.0613 84.3259 16.789 82.9624C14.5165 81.5989 13.4866 75.8043 13.4866 75.8043C13.4866 75.8043 19.1708 78.3198 20.7037 80.5557C22.2722 82.8437 22.1487 84.068 22.1157 83.864L22.1156 83.8641Z" fill="#5AA02C" stroke="#17280B" stroke-width="1.434"/>
<path fill-rule="evenodd" clip-rule="evenodd" d="M22.9648 84.3755L23.0986 83.8402C22.022 83.5609 20.9705 83.1563 19.9684 82.6346C18.5865 81.9145 17.2949 80.9684 16.225 79.7709C15.6797 79.1607 15.1931 78.487 14.7764 77.764C15.1592 78.5082 15.6162 79.2109 16.1381 79.8561C17.1625 81.1219 18.4305 82.1576 19.8085 82.9673C20.8071 83.5546 21.867 84.0279 22.9648 84.3755L22.9648 84.3755Z" fill="#17280B"/>
<path d="M43.9998 97.6414C43.9998 97.6414 43.7231 97.1539 41.5405 96.0115C38.2145 94.2713 34.2201 98.8993 34.2201 98.8993C34.2201 98.8993 39.8892 101.542 41.7988 99.7522C43.4547 98.1998 44.1137 97.7297 43.9998 97.6413V97.6414Z" fill="#5AA02C" stroke="#17280B" stroke-width="1.434"/>
<path fill-rule="evenodd" clip-rule="evenodd" d="M44.7836 96.8075L45.0475 97.3042C43.5826 98.1386 41.9755 98.6582 40.3456 98.833C39.1596 98.9601 37.9626 98.9057 36.8009 98.6749C37.9737 98.8263 39.1611 98.798 40.3162 98.5942C41.9037 98.3142 43.43 97.7008 44.7835 96.8074L44.7836 96.8075Z" fill="#17280B"/>
<path d="M91.8389 123.985C91.8389 123.985 95.4142 125.101 96.7264 126.998C98.0385 128.896 98.851 133.528 98.851 133.528C98.851 133.528 95.9122 132.547 94.5264 130.848C93.1405 129.15 91.8466 124.081 91.8391 123.986L91.8389 123.985Z" fill="#5AA02C" stroke="#17280B" stroke-width="1.43"/>
<path fill-rule="evenodd" clip-rule="evenodd" d="M91.5443 122.985L91.2642 123.149C92.1973 124.923 93.2579 126.617 94.4327 128.211C95.3719 129.485 96.3839 130.695 97.4607 131.832C96.4175 130.659 95.4433 129.418 94.5451 128.118C93.4217 126.492 92.4176 124.774 91.5442 122.985L91.5443 122.985Z" fill="#17280B"/>
<path d="M75.2347 112.792C75.2347 112.792 75.7328 112.621 78.0409 113.283C81.5577 114.291 81.7506 120.497 81.7506 120.497C81.7506 120.497 75.9502 118.537 75.6045 115.885C75.3048 113.584 75.097 112.779 75.2347 112.792L75.2347 112.792Z" fill="#5AA02C" stroke="#17280B" stroke-width="1.434"/>
<path fill-rule="evenodd" clip-rule="evenodd" d="M75.1513 111.63L74.6571 111.817C75.2455 113.451 76.1286 114.95 77.2355 116.208C78.0409 117.123 78.9636 117.912 79.9655 118.544C79.0028 117.845 78.1371 117.002 77.4006 116.051C76.3884 114.744 75.6216 113.231 75.1513 111.63V111.63Z" fill="#17280B"/>
<path d="M86.3019 111.485C86.3019 111.485 89.3128 108.287 93.4033 109.948C97.494 111.608 99.4995 113.893 99.4995 113.893C99.4995 113.893 95.2605 115.061 92.4921 114.591C89.724 114.121 86.1552 111.634 86.302 111.485L86.3019 111.485Z" fill="#5AA02C" stroke="#17280B" stroke-width="1.434"/>
<path fill-rule="evenodd" clip-rule="evenodd" d="M84.1268 111.537L84.1968 111.916C86.2406 111.448 88.3475 111.275 90.4418 111.407C92.4873 111.536 94.5209 111.954 96.4729 112.651C94.5405 111.894 92.5115 111.41 90.4547 111.217C88.3489 111.019 86.2142 111.126 84.1267 111.537H84.1268Z" fill="#17280B"/>
<path d="M77.2805 103.245C77.2805 103.245 77.3766 99.9429 79.0097 97.7759C80.6429 95.6089 86.1191 95.5056 86.1191 95.5056C86.1191 95.5056 82.8526 101.078 80.5469 102.316C78.1874 103.583 77.0883 103.245 77.2804 103.245L77.2805 103.245Z" fill="#5AA02C" stroke="#17280B" stroke-width="1.434"/>
<path fill-rule="evenodd" clip-rule="evenodd" d="M76.6676 104.055L77.1346 104.287C77.5729 103.199 78.1216 102.157 78.769 101.188C79.6624 99.8519 80.7474 98.6494 82.0247 97.7234C82.6755 97.2515 83.3744 96.8522 84.1066 96.5351C83.3607 96.8129 82.6402 97.1759 81.9614 97.6171C80.6295 98.4835 79.4666 99.646 78.4919 100.963C77.7851 101.917 77.1723 102.956 76.6677 104.055L76.6676 104.055Z" fill="#17280B"/>
<path d="M63.6157 110.982C63.6157 110.982 66.2514 113.782 69.832 112.328C73.4126 110.875 75.1681 108.875 75.1681 108.875C75.1681 108.875 71.4575 107.852 69.0344 108.264C66.6114 108.675 63.4875 110.852 63.6157 110.982V110.982Z" fill="#5AA02C" stroke="#17280B" stroke-width="1.434"/>
<path fill-rule="evenodd" clip-rule="evenodd" d="M61.7117 110.938L61.7729 110.606C63.5619 111.016 65.4062 111.167 67.2394 111.051C69.0299 110.939 70.81 110.573 72.5186 109.963C70.8271 110.625 69.051 111.049 67.2508 111.218C65.4073 111.391 63.5388 111.298 61.7118 110.938L61.7117 110.938Z" fill="#17280B"/>
<path d="M93.4594 101.733C93.4594 101.733 96.3717 104.197 99.7772 102.319C103.183 100.442 104.718 98.243 104.718 98.243C104.718 98.243 100.923 97.6751 98.5587 98.3769C96.1941 99.0787 93.3181 101.619 93.4593 101.733L93.4594 101.733Z" fill="#5AA02C" stroke="#17280B" stroke-width="1.434"/>
<path fill-rule="evenodd" clip-rule="evenodd" d="M91.5623 101.919L91.5884 101.582C93.4089 101.773 95.2572 101.7 97.0668 101.364C98.8342 101.036 100.565 100.457 102.199 99.6444C100.587 100.507 98.8667 101.143 97.0955 101.528C95.2819 101.923 93.4156 102.056 91.5622 101.919L91.5623 101.919Z" fill="#17280B"/>
<path d="M71.4127 88.413C71.4127 88.413 69.9103 84.4238 72.7508 81.1932C75.5913 77.9627 78.179 76.9147 78.179 76.9147C78.179 76.9147 77.5839 81.3156 76.1928 83.74C74.8019 86.1644 71.4799 88.6046 71.4127 88.413Z" fill="#5AA02C" stroke="#17280B" stroke-width="1.434"/>
<path fill-rule="evenodd" clip-rule="evenodd" d="M70.6622 90.4713L70.9959 90.5439C71.3603 88.4568 71.9879 86.4184 72.8581 84.5024C73.7081 82.6311 74.7894 80.8766 76.0667 79.3001C74.7476 80.8364 73.6146 82.5626 72.7079 84.4208C71.7796 86.3234 71.0889 88.3641 70.6621 90.4712L70.6622 90.4713Z" fill="#17280B"/>
<path d="M84.5117 83.8641C84.5117 83.8641 87.566 84.3259 89.8384 82.9624C92.1107 81.5989 93.1407 75.8043 93.1407 75.8043C93.1407 75.8043 87.4566 78.3198 85.9238 80.5557C84.3551 82.8437 84.4789 84.068 84.5117 83.864V83.8641Z" fill="#5AA02C" stroke="#17280B" stroke-width="1.434"/>
<path fill-rule="evenodd" clip-rule="evenodd" d="M83.6612 84.3755L83.5274 83.8402C84.6039 83.5608 85.6556 83.1562 86.6576 82.6346C88.0394 81.9145 89.331 80.9684 90.4009 79.7709C90.9462 79.1607 91.4329 78.487 91.8495 77.764C91.4668 78.5082 91.0098 79.2109 90.4879 79.8561C89.4635 81.1219 88.1955 82.1576 86.8175 82.9673V82.9673C85.8188 83.5545 84.759 84.0279 83.6612 84.3755V84.3755Z" fill="#17280B"/>
<path d="M62.6276 97.6414C62.6276 97.6414 62.9041 97.1538 65.087 96.0116C68.4129 94.2713 72.4072 98.8994 72.4072 98.8994C72.4072 98.8994 66.738 101.542 64.8285 99.7523C63.1725 98.1999 62.5136 97.7298 62.6276 97.6414V97.6414Z" fill="#5AA02C" stroke="#17280B" stroke-width="1.434"/>
<path fill-rule="evenodd" clip-rule="evenodd" d="M61.8423 96.8075L61.5784 97.3042C63.0434 98.1386 64.6505 98.6582 66.2803 98.833C67.4663 98.9601 68.6633 98.9057 69.8248 98.6749C68.6521 98.8263 67.4646 98.798 66.3095 98.5942C64.7221 98.3142 63.1958 97.7008 61.8422 96.8074L61.8423 96.8075Z" fill="#17280B"/>
<path d="M91.8389 123.985C91.8389 123.985 95.4142 125.101 96.7264 126.998C98.0385 128.896 98.851 133.528 98.851 133.528C98.851 133.528 95.9122 132.547 94.5264 130.848C93.1405 129.15 91.8466 124.081 91.8391 123.986L91.8389 123.985Z" fill="#5AA02C" stroke="#17280B" stroke-width="1.43"/>
<path fill-rule="evenodd" clip-rule="evenodd" d="M91.5443 122.985L91.2642 123.149C92.1973 124.923 93.2579 126.617 94.4327 128.211C95.3719 129.485 96.3839 130.695 97.4607 131.832C96.4175 130.659 95.4433 129.418 94.5451 128.118C93.4217 126.492 92.4176 124.774 91.5442 122.985L91.5443 122.985Z" fill="#17280B"/>
<path d="M75.2347 112.792C75.2347 112.792 75.7328 112.621 78.0409 113.283C81.5577 114.291 81.7506 120.497 81.7506 120.497C81.7506 120.497 75.9502 118.537 75.6045 115.885C75.3048 113.584 75.097 112.779 75.2347 112.792L75.2347 112.792Z" fill="#5AA02C" stroke="#17280B" stroke-width="1.434"/>
<path fill-rule="evenodd" clip-rule="evenodd" d="M75.1513 111.63L74.6571 111.817C75.2455 113.451 76.1286 114.95 77.2355 116.208C78.0409 117.123 78.9636 117.912 79.9655 118.544C79.0028 117.845 78.1371 117.002 77.4006 116.051C76.3884 114.744 75.6216 113.231 75.1513 111.63V111.63Z" fill="#17280B"/>
<path d="M86.3019 111.485C86.3019 111.485 89.3128 108.287 93.4033 109.948C97.494 111.608 99.4995 113.893 99.4995 113.893C99.4995 113.893 95.2605 115.061 92.4921 114.591C89.724 114.121 86.1552 111.634 86.302 111.485L86.3019 111.485Z" fill="#5AA02C" stroke="#17280B" stroke-width="1.434"/>
<path fill-rule="evenodd" clip-rule="evenodd" d="M84.1268 111.537L84.1968 111.916C86.2406 111.448 88.3475 111.275 90.4418 111.407C92.4873 111.536 94.5209 111.954 96.4729 112.651C94.5405 111.894 92.5115 111.41 90.4547 111.217C88.3489 111.019 86.2142 111.126 84.1267 111.537H84.1268Z" fill="#17280B"/>
<path d="M77.2805 103.245C77.2805 103.245 77.3766 99.9429 79.0097 97.7759C80.6429 95.6089 86.1191 95.5056 86.1191 95.5056C86.1191 95.5056 82.8526 101.078 80.5469 102.316C78.1874 103.583 77.0883 103.245 77.2804 103.245L77.2805 103.245Z" fill="#5AA02C" stroke="#17280B" stroke-width="1.434"/>
<path fill-rule="evenodd" clip-rule="evenodd" d="M76.6676 104.055L77.1346 104.287C77.5729 103.199 78.1216 102.157 78.769 101.188C79.6624 99.8519 80.7474 98.6494 82.0247 97.7234C82.6755 97.2515 83.3744 96.8522 84.1066 96.5351C83.3607 96.8129 82.6402 97.1759 81.9614 97.6171C80.6295 98.4835 79.4666 99.646 78.4919 100.963C77.7851 101.917 77.1723 102.956 76.6677 104.055L76.6676 104.055Z" fill="#17280B"/>
<path d="M63.6157 110.982C63.6157 110.982 66.2514 113.782 69.832 112.328C73.4126 110.875 75.1681 108.875 75.1681 108.875C75.1681 108.875 71.4575 107.852 69.0344 108.264C66.6114 108.675 63.4875 110.852 63.6157 110.982V110.982Z" fill="#5AA02C" stroke="#17280B" stroke-width="1.434"/>
<path fill-rule="evenodd" clip-rule="evenodd" d="M61.7117 110.938L61.7729 110.606C63.5619 111.016 65.4062 111.167 67.2394 111.051C69.0299 110.939 70.81 110.573 72.5186 109.963C70.8271 110.625 69.051 111.049 67.2508 111.218C65.4073 111.391 63.5388 111.298 61.7118 110.938L61.7117 110.938Z" fill="#17280B"/>
<path d="M93.4594 101.733C93.4594 101.733 96.3717 104.197 99.7772 102.319C103.183 100.442 104.718 98.243 104.718 98.243C104.718 98.243 100.923 97.6751 98.5587 98.3769C96.1941 99.0787 93.3181 101.619 93.4593 101.733L93.4594 101.733Z" fill="#5AA02C" stroke="#17280B" stroke-width="1.434"/>
<path fill-rule="evenodd" clip-rule="evenodd" d="M91.5623 101.919L91.5884 101.582C93.4089 101.773 95.2572 101.7 97.0668 101.364C98.8342 101.036 100.565 100.457 102.199 99.6444C100.587 100.507 98.8667 101.143 97.0955 101.528C95.2819 101.923 93.4156 102.056 91.5622 101.919L91.5623 101.919Z" fill="#17280B"/>
<path d="M71.4127 88.413C71.4127 88.413 69.9103 84.4238 72.7508 81.1932C75.5913 77.9627 78.179 76.9147 78.179 76.9147C78.179 76.9147 77.5839 81.3156 76.1928 83.74C74.8019 86.1644 71.4799 88.6046 71.4127 88.413Z" fill="#5AA02C" stroke="#17280B" stroke-width="1.434"/>
<path fill-rule="evenodd" clip-rule="evenodd" d="M70.6622 90.4713L70.9959 90.5439C71.3603 88.4568 71.9879 86.4184 72.8581 84.5024C73.7081 82.6311 74.7894 80.8766 76.0667 79.3001C74.7476 80.8364 73.6146 82.5626 72.7079 84.4208C71.7796 86.3234 71.0889 88.3641 70.6621 90.4712L70.6622 90.4713Z" fill="#17280B"/>
<path d="M84.5117 83.8641C84.5117 83.8641 87.566 84.3259 89.8384 82.9624C92.1107 81.5989 93.1407 75.8043 93.1407 75.8043C93.1407 75.8043 87.4566 78.3198 85.9238 80.5557C84.3551 82.8437 84.4789 84.068 84.5117 83.864V83.8641Z" fill="#5AA02C" stroke="#17280B" stroke-width="1.434"/>
<path fill-rule="evenodd" clip-rule="evenodd" d="M83.6612 84.3755L83.5274 83.8402C84.6039 83.5608 85.6556 83.1562 86.6576 82.6346C88.0394 81.9145 89.331 80.9684 90.4009 79.7709C90.9462 79.1607 91.4329 78.487 91.8495 77.764C91.4668 78.5082 91.0098 79.2109 90.4879 79.8561C89.4635 81.1219 88.1955 82.1576 86.8175 82.9673V82.9673C85.8188 83.5545 84.759 84.0279 83.6612 84.3755V84.3755Z" fill="#17280B"/>
<path d="M62.6276 97.6414C62.6276 97.6414 62.9041 97.1538 65.087 96.0116C68.4129 94.2713 72.4072 98.8994 72.4072 98.8994C72.4072 98.8994 66.738 101.542 64.8285 99.7523C63.1725 98.1999 62.5136 97.7298 62.6276 97.6414V97.6414Z" fill="#5AA02C" stroke="#17280B" stroke-width="1.434"/>
<path fill-rule="evenodd" clip-rule="evenodd" d="M61.8423 96.8075L61.5784 97.3042C63.0434 98.1386 64.6505 98.6582 66.2803 98.833C67.4663 98.9601 68.6633 98.9057 69.8248 98.6749C68.6521 98.8263 67.4646 98.798 66.3095 98.5942C64.7221 98.3142 63.1958 97.7008 61.8422 96.8074L61.8423 96.8075Z" fill="#17280B"/>
<path opacity="0.25" d="M1 116.651C1 88.6227 23.9433 65.9186 52.2683 65.9186C80.5934 65.9186 103.537 88.6214 103.537 116.651C103.537 144.68 80.5934 167.384 52.2683 167.384C23.9433 167.384 1 144.681 1 116.651Z" fill="#3F7F00"/>
</svg>
