<svg width="94" height="138" viewBox="0 0 94 138" fill="none" xmlns="http://www.w3.org/2000/svg">
<path d="M62.8678 113.275L31.6646 113.369L31.6808 118.226L62.884 118.132L62.8678 113.275Z" fill="#CBDBBB"/>
<path d="M62.9006 123.134L31.6974 123.227L31.7138 128.157L62.9171 128.063L62.9006 123.134Z" fill="#CBDBBB"/>
<path d="M57.7331 133.008L36.931 133.07L36.9475 138L57.7495 137.937L57.7331 133.008Z" fill="#CBDBBB"/>
<path d="M46.791 1.59642e-07L43.7997 0.0895733C34.8133 1.07502 28.1062 2.95544 23.6785 5.73083C18.1848 8.73698 13.4766 12.5339 9.55387 17.1216C5.74453 21.6484 3.04614 26.6881 1.45872 32.2407C-0.232342 37.4416 -0.453094 43.5184 0.796456 50.4712C1.7397 55.0166 3.39537 59.3156 5.76347 63.368L17.5533 79.4158C19.2785 81.6514 20.7451 84.1464 21.953 86.9008C25.005 93.594 26.4271 100.743 26.2194 108.348L67.9754 108.222C67.6322 100.537 68.913 93.3482 71.8178 86.6564C73.5214 83.0199 74.3755 81.3737 74.3803 81.7179L86.8701 65.0053C88.3257 63.1057 89.9771 59.6209 91.8243 54.551C93.229 49.3494 93.8746 45.5654 93.7612 43.1992C93.9361 42.2034 93.6287 39.3529 92.8388 34.6477C92.5026 31.7348 90.6701 27.3575 87.3412 21.5159C84.1755 16.6905 80.0282 12.4565 74.8993 8.81391C66.3165 2.93718 56.947 -0.000790746 46.791 1.59642e-07ZM46.9198 4.77657L49.4928 4.85309C59.609 4.97928 69.465 9.75132 79.0608 19.1692L82.0994 22.8755C83.9341 25.4589 85.3797 28.1899 86.4363 31.0686C88.5562 36.9034 89.0792 42.8641 88.0051 48.9506C87.4647 51.9551 86.5149 54.875 85.1556 57.7101L82.8045 61.8412C73.7904 73.4027 68.4126 81.3513 66.6711 85.6871C63.8861 92.6453 62.5947 98.5432 62.7967 103.381L57.5963 103.396L57.4811 68.8907L57.7788 68.3218L52.417 68.5597L52.2425 68.9063L52.3577 103.412L41.9566 103.443L41.8417 69.0291L36.6023 69.2616L36.7179 103.459L31.5175 103.474C31.4352 96.6078 29.8163 90.1021 26.6607 83.9571C23.845 78.8574 22.278 76.1984 21.9598 75.9802L11.1567 62.0562C9.36491 59.3745 7.98515 56.567 7.0174 53.6335C5.08818 47.6892 4.76928 41.7061 6.06068 35.6843C8.01164 26.5988 13.4484 18.8881 22.3709 12.5523C29.849 7.36917 38.032 4.77725 46.9198 4.77657Z" fill="#CBDBBB"/>
<path d="M38.1627 28.7875C38.1632 28.7875 38.1637 28.7874 38.1639 28.7874L38.1645 28.7876C38.1645 28.7874 38.1642 28.7875 38.1636 28.7875H38.1627ZM22.2149 28.6448C22.2147 28.6427 22.2146 28.639 22.2151 28.6342L22.2159 28.6344C22.2161 28.6395 22.2161 28.6429 22.2159 28.6448H22.2149ZM38.4988 27.5203V27.5205C38.4978 27.5197 38.4964 27.5186 38.4946 27.5171L38.4953 27.5173C38.4975 27.5186 38.4989 27.5197 38.4996 27.5203H38.4988ZM21.8935 44.479C22.2493 44.479 22.5907 44.4575 22.8173 44.4089L22.8173 44.4092C24.0369 44.1483 24.961 43.3634 25.2516 42.3193C25.457 41.5972 25.3339 40.5437 24.9344 39.5133L24.9342 39.513C24.8901 39.4004 24.8601 39.3199 24.8407 39.2633C26.4613 39.8748 27.448 40.092 28.6289 40.092C28.6417 40.092 28.6603 40.092 28.6734 40.0919L28.6732 40.0921C30.0845 40.0863 31.1389 39.6572 31.9641 38.739L31.9642 38.739C32.3065 38.3575 32.843 37.3733 32.9922 36.8416L33.0966 36.484C33.1071 36.4483 33.0954 36.41 33.0663 36.3852L32.7055 36.0763L32.7055 36.0765C32.1394 35.5768 31.6958 34.8496 31.5027 34.1118V34.112C31.4647 33.956 31.43 33.5742 31.4242 33.273V33.2732V32.7121C31.4242 32.6792 31.4067 32.6484 31.3777 32.6303L31.174 32.5034L31.174 32.5036C30.8413 32.2891 30.089 31.5764 29.8336 31.2374C28.1246 28.9543 28.6991 26.0757 30.9597 24.5554C31.2825 24.3384 31.6399 24.1488 32.0304 23.9924C32.4952 23.8075 33.2422 23.6064 33.6614 23.5581L33.6635 23.5578C33.942 23.5201 34.0601 23.4983 34.1051 23.2933V23.2935C34.312 22.4276 34.5692 21.8495 35.0434 21.1996C35.5856 20.4642 36.5428 19.7089 37.4396 19.3244L37.4396 19.3246L37.4404 19.3241C37.5572 19.2735 37.6598 19.2322 37.7257 19.2073C37.8331 19.4528 38.1456 20.2318 38.2183 20.4345L38.2191 20.4347C38.1762 20.4646 38.0905 20.5146 37.9807 20.5648L37.9788 20.5657C36.0637 21.4874 35.0514 23.4131 35.6222 25.1393V25.1395C35.9602 26.1747 36.9334 27.0164 38.2264 27.4156L38.2278 27.416C38.3255 27.4448 38.4061 27.4753 38.4533 27.496L38.4542 27.4963C38.4053 27.7335 38.1927 28.5662 38.122 28.784L38.1211 28.7842C37.8728 28.7469 36.9942 28.4339 36.5741 28.2132V28.2134C35.47 27.6195 34.5562 26.4995 34.2084 25.2941L34.2081 25.2931L34.1033 24.9455C34.0905 24.903 34.0495 24.8745 34.004 24.8745C33.9989 24.8745 33.9938 24.8749 33.9886 24.8756L33.7559 24.9087H33.7555C33.249 24.9822 32.7799 25.1288 32.2492 25.3692L32.2492 25.3694C31.8012 25.5673 31.5997 25.7063 31.2544 26.028L31.2537 26.0286C30.5238 26.7204 30.2149 27.4701 30.275 28.4042V28.4045C30.3651 29.7306 31.3698 31.0641 32.8471 31.8539L33.0796 31.9792L33.0178 32.2855V32.2857C32.9049 32.822 32.9161 33.6855 33.0365 34.1424C33.1758 34.6765 33.5394 35.1748 33.9741 35.422L33.9746 35.4223C34.4053 35.6638 34.6449 35.7228 35.1913 35.7228C36.0287 35.7228 36.8474 35.4195 37.7036 34.8095C38.0254 34.5818 38.1167 34.5363 38.1528 34.5363L38.1537 34.5365C38.634 34.8527 39.1714 35.139 39.5321 35.2644V35.2646C39.8854 35.388 40.036 35.4148 40.5578 35.4148C40.6162 35.4148 40.6814 35.4144 40.7502 35.4139L40.7494 35.4141C41.4227 35.4139 41.572 35.3973 41.9334 35.2638L41.9334 35.264C42.8214 34.9416 43.6004 34.3435 44.1528 33.5552V33.5554C45.8527 31.1354 45.4914 27.866 43.2784 25.3891L43.2782 25.3888C43.1211 25.2145 43.0394 25.0965 43.0181 25.0467L43.0189 25.0468C43.0684 24.9839 43.2009 24.8236 43.3479 24.661L43.3482 24.6606C44.0369 23.8907 44.6661 22.8598 45.0022 21.96L45.0023 21.9599C46.2195 18.6902 44.8426 15.3349 41.8681 14.3401V14.3403C41.8069 14.3196 41.7448 14.3001 41.6821 14.2816L41.6818 14.2815C41.3583 14.1874 40.8337 14.1418 40.3285 14.1418C39.8713 14.1418 39.4137 14.1791 39.1204 14.259L39.1195 14.2592C38.0852 14.5505 37.0413 15.121 36.2154 15.8478L35.8126 16.1998L35.5342 16.1088L35.5334 16.1085C34.6059 15.8025 34.1417 15.712 33.2742 15.684L33.2744 15.6842C33.0546 15.6757 32.8837 15.6709 32.7405 15.6709C32.401 15.6709 32.2191 15.6984 31.9186 15.7696L31.9184 15.7697C30.6419 16.075 29.7911 16.7516 29.2139 17.9078L29.2139 17.908C28.8033 18.7256 28.715 19.1995 28.715 20.5261C28.715 21.0658 28.7058 21.3836 28.6902 21.5216L28.6892 21.5218C28.2499 21.3935 27.4882 21.3239 26.8025 21.3239C26.3343 21.3239 25.8875 21.3563 25.5911 21.4299C24.0931 21.8017 22.9389 22.7551 22.3271 24.112L22.3269 24.1123C21.822 25.2442 21.7413 26.8167 22.1183 28.2237L22.1183 28.2239C22.1597 28.3772 22.1913 28.5056 22.2063 28.5777L22.2073 28.5779C22.1275 28.6076 21.9857 28.6597 21.8279 28.7145L21.8267 28.7149C19.7476 29.4629 18.174 30.8152 17.1558 32.7399C15.1806 36.4732 16.0201 41.8475 18.9193 43.6723V43.6724C19.4174 43.987 19.776 44.1453 20.4359 44.3352L20.436 44.3355C20.7566 44.4296 21.3555 44.479 21.8935 44.479Z" fill="#539821"/>
<path d="M38.2599 71.03C38.6725 71.03 39.0878 70.9925 39.4019 70.9152L39.4021 70.9151C40.9685 70.5256 42.3224 69.3599 43.1762 67.6911L43.1763 67.691C44.5503 64.9967 44.2051 61.7054 42.2674 58.917L42.2661 58.9151V58.9153C42.1142 58.6991 41.992 58.5137 41.9439 58.4344L41.9447 58.4347C41.9945 58.3686 42.1103 58.2283 42.2494 58.0676L42.2494 58.0675C43.1847 56.9859 43.7977 55.7966 44.0865 54.495V54.4949C44.264 53.6928 44.264 52.4765 44.0865 51.6744C43.7326 50.0754 42.8772 48.6628 41.5021 47.404V47.4042L41.1114 47.0429L41.6318 46.5448L41.632 46.5446C42.8375 45.3853 43.6267 44.0793 44.0447 42.545C44.2803 41.6961 44.3333 41.1678 44.2982 40.1782L44.2982 40.1781C44.2511 38.9004 44.0085 38.0256 43.3963 36.8984L43.3961 36.8981C43.2287 36.5926 43.1327 36.4226 43.0115 36.3796L43.0115 36.3796C42.993 36.373 42.9745 36.3692 42.9555 36.3679L42.9555 36.3682C42.9504 36.3676 42.9449 36.3674 42.9398 36.3674C42.9225 36.3674 42.9061 36.3694 42.8912 36.3723L42.8917 36.3725C42.8136 36.3846 42.525 36.4647 42.2567 36.5404V36.5406C41.7158 36.6918 41.1403 36.7675 40.5736 36.7675C39.8826 36.7675 39.2067 36.6551 38.6229 36.4332L38.6223 36.4329L38.2672 36.3005C38.255 36.2959 38.2422 36.2937 38.2294 36.2937C38.2126 36.2937 38.1959 36.2976 38.1808 36.3052L37.7443 36.5259L37.7433 36.5264C37.2003 36.8081 36.6242 36.9971 36.0379 37.078V37.0782C35.8627 37.1021 35.6257 37.1139 35.3908 37.1139C35.0462 37.1139 34.7372 37.0882 34.6351 37.0506L34.6344 37.0503C34.6329 37.0498 34.6301 37.0488 34.6285 37.0483L34.6282 37.0482C34.6112 37.0426 34.5916 37.0385 34.5698 37.0385C34.5248 37.0385 34.4868 37.0559 34.4571 37.0814V37.0816C34.3887 37.1401 34.3392 37.2703 34.2784 37.4533V37.4535C33.4085 39.9594 31.2469 41.4848 28.571 41.4848C28.5646 41.4848 28.5632 41.4848 28.5568 41.4848L28.5571 41.485C28.1627 41.4793 27.9635 41.4634 27.0689 41.3477L27.069 41.3479L26.768 41.3039C26.7628 41.3031 26.7575 41.3028 26.7523 41.3028C26.7278 41.3028 26.7039 41.311 26.685 41.3263C26.6621 41.3449 26.649 41.3721 26.649 41.4006V41.6765C26.649 42.2001 26.4384 43.0066 26.1598 43.5352V43.5354L26.0201 43.7944C26.0048 43.8229 26.005 43.8566 26.0208 43.8848C26.0366 43.913 26.0658 43.9322 26.0993 43.9361L26.3786 43.9692L26.3786 43.9694C27.5655 44.1217 28.9235 44.6936 29.6795 45.3562L29.68 45.3567L29.9419 45.5829C29.9617 45.5999 29.9866 45.6084 30.0115 45.6084C30.0382 45.6084 30.065 45.5986 30.0851 45.5792L30.446 45.2316V45.2318C31.3289 44.395 32.4761 43.9435 33.657 43.9435C33.9322 43.9435 34.209 43.968 34.4852 44.0179L34.4852 44.0181C34.9645 44.1044 35.5637 44.3106 35.9124 44.5078L35.9133 44.5083C36.0382 44.5773 36.1685 44.639 36.2169 44.6533L36.217 44.6533C36.2205 44.6543 36.237 44.6595 36.2564 44.6595C36.3061 44.6595 36.3405 44.6242 36.3399 44.6242L36.3398 44.6244C36.3881 44.5792 36.5029 44.4174 36.6129 44.2421L36.6135 44.2411C37.1103 43.4291 37.934 42.6871 38.7417 42.2989L38.7417 42.2991L39.0373 42.1588L39.0475 42.1824L39.0475 42.1826C39.0781 42.2578 39.2054 42.5649 39.338 42.8763L39.338 42.8765L39.3387 42.878C39.4359 43.1022 39.5158 43.299 39.5521 43.3927L39.5529 43.3929C39.5001 43.4257 39.4043 43.4802 39.2845 43.544L39.2833 43.5447C39.0926 43.6497 38.7307 43.926 38.4821 44.1671V44.1673C38.1132 44.5167 37.9725 44.7078 37.758 45.1314V45.1316C37.4315 45.7729 37.2996 46.3114 37.2996 46.9779C37.2996 48.0421 37.6781 48.8832 38.4997 49.662L38.9454 50.0844L38.5636 50.6126L38.5636 50.6128C38.3796 50.8635 38.2159 51.0759 38.1418 51.1648L38.141 51.1649C37.9576 51.0567 37.3967 50.5873 37.1517 50.2982L37.1516 50.298C36.2879 49.2841 35.8766 48.175 35.8766 46.84V46.1669C35.8766 46.1356 35.8608 46.1062 35.8341 46.0877L35.642 45.9553L35.6421 45.9555C35.3262 45.7258 34.7324 45.4676 34.3307 45.3766L34.3303 45.3765C34.0891 45.3229 33.8509 45.296 33.6166 45.296C32.8048 45.296 32.0529 45.6184 31.4046 46.2417L31.4044 46.2418C31.1598 46.4783 30.9995 46.6555 30.9756 46.7658V46.7658C30.9712 46.786 30.9692 46.8114 30.9769 46.8381L30.9786 46.8434C30.9965 46.8944 31.0896 47.1481 31.1886 47.4076C31.4791 48.1904 31.5346 49.0775 31.3393 49.7438L31.3394 49.744C31.2855 49.897 31.3815 49.9861 31.5111 50.0622L31.513 50.0633C31.8224 50.236 32.4343 50.8144 32.6955 51.1911L32.6959 51.1917C33.5476 52.4026 33.6876 54.1496 33.0354 55.6625L33.0351 55.6632L32.8954 55.9942C32.8835 56.0224 32.8861 56.0543 32.9024 56.0804C32.9188 56.1066 32.947 56.124 32.9789 56.1277L33.2175 56.1553L33.2175 56.1555C34.0776 56.2544 34.3955 56.3088 34.816 56.4381L34.8169 56.4383C36.7763 57.0231 38.0235 58.3782 38.372 60.2949V60.295C38.4245 60.5824 38.4636 60.8891 38.4636 60.9789C38.4636 61.2167 38.5581 61.2541 38.8856 61.3684V61.3686C39.8471 61.7116 40.8634 62.6406 41.3246 63.6009C41.4541 63.8728 41.5657 64.1961 41.5933 64.3277L41.5941 64.3279C41.3616 64.3899 40.5837 64.5769 40.3156 64.6287L40.3153 64.6287C40.2798 64.6357 40.2595 64.6389 40.2466 64.6398L40.2458 64.64C40.2351 64.6208 40.2195 64.5745 40.1857 64.4563L40.1857 64.4565C40.0087 63.8045 39.4009 63.0995 38.7373 62.7679L38.7371 62.7677C38.257 62.5292 37.7293 62.4137 37.1912 62.4137C36.1994 62.4137 35.1739 62.8062 34.3415 63.5436L34.3416 63.5438L34.1232 63.7337L33.7217 63.4142L33.7213 63.4139L33.7213 63.4141L33.7213 63.4139V63.4141C33.4593 63.2042 33.1962 62.9761 33.1253 62.9037L33.1241 62.9026L33.0622 62.8414L33.4115 62.5285V62.5287C33.8986 62.094 34.3322 61.8073 34.9688 61.5138L34.9694 61.5135C35.4563 61.2855 36.3712 61.0437 36.7103 61.0437C36.7857 61.0437 36.8783 61.0421 36.946 60.9985V60.9987C36.9705 60.9828 36.9909 60.9624 37.0063 60.9374V60.9376C37.0327 60.8945 37.0401 60.8451 37.0401 60.7969C37.0401 60.6811 36.9948 60.4991 36.921 60.2264C36.6296 59.1223 35.9783 58.3069 35.0438 57.884L35.0436 57.8839C34.3704 57.5811 34.0495 57.5155 33.1841 57.5155C33.1479 57.5155 33.1048 57.5156 33.0664 57.5159L33.0668 57.5161L33.0659 57.5159C32.385 57.5214 32.1376 57.5496 31.6614 57.668H31.6614C29.5127 58.2037 27.681 59.5496 26.8568 61.1962L26.8566 61.1967C26.5532 61.8112 26.4511 62.2556 26.4511 62.9317C26.4511 63.6598 26.5602 64.0771 26.927 64.7949L26.9276 64.796C27.1539 65.225 27.3001 65.4154 27.6628 65.7592L27.6631 65.7595C28.3846 66.4378 29.1531 66.7683 30.151 66.8193L30.1509 66.8196L30.1523 66.8194C30.26 66.8247 30.3565 66.8278 30.4501 66.8278C30.8565 66.8278 31.1662 66.7681 31.8162 66.5837L31.8192 66.5828C31.8288 66.5798 31.8339 66.5794 31.8359 66.5794C31.8357 66.5794 31.8357 66.5794 31.836 66.5794C31.8388 66.5794 31.8639 66.5845 31.9243 66.6827L31.9248 66.6833C32.4843 67.5766 34.0642 69.2516 34.9541 69.8832L34.9541 69.8834C35.5744 70.3312 36.483 70.7625 37.1095 70.9152L37.1097 70.9153C37.4292 70.9924 37.8474 71.03 38.2599 71.03Z" fill="#539821"/>
<path d="M29.0167 50.7372C29.0164 50.7371 29.0162 50.737 29.0159 50.7369L29.0159 50.7371C29.016 50.7368 29.0161 50.7366 29.0162 50.7365V50.7367C29.0167 50.7367 29.0171 50.7369 29.0177 50.7372H29.0167ZM25.1459 61.3746C25.2073 61.3746 25.2455 61.3161 25.2455 61.3128L25.2438 61.313C25.2815 61.247 25.4148 60.9828 25.5654 60.6784L25.5655 60.6782C26.0031 59.7885 26.4737 59.1415 27.1457 58.4991L27.1457 58.4993C27.9839 57.6992 29.2273 56.9623 30.424 56.5642L30.426 56.5635C30.7628 56.4473 30.9044 56.3548 31.1759 56.0746L31.1759 56.0748C31.8072 55.436 32.1417 54.51 32.0758 53.6075V53.6073C32.0162 52.8044 31.7463 52.1706 31.217 51.6177L31.2169 51.6175C30.721 51.1017 29.9139 50.7525 29.1967 50.7525C29.1736 50.7525 29.1522 50.7519 29.1327 50.751L29.1336 50.7512C29.1627 50.7152 29.1989 50.6726 29.2399 50.6275L29.2401 50.6274C29.501 50.3398 29.8334 49.7424 29.9592 49.3391V49.3393C30.1659 48.6819 30.0325 47.8581 29.6385 47.2779C29.1984 46.621 28.3161 46.0084 27.3695 45.6832V45.6834C26.6577 45.4351 26.0395 45.3117 25.3708 45.3117C24.8066 45.3117 24.2108 45.3995 23.4969 45.5699L23.4967 45.57C22.7826 45.742 22.1641 45.8262 21.599 45.8262C21.337 45.8262 21.0868 45.8082 20.8433 45.7722L20.8426 45.7721C20.1088 45.6689 19.6936 45.5452 18.9388 45.212V45.2122L18.3865 44.9641C18.3724 44.9577 18.3573 44.9547 18.3424 44.9547C18.3131 44.9547 18.2844 44.9665 18.2642 44.9884L18.1129 45.1539L18.112 45.1549C17.851 45.4484 17.479 46.1278 17.3192 46.5711L17.3188 46.5721C16.6884 48.3871 17.2379 50.3826 18.7802 51.8949H18.7802C19.8202 52.9143 21.0715 53.495 22.4211 53.5795L22.4219 53.5796C22.5685 53.5878 22.6978 53.5984 22.7902 53.6079L22.7912 53.6081C22.7553 53.6531 22.7105 53.7085 22.6613 53.7686V53.7688C22.0741 54.4712 21.6721 55.3185 21.4655 56.2641C21.3171 56.9336 21.334 58.0086 21.496 58.5718L21.4961 58.5721C21.9322 60.0669 23.083 61.0303 24.7782 61.3124L24.7782 61.3126C24.9673 61.345 25.1258 61.3727 25.1271 61.373L25.1459 61.3746Z" fill="#539821"/>
<path d="M62.973 66.5982C62.9726 66.5981 62.9735 66.5979 62.9762 66.5977H62.9762C62.9764 66.5977 62.9769 66.5976 62.978 66.5976C62.9759 66.598 62.9744 66.5982 62.9736 66.5982H62.973ZM53.1607 64.3108C53.1599 64.3105 53.1591 64.3103 53.1583 64.31V64.3102C53.1428 64.3046 53.138 64.3018 53.1399 64.3018C53.1418 64.3018 53.1504 64.3047 53.1614 64.3108H53.1607ZM56.3176 71.0262C57.3384 71.0262 58.4436 70.6923 59.4588 70.0697C60.409 69.4878 61.5522 68.4196 62.4476 67.2936L62.448 67.293L62.4485 67.2925L62.4486 67.2924C62.7038 66.965 62.9287 66.6844 63.0006 66.5986C63.0618 66.604 63.1876 66.6294 63.3293 66.6716V66.6718C63.6683 66.7729 64.1368 66.8259 64.5697 66.8259C64.8485 66.8259 65.1181 66.804 65.3335 66.7564L65.3341 66.7562C66.0587 66.5916 66.5874 66.3003 67.1582 65.7593C67.7168 65.2298 68.0051 64.7859 68.2429 64.0643L68.2431 64.0638C68.3579 63.7087 68.3815 63.5047 68.3815 62.9318C68.3815 61.9278 68.1701 61.324 67.5078 60.4104L67.5078 60.4106C67.1681 59.9416 66.3616 59.189 65.8065 58.814L65.8062 58.8138C64.5758 57.9874 63.0137 57.4926 61.6807 57.4926C61.5894 57.4926 61.4998 57.4949 61.4107 57.4995H61.4106C59.7113 57.5899 58.5503 58.415 58.0301 59.9L58.0299 59.9004C57.9372 60.1695 57.8419 60.511 57.8223 60.6608L57.8223 60.661L57.7816 60.9146C57.7773 60.9412 57.7847 60.9682 57.8022 60.9894C57.8196 61.0107 57.8454 61.0242 57.8737 61.0268L58.2927 61.0654L58.2935 61.0655C58.7323 61.1028 59.5286 61.3303 60.0075 61.5626L60.008 61.5629C60.5803 61.8368 61.5543 62.5386 61.7308 62.8022L61.732 62.8041L61.7321 62.8041C61.7494 62.8287 61.7558 62.8404 61.7583 62.846L61.7589 62.8462C61.7508 62.8652 61.7113 62.9076 61.5564 63.0415L61.5543 63.0433C61.4051 63.1792 61.1449 63.3985 60.972 63.5351L60.9711 63.5358L60.7258 63.7339L60.438 63.488C59.6194 62.7839 58.6059 62.4133 57.6384 62.4133C57.0097 62.4133 56.3999 62.5698 55.8774 62.894L55.8767 62.8945L55.8765 62.8946L55.8752 62.8954C55.6891 63.0167 55.4539 63.1872 55.3581 63.2841L55.3578 63.2844C55.1138 63.533 54.7806 64.0865 54.6657 64.4302C54.6199 64.5667 54.5954 64.615 54.5822 64.6311L54.5815 64.6313C54.5791 64.6308 54.5762 64.6302 54.5725 64.6294L54.5701 64.6289C54.2045 64.5559 53.4791 64.3916 53.2356 64.3307L53.2363 64.331C53.2887 64.1503 53.4583 63.712 53.5703 63.4997C54.0665 62.5701 54.8235 61.8693 55.8025 61.4431V61.4433L56.2972 61.2279C56.3308 61.2133 56.3536 61.1828 56.3569 61.1479L56.3919 60.7894C56.4492 60.2472 56.6851 59.3981 56.9005 58.9629V58.963C57.1859 58.395 57.4926 57.9965 57.9782 57.5578C58.8441 56.7805 59.9046 56.341 61.2767 56.1941L61.2772 56.194C61.5415 56.1646 61.7864 56.1333 61.8449 56.1168L61.845 56.117C61.8472 56.1164 61.8753 56.1091 61.8967 56.089L61.8969 56.0892C61.9403 56.0491 61.9302 55.9904 61.9299 55.9904L61.9298 55.9906C61.9231 55.9299 61.8749 55.8113 61.8253 55.7043L61.8251 55.7041C61.5131 55.0372 61.3462 53.9567 61.4319 53.1497L61.4319 53.1495C61.5574 51.9386 62.1613 50.8892 63.0958 50.2342V50.2344L63.4853 49.9642C63.5178 49.9417 63.5335 49.9034 63.5256 49.866L63.4791 49.6453L63.4791 49.6455C63.4578 49.5313 63.4345 49.1227 63.4345 48.7267C63.4345 47.9878 63.543 47.5128 63.8075 47.0166L63.8076 47.0168L63.9226 46.8149C63.9442 46.777 63.9372 46.7302 63.9052 46.6995L63.4222 46.2361L63.4217 46.2357C62.7424 45.5918 62.0537 45.2913 61.2069 45.2913C60.5891 45.2913 59.8415 45.5309 59.2511 45.9153L59.2502 45.9159L58.9767 46.0979C58.9463 46.1182 58.9297 46.1524 58.9332 46.1874L58.9739 46.5897C59.0762 47.6564 58.6888 48.9577 57.9793 49.9396C57.6556 50.3808 56.9118 51.0632 56.6917 51.1803L56.691 51.1805C56.6614 51.1396 56.6135 51.0732 56.5518 50.9875C56.4724 50.8772 56.3765 50.744 56.2694 50.5964L55.8771 50.0557L55.9906 49.9743L55.991 49.974C57.1138 49.1587 57.7116 47.8117 57.5322 46.5074L57.532 46.5064C57.4491 45.9501 57.2476 45.3532 56.984 44.9158L56.9839 44.9156C56.7075 44.4601 56.0546 43.8295 55.584 43.5722L55.5841 43.5724C55.4455 43.4918 55.3391 43.4228 55.2862 43.3833L55.2868 43.3835C55.3364 43.2694 55.4444 43.0156 55.5642 42.7337V42.7339L55.809 42.1656L55.9212 42.2129V42.2131C56.8186 42.5952 57.7448 43.4179 58.2645 44.2943L58.2645 44.2945C58.3488 44.44 58.4393 44.5767 58.4775 44.6186L58.4773 44.6188C58.4761 44.6186 58.5119 44.6596 58.5646 44.6596C58.5854 44.6596 58.6035 44.6533 58.6044 44.653L58.6045 44.653C58.6566 44.6366 58.8687 44.5381 59.0997 44.4286L59.1 44.4285C59.8359 44.077 60.3088 43.9701 61.1778 43.9701C61.7225 43.9701 62.0254 43.9977 62.2852 44.0658H62.2853C63.0712 44.271 63.9791 44.7804 64.5004 45.3173L64.739 45.5655C64.7593 45.5866 64.7872 45.5975 64.8154 45.5975C64.8382 45.5975 64.8612 45.5903 64.8802 45.5757L65.3342 45.2282L65.3345 45.228C66.0996 44.638 67.1133 44.2085 68.1804 44.0236L68.1805 44.0238L68.1809 44.0236C68.4392 43.9786 68.6823 43.9269 68.7385 43.9064H68.7386L68.7386 43.9066C68.7402 43.9059 68.7636 43.898 68.7819 43.8807C68.8385 43.8272 68.8079 43.7559 68.8049 43.7484C68.7927 43.7176 68.771 43.6864 68.7466 43.6595L68.7466 43.6597C68.5582 43.4379 68.2585 42.4745 68.2007 41.8283L68.2007 41.8278L68.1599 41.3975C68.1574 41.3703 68.143 41.3455 68.1203 41.3288C68.102 41.3154 68.0798 41.3083 68.0571 41.3083C68.0514 41.3083 68.0457 41.3088 68.0401 41.3096L67.8306 41.3428V41.343C67.2807 41.4296 66.7537 41.4732 66.2636 41.4732C65.7974 41.4732 65.3659 41.4337 64.9828 41.3547L64.9823 41.3547C62.9135 40.9375 61.3979 39.6339 60.629 37.6053L60.629 37.6052C60.5202 37.3196 60.4479 37.146 60.3504 37.0843C60.3191 37.0645 60.2841 37.0543 60.2474 37.0543C60.2392 37.0543 60.2314 37.0548 60.2238 37.0556L60.2238 37.0556L60.2226 37.0558L60.2213 37.0559C59.9502 37.0902 59.6864 37.1073 59.4305 37.1073C58.5515 37.1073 57.7583 36.9057 57.0403 36.5006L57.0403 36.5008C56.841 36.3873 56.7226 36.3214 56.604 36.3214C56.5399 36.3214 56.4826 36.3401 56.4259 36.3613L56.4245 36.3618C55.7477 36.6244 54.9612 36.7709 54.2373 36.7709C54.0505 36.7709 53.8689 36.7612 53.694 36.7413L53.6931 36.7413C53.1228 36.6812 52.4115 36.5227 52.0744 36.3896L52.0735 36.3893L51.8872 36.3176C51.8746 36.3127 51.8614 36.3103 51.8484 36.3103C51.8119 36.3103 51.7768 36.3288 51.7581 36.3607L51.5256 36.7573C51.1884 37.3237 50.8826 38.0883 50.7002 38.8185L50.7001 38.8191C50.5638 39.3808 50.5461 39.5656 50.5461 40.4795C50.5461 41.3203 50.5695 41.61 50.6765 42.0778C51.0881 43.895 51.9887 45.435 53.3829 46.7119L53.3831 46.7121L53.7407 47.0375L53.4076 47.3311V47.3312C52.6071 48.034 51.8426 49.0092 51.3944 49.9035C50.0194 52.6219 50.5056 55.7133 52.6768 58.1619L52.9128 58.4312L52.6415 58.817C52.1934 59.4484 51.613 60.5989 51.3657 61.3412L51.3654 61.342C51.2536 61.6879 51.1013 62.2878 51.0307 62.6781L51.0305 62.6791C50.9245 63.3044 50.9069 63.5371 50.9361 64.4789C50.9594 65.3702 50.9947 65.6644 51.1133 66.1534L51.1135 66.1541C51.5013 67.6968 52.1557 68.8459 53.1625 69.7496L53.1626 69.7497C53.9017 70.411 54.5818 70.7685 55.4701 70.9439V70.944C55.7432 70.9991 56.027 71.0262 56.3176 71.0262Z" fill="#539821"/>
<path d="M69.7506 61.3691L69.7756 61.3662C69.7931 61.3621 69.8816 61.3461 69.978 61.3354L69.9806 61.335C70.4001 61.2782 70.9108 61.1258 71.3784 60.9126C71.7867 60.7304 71.9827 60.5905 72.3386 60.2476V60.2478C73.026 59.5902 73.3547 58.8958 73.4734 57.8838V57.884C73.6335 56.5282 73.1249 54.8915 72.229 53.8342L72.2282 53.8333C72.1527 53.7464 72.0865 53.6663 72.0376 53.6051L72.0381 53.6053C72.1297 53.5969 72.2564 53.5877 72.3991 53.5795L72.3992 53.5798C73.0997 53.5402 73.5896 53.421 74.2701 53.1181V53.1183C75.5835 52.5349 76.5143 51.6693 77.1648 50.425L77.165 50.4246C77.6256 49.5345 77.74 49.0897 77.7459 48.0927V48.0929C77.7517 47.4157 77.7283 47.212 77.6138 46.8349V46.8351C77.471 46.3556 77.1578 45.7282 76.8658 45.3329L76.8655 45.3325C76.7655 45.1986 76.6685 45.0688 76.646 45.0368L76.646 45.0368C76.6109 44.9869 76.5515 44.9848 76.5354 44.9844L76.5357 44.9846C76.5333 44.9843 76.5324 44.9843 76.53 44.9843C76.4329 44.9843 76.2343 45.0545 76.0169 45.1509V45.1511C74.9625 45.6042 74.1507 45.7876 73.1786 45.7876C72.5263 45.7876 72.1507 45.7398 70.9191 45.4864L70.9186 45.4864C70.3225 45.3667 69.8091 45.3038 69.332 45.3038C68.5204 45.3038 67.8227 45.4862 67.0102 45.8695V45.8697C66.0422 46.3226 65.3643 46.9041 65.0021 47.5963L65.0021 47.5965L65.0018 47.5968C64.8121 47.9623 64.7993 48.0285 64.7993 48.6163C64.7993 49.164 64.8175 49.2834 64.9761 49.6362C65.0727 49.8536 65.292 50.2183 65.4643 50.4491L65.4659 50.4513L65.4662 50.4516V50.4518C65.5579 50.5705 65.6368 50.6761 65.6909 50.7513L65.6915 50.7515C65.6676 50.752 65.6411 50.7525 65.6126 50.7525C64.3402 50.7525 63.1759 51.7239 62.8467 53.034C62.7438 53.4354 62.7439 54.218 62.8466 54.6245L62.8467 54.6249C62.967 55.0923 63.3006 55.7025 63.6322 56.0569L63.6323 56.057C63.8837 56.3244 64.0204 56.4094 64.4393 56.5683L64.4404 56.5687C65.2309 56.8585 66.3336 57.4226 66.8539 57.7966L66.8544 57.797C67.4687 58.2323 68.2225 58.9744 68.6169 59.538L68.6176 59.539C68.7881 59.776 69.0766 60.2731 69.2678 60.6464L69.268 60.647C69.4377 60.9734 69.6034 61.2633 69.6615 61.3269L69.6614 61.3272C69.6607 61.3269 69.6957 61.3691 69.7506 61.3691Z" fill="#539821"/>
<path d="M70.0688 39.1816C70.0659 39.1785 70.0633 39.1752 70.061 39.172V39.1722L70.0693 39.1816H70.0688ZM56.5647 20.4131C56.5646 20.4131 56.5645 20.413 56.5644 20.4129L56.5643 20.4128C56.5594 20.409 56.5574 20.4071 56.5574 20.4067L56.5576 20.4069C56.5585 20.4071 56.5615 20.4093 56.5654 20.4131H56.5647ZM57.0708 19.2119C57.0694 19.2119 57.0698 19.2117 57.0725 19.2117C57.073 19.2117 57.0735 19.2117 57.074 19.2117L57.0747 19.2119C57.0733 19.2119 57.0722 19.2119 57.0715 19.2119H57.0708ZM73.0267 44.5413C73.2866 44.5413 73.5443 44.5255 73.7487 44.4928V44.493C75.1603 44.267 76.5573 43.3439 77.4378 42.0723L77.4382 42.0717C78.0115 41.2315 78.3883 40.2754 78.5998 39.1226L78.5999 39.1224C78.7474 38.3058 78.7587 36.7236 78.6296 35.7779L78.6295 35.7773C78.148 32.3876 76.3175 29.9941 73.2934 28.8207L73.2921 28.8202L73.2909 28.8198V28.82C73.0219 28.7186 72.7545 28.6213 72.6325 28.5885L72.633 28.5887C72.6652 28.4929 72.7292 28.2482 72.7901 28.0074L72.7902 28.0071C72.8979 27.5761 72.9152 27.3182 72.921 26.4129V26.4123C72.921 25.4455 72.9038 25.2743 72.7776 24.8416C72.6062 24.2535 72.3283 23.6695 72.0124 23.2344V23.2346C71.7716 22.8928 71.1813 22.3279 70.828 22.0952V22.0954C70.4732 21.8615 69.81 21.5815 69.3123 21.4523L69.3119 21.4522C68.9618 21.3627 68.4497 21.3198 67.9331 21.3198C67.4239 21.3198 66.9006 21.3614 66.5092 21.4457L66.508 21.446C66.3492 21.4821 66.2067 21.5115 66.1106 21.5306L66.11 21.5308C66.1171 21.4266 66.1312 21.2606 66.1518 21.0713L66.1519 21.0703C66.264 19.9181 66.0522 18.7083 65.5717 17.7693L65.5715 17.769C65.0457 16.7495 64.0423 15.9965 62.8825 15.7471L62.8812 15.7469C62.6259 15.6953 62.4159 15.6714 62.0771 15.6714C61.9326 15.6714 61.7632 15.6758 61.558 15.6841L61.5584 15.6843C60.6801 15.712 60.1045 15.8244 59.3143 16.1094L59.0584 16.1992L58.7207 15.9131L58.7207 15.9133C57.7103 15.05 56.7474 14.528 55.6693 14.2585L55.6693 14.2587C55.371 14.1835 55.0284 14.1559 54.4847 14.1559L54.4854 14.1561C54.4582 14.1558 54.429 14.1557 54.4026 14.1557C53.5836 14.1557 53.1814 14.2407 52.4968 14.5514C51.0575 15.1941 50.0506 16.3995 49.5723 18.0442C49.4573 18.423 49.4403 18.6453 49.4402 19.5712C49.4344 20.5782 49.446 20.6989 49.6008 21.2464V21.2466C49.8068 21.9827 50.1422 22.7471 50.5314 23.3676L50.5316 23.3679C50.8646 23.8938 51.5454 24.7748 51.783 24.9883L51.7856 24.9906L51.8625 25.0551L51.5589 25.4069C50.5655 26.5546 49.9632 27.7448 49.7212 29.0432L49.7211 29.0438C49.5908 29.7676 49.6315 31.0063 49.8161 31.6668V31.667C50.2466 33.2265 51.164 34.422 52.4291 35.0443C52.9712 35.312 53.5423 35.4451 54.1182 35.4451C54.9074 35.4451 55.7003 35.1951 56.4355 34.7066L56.7275 34.5161L56.825 34.5879V34.5881C57.2897 34.939 58.0128 35.3577 58.4207 35.5115V35.5117C58.8506 35.6779 58.9584 35.6897 59.6054 35.6953L59.6063 35.6955C60.2564 35.6953 60.3517 35.6843 60.6819 35.5308V35.531C61.2566 35.267 61.6627 34.7317 61.8312 34.0531V34.0533C61.9284 33.672 61.9272 32.8363 61.8321 32.3576V32.3578C61.803 32.1958 61.7889 32.0525 61.7894 31.9997L61.79 31.9998C61.8329 31.9607 61.966 31.8692 62.1369 31.7766L62.1388 31.7756C62.3471 31.6571 62.7137 31.4106 62.9461 31.2129L62.9462 31.2131C64.0044 30.3493 64.5693 29.3149 64.5693 28.2052C64.5693 27.3117 64.307 26.7301 63.6082 26.062C63.239 25.7065 63.0543 25.5839 62.5897 25.375C62.0144 25.1135 61.489 24.9534 61.0806 24.9245L61.0807 24.9247L60.866 24.908C60.8632 24.9078 60.8603 24.9077 60.8576 24.9077C60.8137 24.9077 60.7742 24.9341 60.7598 24.974L60.5852 25.4594L60.5851 25.4596C60.0987 26.8213 59.2666 27.7437 57.9887 28.3493C57.6336 28.5176 57.0893 28.7072 56.7863 28.7657L56.7848 28.766L56.6996 28.7837L56.6227 28.4491V28.4493C56.5794 28.2531 56.516 27.9884 56.4727 27.8073C56.4651 27.7757 56.4533 27.7264 56.4479 27.7037L56.3939 27.4755L56.5368 27.4392L56.5369 27.4394C56.6799 27.4037 56.9778 27.2903 57.2032 27.1971L57.2055 27.1962C59.1582 26.335 59.9043 24.4273 59.0122 22.61C59.0008 22.5868 58.9894 22.5641 58.9775 22.5409L58.9773 22.5405C58.5536 21.7261 57.9146 21.1162 56.9841 20.6386L56.9829 20.638C56.8202 20.5573 56.6853 20.4848 56.6145 20.4439L56.6151 20.4441C56.7035 20.2148 57.0228 19.4396 57.118 19.22C57.1707 19.2333 57.2598 19.2625 57.3703 19.3083L57.3704 19.3085C58.9721 19.9806 60.3161 21.49 60.6694 23.0185L60.6694 23.0187L60.7684 23.4434C60.7778 23.4837 60.8128 23.5141 60.856 23.5194L61.1702 23.558L61.1708 23.5581C62.5497 23.7208 64.0324 24.4601 64.8524 25.3829C65.2331 25.8138 65.7031 26.6617 65.8503 27.1824L65.8505 27.1829C65.9802 27.6318 66.0262 28.6983 65.9358 29.1696L65.9357 29.1699C65.6962 30.4351 64.9372 31.5886 63.7931 32.4075L63.7932 32.4077L63.4731 32.6337C63.4469 32.6522 63.4315 32.6813 63.4315 32.7122V33.2087C63.4315 33.844 63.3074 34.3536 62.9996 34.9642C62.7897 35.373 62.6625 35.5466 62.2623 35.9313L62.262 35.9316L61.7673 36.4116C61.7402 36.4379 61.7309 36.4764 61.7433 36.5112L61.9295 37.0353C62.2484 37.9641 62.6587 38.5861 63.2967 39.1343L63.2967 39.1343C64.0493 39.7802 65.0362 40.101 66.2131 40.101C67.1179 40.101 68.1358 39.9116 69.2499 39.5346L69.2517 39.534L69.2518 39.5341C69.5637 39.4273 69.8852 39.3117 70.0069 39.2569C69.9865 39.3178 69.9581 39.3943 69.9226 39.4773L69.9214 39.4801C69.5445 40.4459 69.4223 41.5485 69.6332 42.2917V42.2919C69.9405 43.3996 70.8803 44.2199 72.0978 44.4644L72.0977 44.4646C72.3518 44.5158 72.6957 44.5413 73.0267 44.5413Z" fill="#539821"/>
</svg>
