<svg width="1100" height="1100" viewBox="0 0 1100 1100" fill="none" xmlns="http://www.w3.org/2000/svg">
<rect width="1100" height="1100" fill="white"/>
<path fill-rule="evenodd" clip-rule="evenodd" d="M687.192 219.147V219H725.381L739.334 221.788C748.637 223.598 757.082 225.971 764.671 228.906C772.26 231.842 779.604 235.266 786.703 239.18C793.803 243.093 800.241 247.08 806.018 251.14C811.746 255.152 816.887 259.408 821.44 263.909C825.945 268.458 832.971 269.632 842.518 267.431C852.065 265.229 862.347 262.172 873.363 258.258C884.379 254.345 895.272 249.942 906.044 245.05C916.815 240.158 923.376 237.051 925.726 235.731C928.027 234.361 929.251 233.627 929.398 233.529L929.544 233.309L930.279 232.942L931.013 232.575L931.748 232.208L932.482 231.842L932.629 231.621L932.849 231.475L933.07 231.328L933.216 231.108L933.951 230.888L934.685 230.741L934.538 231.842L934.318 232.942L933.951 234.043L933.584 235.144L933.216 235.877L932.849 236.611L932.482 237.712C932.237 238.446 931.992 239.424 931.748 240.647C931.503 241.87 929.177 246.762 924.771 255.323C920.364 263.884 914.856 272.567 908.247 281.373C901.637 290.179 895.713 296.832 890.474 301.332C885.187 305.882 881.686 309.062 879.972 310.872C878.259 312.731 876.178 314.443 873.73 316.008L870.058 318.43L869.324 318.797L868.589 319.164L868.442 319.384L868.222 319.531L868.002 319.677L867.855 319.898L867.12 320.264L866.386 320.631L866.239 320.852L866.019 320.998L865.798 321.145L865.651 321.365L865.505 321.585L865.284 321.732L865.064 321.879L864.917 322.099H868.589L889.152 317.696C902.861 314.761 915.958 311.214 928.443 307.056C940.928 302.898 947.537 300.696 948.272 300.452C949.006 300.207 949.741 299.963 950.475 299.718L951.577 299.351L952.311 298.984L953.045 298.617L953.78 298.25L954.514 297.884L955.983 297.663L957.452 297.517V298.984L957.085 299.131L956.717 299.351L956.57 299.571L956.35 299.718L956.13 299.865L955.983 300.085L955.836 300.305L955.616 300.452L955.395 300.599L955.249 300.819L955.102 301.039L954.881 301.186L954.514 301.919L954.147 302.653L953.927 302.8C953.829 302.947 950.72 307.105 944.6 315.275C938.48 323.493 935.175 327.651 934.685 327.749C934.196 327.896 933.51 328.63 932.629 329.951C931.797 331.32 926.607 336.775 917.06 346.314C907.512 355.854 898.161 364.341 889.005 371.777C879.801 379.262 875.15 388.459 875.052 399.368C874.905 410.228 874.342 422.507 873.363 436.205C872.384 449.903 870.548 464.701 867.855 480.6C865.162 496.499 861 514.477 855.37 534.534C849.739 554.591 842.885 574.159 834.807 593.238C826.728 612.317 818.283 629.439 809.47 644.604C800.657 659.77 792.579 672.611 785.234 683.129C777.89 693.647 770.424 703.553 762.835 712.848C755.246 722.143 745.65 732.611 734.047 744.254C722.394 755.848 716.029 762.208 714.952 763.333C713.826 764.409 709.028 768.421 700.558 775.368C692.137 782.363 683.079 789.359 673.385 796.354C663.74 803.301 654.878 809.098 646.8 813.745C638.721 818.393 628.978 823.701 617.571 829.669C606.212 835.686 593.923 841.263 580.704 846.399C567.484 851.536 553.531 856.306 538.843 860.709C524.155 865.111 509.956 868.536 496.247 870.982C482.539 873.428 466.994 875.507 449.613 877.219L423.542 879.787V880.154H375.805V879.787L369.563 879.42C365.401 879.176 361.974 878.931 359.281 878.687C356.589 878.442 346.429 877.097 328.804 874.651C311.178 872.205 297.347 869.759 287.31 867.313C277.273 864.867 262.34 860.219 242.511 853.371C222.683 846.522 205.718 839.6 191.617 832.604C177.566 825.657 168.753 821.255 165.179 819.396C161.654 817.586 157.688 815.335 153.282 812.645L146.672 808.609L146.525 808.389L146.305 808.242L146.084 808.095L145.938 807.875L145.203 807.508L144.469 807.141L144.322 806.921L144.102 806.774L143.881 806.627L143.734 806.407L143.588 806.187L143.367 806.04H143V804.573L143.734 804.72L144.469 804.94L147.774 805.307C149.977 805.551 155.974 805.918 165.766 806.407C175.558 806.897 185.963 806.897 196.979 806.407C207.995 805.918 219.255 804.817 230.761 803.105C242.267 801.393 255.853 798.458 271.52 794.3C287.188 790.141 301.582 785.2 314.703 779.477C327.776 773.704 337.078 769.399 342.61 766.562C348.094 763.774 356.466 758.588 367.727 751.005L384.618 739.631L384.765 739.411L384.985 739.265L385.206 739.118L385.353 738.898L385.5 738.678L385.72 738.531L385.94 738.384L386.087 738.164L386.821 737.944L387.556 737.797L387.703 737.063L387.923 736.329L388.143 736.183L388.29 735.962L382.415 735.596C378.498 735.351 374.704 735.106 371.032 734.862C367.36 734.617 361.607 733.516 353.773 731.56C345.94 729.603 337.494 726.668 328.436 722.754C319.379 718.84 310.566 714.193 301.998 708.812C293.43 703.431 287.237 698.954 283.418 695.383C279.648 691.861 274.752 686.871 268.73 680.414C262.756 673.907 257.567 667.23 253.16 660.381C248.754 653.532 244.543 645.632 240.529 636.679L234.433 623.324L234.066 622.223L233.699 621.123L233.478 620.389L233.331 619.655L234.433 619.802L235.535 620.022L243.613 621.123C248.999 621.856 257.444 622.101 268.95 621.857C280.456 621.612 288.412 621.123 292.818 620.389C297.224 619.655 299.917 619.166 300.896 618.921L302.365 618.554L304.201 618.188L306.037 617.821L306.184 617.6L306.404 617.454L306.625 617.307L306.772 617.087L305.303 616.72L303.834 616.353L302.365 615.986L300.896 615.619L299.428 615.252C298.448 615.008 296.735 614.518 294.287 613.785C291.839 613.051 285.229 610.36 274.458 605.713C263.687 601.065 255.119 596.54 248.754 592.138C242.389 587.735 236.318 582.916 230.541 577.682C224.812 572.398 218.521 565.598 211.667 557.282C204.812 548.966 198.692 539.304 193.307 528.297C187.921 517.29 183.882 506.772 181.189 496.743C178.496 486.715 176.734 476.564 175.901 466.291L174.579 450.881L175.314 451.028L176.048 451.248L176.782 451.615L177.517 451.982L178.251 452.349L178.986 452.715L190.369 457.852C197.958 461.276 207.383 464.212 218.643 466.658C229.904 469.104 236.636 470.449 238.839 470.694L242.144 471.06H248.754L248.607 470.84L248.387 470.694L248.166 470.547L248.019 470.327L247.873 470.107L247.652 469.96L247.432 469.813L247.285 469.593L246.551 469.226L245.816 468.859L245.669 468.639L245.449 468.492L245.229 468.345L245.082 468.125L244.347 467.758L243.613 467.391L243.466 467.171C243.319 467.074 241.214 465.508 237.15 462.475C233.136 459.393 228.925 455.406 224.519 450.514C220.112 445.622 215.706 440.485 211.299 435.104C206.893 429.723 202.976 423.975 199.549 417.86C196.122 411.745 192.499 403.967 188.68 394.525C184.91 385.132 182.046 375.666 180.087 366.127C178.129 356.588 177.027 347.17 176.782 337.876C176.538 328.581 176.782 320.631 177.517 314.027C178.251 307.423 179.72 299.963 181.923 291.646C184.127 283.33 187.309 274.524 191.471 265.229L197.713 251.287L198.08 250.187L198.447 249.086L198.668 248.939L198.815 248.719L198.961 248.499L199.182 248.352L199.402 248.499L199.549 248.719L199.696 248.939L199.916 249.086L200.136 249.233L200.283 249.453L200.43 249.673L200.651 249.82L201.018 250.553L201.385 251.287L201.605 251.434L201.752 251.654L211.667 262.661C218.276 269.999 226.11 278.193 235.167 287.243C244.225 296.294 249.243 300.99 250.223 301.332C251.202 301.724 252.426 302.849 253.895 304.708C255.363 306.518 260.26 310.847 268.583 317.696C276.906 324.545 287.8 332.494 301.264 341.545C314.728 350.595 329.66 359.523 346.062 368.328C362.464 377.134 380.089 385.084 398.939 392.177C417.789 399.27 431.008 403.918 438.597 406.119C446.186 408.321 459.16 411.133 477.52 414.558C495.88 417.982 509.711 420.184 519.014 421.162C528.316 422.14 534.681 422.703 538.108 422.85L543.249 422.997L543.102 421.896L542.882 420.795L541.413 411.623C540.434 405.508 539.944 396.947 539.944 385.94C539.944 374.933 540.801 364.782 542.515 355.487C544.228 346.192 546.799 336.775 550.226 327.236C553.653 317.696 557.007 310.04 560.287 304.268C563.616 298.544 567.974 292.013 573.36 284.675C578.745 277.337 585.722 269.755 594.29 261.927C602.858 254.1 612.65 247.129 623.666 241.014C634.682 234.899 644.841 230.252 654.144 227.072C663.446 223.892 671.28 221.813 677.645 220.835C684.009 219.856 687.192 219.294 687.192 219.147Z" fill="#00A3FF" stroke="white" stroke-width="1.5"/>
</svg>
