<svg width="300" height="300" viewBox="0 0 300 300" fill="none" xmlns="http://www.w3.org/2000/svg">
<rect width="300" height="300" fill="#6161FF"/>
<g opacity="0.89999">
<g opacity="0.89999">
<path opacity="0.89999" d="M292.545 248.526C292.545 272.602 273.029 292.12 248.953 292.12H49.2598C25.1837 292.12 5.66577 272.602 5.66577 248.526V48.8328C5.66577 24.7567 25.1837 5.23883 49.2598 5.23883H248.953C273.029 5.23883 292.545 24.7567 292.545 48.8328V248.526Z" fill="#5555FF"/>
</g>
</g>
<path d="M225.732 170.963L230.371 134.992H194.753V112.027C194.753 101.612 197.655 94.5136 212.588 94.5136L231.618 94.504V62.3331C228.333 61.895 217.037 60.9138 203.867 60.9138C176.406 60.9138 157.614 77.6812 157.614 108.467V134.992H126.549V170.963H157.614V263.256H194.753V170.963H225.732Z" fill="white"/>
</svg>
