<svg width="299" height="178" viewBox="0 0 299 178" fill="none" xmlns="http://www.w3.org/2000/svg">
<path d="M150.4 136.5C149.8 136.5 149.4 136.1 149.4 135.5V132.9C149.4 132.3 149.8 131.9 150.4 131.9H158.1C158.7 131.9 159.1 132.3 159.1 132.9V135.5C159.1 136.1 158.7 136.5 158.1 136.5H150.4Z" fill="#5C7CBC"/>
<path d="M158.1 132.9V135.5H150.4V132.9H158.1ZM158.1 130.9H150.4C149.3 130.9 148.4 131.8 148.4 132.9V135.5C148.4 136.6 149.3 137.5 150.4 137.5H158.1C159.2 137.5 160.1 136.6 160.1 135.5V132.9C160.1 131.8 159.2 130.9 158.1 130.9Z" fill="#44451A"/>
<path d="M147.8 134.9C147.2 134.9 146.8 134.5 146.8 133.9V131.3C146.8 130.7 147.2 130.3 147.8 130.3H160.6C161.2 130.3 161.6 130.7 161.6 131.3V133.9C161.6 134.5 161.2 134.9 160.6 134.9H147.8Z" fill="white"/>
<path d="M160.6 131.4V134H147.8V131.4H160.6ZM160.6 129.4H147.8C146.7 129.4 145.8 130.3 145.8 131.4V134C145.8 135.1 146.7 136 147.8 136H160.6C161.7 136 162.6 135.1 162.6 134V131.4C162.6 130.3 161.7 129.4 160.6 129.4Z" fill="#44451A"/>
<path d="M149.2 113.5C148.9 113.5 148.7 113.4 148.5 113.2C148.5 113.2 148.5 113.2 148.5 113.1L143.1 112.9C142.6 112.9 142.1 112.4 142.1 111.9C142.1 111.9 142.1 109.7 141 102.1C140.1 95.8 130.3 81 126.7 75.8C122.5 70.7 120.3 64.7 120.3 58.4C120.3 41.9 135.4 28.5 154 28.5C172.6 28.5 187.7 41.9 187.7 58.4C187.7 64.7 185.5 70.8 181.3 75.9C177.7 81 167.9 95.8 167 102.1C165.9 109.7 165.9 111.9 165.9 111.9C165.9 112.4 165.5 112.9 164.9 112.9L159.5 113.1C159.5 113.1 159.5 113.1 159.5 113.2C159.3 113.4 159.1 113.5 158.8 113.5L154 113.3L149.2 113.5Z" fill="#F4F681"/>
<path d="M154 29.6C172.1 29.6 186.7 42.5 186.7 58.5C186.7 64.8 184.4 70.6 180.5 75.4C180 76 167.1 94.4 166 102.1C164.9 110 164.9 112.1 164.9 112.1L158.7 112.3V112.6L153.9 112.4L149.1 112.6V112.3L142.9 112.1C142.9 112.1 142.9 110 141.8 102.1C140.7 94.4 127.7 76 127.3 75.4C123.4 70.7 121.1 64.8 121.1 58.5C121.2 42.5 135.9 29.6 154 29.6ZM154 27.6C134.8 27.6 119.3 41.4 119.3 58.5C119.3 65 121.6 71.3 125.9 76.6C129.6 81.8 139.2 96.3 140 102.4C141.1 109.9 141.1 112.1 141.1 112.1C141.1 113.2 142 114.1 143 114.1L148.1 114.3C148.4 114.5 148.8 114.7 149.2 114.7C149.2 114.7 149.2 114.7 149.3 114.7L154 114.5L158.7 114.7C158.7 114.7 158.7 114.7 158.8 114.7C159.2 114.7 159.6 114.6 159.9 114.3L165 114.1C166.1 114.1 166.9 113.2 166.9 112.1C166.9 112.1 166.9 109.9 168 102.4C168.9 96.3 178.4 81.8 182.1 76.6C186.4 71.3 188.7 65.1 188.7 58.5C188.7 41.4 173.1 27.6 154 27.6Z" fill="#44451A"/>
<path d="M153.4 67.45L151.4 113.45" stroke="#DFE305" stroke-width="2" stroke-miterlimit="10" stroke-linecap="round" stroke-linejoin="round"/>
<path d="M155 67.45L156 113.45" stroke="#DFE305" stroke-width="2" stroke-miterlimit="10" stroke-linecap="round" stroke-linejoin="round"/>
<path d="M145.5 118.4C143.3 118.4 141.4 116.6 141.4 114.3C141.4 112 143.2 110.2 145.5 110.2H162.4C164.6 110.2 166.5 112 166.5 114.3C166.5 116.6 164.7 118.4 162.4 118.4H145.5Z" fill="#5C7CBC"/>
<path d="M162.4 111.3C164.1 111.3 165.5 112.7 165.5 114.4C165.5 116.1 164.1 117.5 162.4 117.5H145.5C143.8 117.5 142.4 116.1 142.4 114.4C142.4 112.7 143.8 111.3 145.5 111.3H162.4ZM162.4 109.3H145.5C142.7 109.3 140.4 111.6 140.4 114.4C140.4 117.2 142.7 119.5 145.5 119.5H162.4C165.2 119.5 167.5 117.2 167.5 114.4C167.5 111.6 165.2 109.3 162.4 109.3Z" fill="#44451A"/>
<path d="M141.7 120.3C141.1 120.3 140.7 119.9 140.7 119.3V116.8C140.7 116.2 141.1 115.8 141.7 115.8H165.7C166.3 115.8 166.7 116.2 166.7 116.8V119.4C166.7 120 166.3 120.4 165.7 120.4H141.7V120.3Z" fill="white"/>
<path d="M165.7 116.8V119.4H141.7V116.8H165.7ZM165.7 114.8H141.7C140.6 114.8 139.7 115.7 139.7 116.8V119.4C139.7 120.5 140.6 121.4 141.7 121.4H165.7C166.8 121.4 167.7 120.5 167.7 119.4V116.8C167.7 115.7 166.8 114.8 165.7 114.8Z" fill="#44451A"/>
<path d="M141.7 123.9C141.1 123.9 140.7 123.5 140.7 122.9V120.3C140.7 119.7 141.1 119.3 141.7 119.3H165.7C166.3 119.3 166.7 119.7 166.7 120.3V122.9C166.7 123.5 166.3 123.9 165.7 123.9H141.7Z" fill="#5C7CBC"/>
<path d="M165.7 120.4V123H141.7V120.4H165.7ZM165.7 118.4H141.7C140.6 118.4 139.7 119.3 139.7 120.4V123C139.7 124.1 140.6 125 141.7 125H165.7C166.8 125 167.7 124.1 167.7 123V120.4C167.7 119.3 166.8 118.4 165.7 118.4Z" fill="#44451A"/>
<path d="M141.7 127.5C141.1 127.5 140.7 127.1 140.7 126.5V123.9C140.7 123.3 141.1 122.9 141.7 122.9H165.7C166.3 122.9 166.7 123.3 166.7 123.9V126.5C166.7 127.1 166.3 127.5 165.7 127.5H141.7Z" fill="white"/>
<path d="M165.7 123.9V126.5H141.7V123.9H165.7ZM165.7 121.9H141.7C140.6 121.9 139.7 122.8 139.7 123.9V126.5C139.7 127.6 140.6 128.5 141.7 128.5H165.7C166.8 128.5 167.7 127.6 167.7 126.5V123.9C167.7 122.8 166.8 121.9 165.7 121.9Z" fill="#44451A"/>
<path d="M141.7 131.1C141.1 131.1 140.7 130.7 140.7 130.1V127.5C140.7 126.9 141.1 126.5 141.7 126.5H165.7C166.3 126.5 166.7 126.9 166.7 127.5V130.1C166.7 130.7 166.3 131.1 165.7 131.1H141.7Z" fill="#5C7CBC"/>
<path d="M165.7 127.5V130.1H141.7V127.5H165.7ZM165.7 125.5H141.7C140.6 125.5 139.7 126.4 139.7 127.5V130.1C139.7 131.2 140.6 132.1 141.7 132.1H165.7C166.8 132.1 167.7 131.2 167.7 130.1V127.5C167.7 126.4 166.8 125.5 165.7 125.5Z" fill="#44451A"/>
<path d="M149.8 70.4C151.6 73.2 154.6 73.2 156.5 70.4C158 68.1 158 64.4 156.5 62.2C155.3 60.4 153.4 60.4 152.2 62.2C151.3 63.7 151.3 66 152.2 67.5C153 68.7 154.2 68.7 154.9 67.5" stroke="#DFE305" stroke-width="2" stroke-miterlimit="10" stroke-linecap="round" stroke-linejoin="round"/>
<path d="M118.8 39.5L100 28.1" stroke="#DFE305" stroke-width="2" stroke-miterlimit="10" stroke-linecap="round" stroke-linejoin="round"/>
<path d="M134.5 25.7L119.1 8.29999" stroke="#DFE305" stroke-width="2" stroke-miterlimit="10" stroke-linecap="round" stroke-linejoin="round"/>
<path d="M188.8 39.5L207.6 28.1" stroke="#DFE305" stroke-width="2" stroke-miterlimit="10" stroke-linecap="round" stroke-linejoin="round"/>
<path d="M173.1 25.7L188.5 8.29999" stroke="#DFE305" stroke-width="2" stroke-miterlimit="10" stroke-linecap="round" stroke-linejoin="round"/>
<path d="M150.8 20.9V1" stroke="#DFE305" stroke-width="2" stroke-miterlimit="10" stroke-linecap="round" stroke-linejoin="round"/>
<path d="M6.678 166.616C6.678 167.232 6.608 167.764 6.468 168.212C6.342 168.646 6.146 169.024 5.88 169.346C5.628 169.654 5.299 169.934 4.893 170.186C4.613 170.354 4.305 170.529 3.969 170.711C3.633 170.893 3.311 171.11 3.003 171.362C2.709 171.6 2.464 171.901 2.268 172.265C2.072 172.615 1.974 173.042 1.974 173.546C1.974 174.148 2.107 174.652 2.373 175.058C2.653 175.464 3.01 175.765 3.444 175.961C3.892 176.171 4.354 176.276 4.83 176.276C5.334 176.276 5.803 176.178 6.237 175.982C6.671 175.8 7.056 175.541 7.392 175.205C7.728 174.883 8.001 174.526 8.211 174.134L9.177 174.764C8.925 175.338 8.568 175.828 8.106 176.234C7.658 176.64 7.147 176.948 6.573 177.158C5.999 177.368 5.411 177.473 4.809 177.473C4.291 177.473 3.787 177.389 3.297 177.221C2.807 177.067 2.366 176.822 1.974 176.486C1.582 176.15 1.267 175.73 1.029 175.226C0.805 174.736 0.693 174.148 0.693 173.462C0.693 172.902 0.77 172.433 0.924 172.055C1.092 171.663 1.309 171.334 1.575 171.068C1.841 170.788 2.142 170.543 2.478 170.333C2.828 170.123 3.185 169.92 3.549 169.724C3.885 169.528 4.193 169.325 4.473 169.115C4.767 168.891 5.005 168.59 5.187 168.212C5.369 167.82 5.46 167.288 5.46 166.616H6.678ZM6.636 162.374V164.621H5.418V162.374H6.636ZM17.1665 173.105C15.9905 173.105 14.9965 172.895 14.1845 172.475C13.3725 172.055 12.7285 171.495 12.2525 170.795C11.7765 170.081 11.4265 169.276 11.2025 168.38C10.9925 167.484 10.8875 166.56 10.8875 165.608V158.09H12.3365V165.608C12.3365 166.378 12.4135 167.134 12.5675 167.876C12.7355 168.618 13.0015 169.283 13.3655 169.871C13.7295 170.459 14.2195 170.928 14.8355 171.278C15.4515 171.614 16.2215 171.782 17.1455 171.782C18.0975 171.782 18.8815 171.607 19.4975 171.257C20.1275 170.893 20.6175 170.417 20.9675 169.829C21.3315 169.241 21.5905 168.583 21.7445 167.855C21.8985 167.113 21.9755 166.364 21.9755 165.608V158.09H23.4455V165.608C23.4455 166.602 23.3335 167.554 23.1095 168.464C22.8855 169.374 22.5215 170.172 22.0175 170.858C21.5275 171.544 20.8835 172.09 20.0855 172.496C19.2875 172.902 18.3145 173.105 17.1665 173.105ZM35.731 173H34.303V166.889C34.303 165.601 34.114 164.663 33.736 164.075C33.358 163.473 32.763 163.172 31.951 163.172C31.391 163.172 30.838 163.312 30.292 163.592C29.746 163.858 29.263 164.229 28.843 164.705C28.437 165.167 28.143 165.699 27.961 166.301V173H26.533V162.059H27.835V164.537C28.129 164.005 28.514 163.543 28.99 163.151C29.466 162.745 30.005 162.43 30.607 162.206C31.209 161.982 31.832 161.87 32.476 161.87C33.078 161.87 33.589 161.982 34.009 162.206C34.429 162.43 34.765 162.752 35.017 163.172C35.269 163.578 35.451 164.075 35.563 164.663C35.675 165.237 35.731 165.881 35.731 166.595V173ZM37.8942 169.85C37.8942 169.164 38.0902 168.576 38.4822 168.086C38.8742 167.582 39.4132 167.197 40.0992 166.931C40.7992 166.651 41.6042 166.511 42.5142 166.511C43.0462 166.511 43.5992 166.553 44.1732 166.637C44.7472 166.721 45.2582 166.847 45.7062 167.015V166.091C45.7062 165.167 45.4332 164.432 44.8872 163.886C44.3412 163.34 43.5852 163.067 42.6192 163.067C42.0312 163.067 41.4502 163.179 40.8762 163.403C40.3162 163.613 39.7282 163.928 39.1122 164.348L38.5662 163.34C39.2802 162.85 39.9802 162.486 40.6662 162.248C41.3522 161.996 42.0522 161.87 42.7662 161.87C44.1102 161.87 45.1742 162.255 45.9582 163.025C46.7422 163.795 47.1342 164.859 47.1342 166.217V171.278C47.1342 171.474 47.1762 171.621 47.2602 171.719C47.3442 171.803 47.4772 171.852 47.6592 171.866V173C47.5052 173.014 47.3722 173.028 47.2602 173.042C47.1482 173.056 47.0642 173.056 47.0082 173.042C46.6582 173.028 46.3922 172.916 46.2102 172.706C46.0282 172.496 45.9302 172.272 45.9162 172.034L45.8952 171.236C45.4052 171.866 44.7682 172.356 43.9842 172.706C43.2002 173.042 42.4022 173.21 41.5902 173.21C40.8902 173.21 40.2532 173.063 39.6792 172.769C39.1192 172.461 38.6782 172.055 38.3562 171.551C38.0482 171.033 37.8942 170.466 37.8942 169.85ZM45.2232 170.69C45.3772 170.494 45.4962 170.305 45.5802 170.123C45.6642 169.941 45.7062 169.78 45.7062 169.64V168.044C45.2302 167.862 44.7332 167.722 44.2152 167.624C43.7112 167.526 43.2002 167.477 42.6822 167.477C41.6602 167.477 40.8342 167.68 40.2042 168.086C39.5742 168.492 39.2592 169.045 39.2592 169.745C39.2592 170.151 39.3642 170.536 39.5742 170.9C39.7842 171.25 40.0922 171.544 40.4982 171.782C40.9042 172.006 41.3802 172.118 41.9262 172.118C42.6122 172.118 43.2492 171.985 43.8372 171.719C44.4392 171.453 44.9012 171.11 45.2232 170.69ZM55.5721 173V162.059H57.0001V173H55.5721ZM55.5721 159.77V157.67H57.0001V159.77H55.5721ZM59.4103 167.561C59.4103 166.525 59.6203 165.58 60.0403 164.726C60.4743 163.858 61.0693 163.165 61.8253 162.647C62.5813 162.129 63.4423 161.87 64.4083 161.87C65.3183 161.87 66.1303 162.115 66.8443 162.605C67.5723 163.081 68.1393 163.662 68.5453 164.348V157.67H69.9733V171.278C69.9733 171.474 70.0153 171.621 70.0993 171.719C70.1833 171.803 70.3093 171.852 70.4773 171.866V173C70.1973 173.042 69.9803 173.056 69.8263 173.042C69.5323 173.028 69.2733 172.909 69.0493 172.685C68.8253 172.461 68.7133 172.216 68.7133 171.95V170.879C68.2793 171.593 67.6913 172.16 66.9493 172.58C66.2073 173 65.4373 173.21 64.6393 173.21C63.8833 173.21 63.1833 173.056 62.5393 172.748C61.9093 172.44 61.3563 172.02 60.8803 171.488C60.4183 170.956 60.0543 170.354 59.7883 169.682C59.5363 168.996 59.4103 168.289 59.4103 167.561ZM68.5453 169.241V165.86C68.3633 165.356 68.0693 164.901 67.6633 164.495C67.2573 164.075 66.7953 163.746 66.2773 163.508C65.7733 163.256 65.2693 163.13 64.7653 163.13C64.1773 163.13 63.6453 163.256 63.1693 163.508C62.6933 163.746 62.2803 164.075 61.9303 164.495C61.5943 164.915 61.3353 165.391 61.1533 165.923C60.9713 166.455 60.8803 167.001 60.8803 167.561C60.8803 168.149 60.9783 168.709 61.1743 169.241C61.3843 169.773 61.6783 170.249 62.0563 170.669C62.4343 171.075 62.8683 171.39 63.3583 171.614C63.8483 171.838 64.3803 171.95 64.9543 171.95C65.3183 171.95 65.6963 171.88 66.0883 171.74C66.4803 171.6 66.8513 171.411 67.2013 171.173C67.5653 170.921 67.8663 170.627 68.1043 170.291C68.3423 169.955 68.4893 169.605 68.5453 169.241ZM77.9338 173.21C77.1498 173.21 76.4218 173.063 75.7498 172.769C75.0778 172.461 74.4968 172.048 74.0068 171.53C73.5168 170.998 73.1318 170.389 72.8518 169.703C72.5858 169.017 72.4528 168.282 72.4528 167.498C72.4528 166.476 72.6838 165.538 73.1458 164.684C73.6218 163.83 74.2728 163.151 75.0988 162.647C75.9248 162.129 76.8628 161.87 77.9128 161.87C78.9908 161.87 79.9288 162.129 80.7268 162.647C81.5388 163.165 82.1758 163.851 82.6378 164.705C83.0998 165.545 83.3308 166.469 83.3308 167.477C83.3308 167.589 83.3308 167.701 83.3308 167.813C83.3308 167.911 83.3238 167.988 83.3098 168.044H73.9438C74.0138 168.828 74.2308 169.528 74.5948 170.144C74.9728 170.746 75.4558 171.229 76.0438 171.593C76.6458 171.943 77.2968 172.118 77.9968 172.118C78.7108 172.118 79.3828 171.936 80.0128 171.572C80.6568 171.208 81.1048 170.732 81.3568 170.144L82.5958 170.48C82.3718 170.998 82.0288 171.467 81.5668 171.887C81.1048 172.307 80.5588 172.636 79.9288 172.874C79.3128 173.098 78.6478 173.21 77.9338 173.21ZM73.9018 167.015H81.9868C81.9308 166.217 81.7138 165.517 81.3358 164.915C80.9718 164.313 80.4888 163.844 79.8868 163.508C79.2988 163.158 78.6478 162.983 77.9338 162.983C77.2198 162.983 76.5688 163.158 75.9808 163.508C75.3928 163.844 74.9098 164.32 74.5318 164.936C74.1678 165.538 73.9578 166.231 73.9018 167.015ZM84.652 169.85C84.652 169.164 84.848 168.576 85.24 168.086C85.632 167.582 86.171 167.197 86.857 166.931C87.557 166.651 88.362 166.511 89.272 166.511C89.804 166.511 90.357 166.553 90.931 166.637C91.505 166.721 92.016 166.847 92.464 167.015V166.091C92.464 165.167 92.191 164.432 91.645 163.886C91.099 163.34 90.343 163.067 89.377 163.067C88.789 163.067 88.208 163.179 87.634 163.403C87.074 163.613 86.486 163.928 85.87 164.348L85.324 163.34C86.038 162.85 86.738 162.486 87.424 162.248C88.11 161.996 88.81 161.87 89.524 161.87C90.868 161.87 91.932 162.255 92.716 163.025C93.5 163.795 93.892 164.859 93.892 166.217V171.278C93.892 171.474 93.934 171.621 94.018 171.719C94.102 171.803 94.235 171.852 94.417 171.866V173C94.263 173.014 94.13 173.028 94.018 173.042C93.906 173.056 93.822 173.056 93.766 173.042C93.416 173.028 93.15 172.916 92.968 172.706C92.786 172.496 92.688 172.272 92.674 172.034L92.653 171.236C92.163 171.866 91.526 172.356 90.742 172.706C89.958 173.042 89.16 173.21 88.348 173.21C87.648 173.21 87.011 173.063 86.437 172.769C85.877 172.461 85.436 172.055 85.114 171.551C84.806 171.033 84.652 170.466 84.652 169.85ZM91.981 170.69C92.135 170.494 92.254 170.305 92.338 170.123C92.422 169.941 92.464 169.78 92.464 169.64V168.044C91.988 167.862 91.491 167.722 90.973 167.624C90.469 167.526 89.958 167.477 89.44 167.477C88.418 167.477 87.592 167.68 86.962 168.086C86.332 168.492 86.017 169.045 86.017 169.745C86.017 170.151 86.122 170.536 86.332 170.9C86.542 171.25 86.85 171.544 87.256 171.782C87.662 172.006 88.138 172.118 88.684 172.118C89.37 172.118 90.007 171.985 90.595 171.719C91.197 171.453 91.659 171.11 91.981 170.69ZM107.916 173.21C107.006 173.21 106.187 172.972 105.459 172.496C104.745 172.02 104.178 171.432 103.758 170.732V177.473H102.33V162.059H103.611V164.18C104.045 163.494 104.626 162.941 105.354 162.521C106.082 162.087 106.859 161.87 107.685 161.87C108.441 161.87 109.134 162.031 109.764 162.353C110.394 162.661 110.94 163.081 111.402 163.613C111.864 164.145 112.221 164.754 112.473 165.44C112.739 166.112 112.872 166.812 112.872 167.54C112.872 168.562 112.662 169.507 112.242 170.375C111.836 171.229 111.262 171.915 110.52 172.433C109.778 172.951 108.91 173.21 107.916 173.21ZM107.517 171.95C108.119 171.95 108.658 171.831 109.134 171.593C109.61 171.341 110.016 171.005 110.352 170.585C110.702 170.165 110.968 169.696 111.15 169.178C111.332 168.646 111.423 168.1 111.423 167.54C111.423 166.952 111.318 166.392 111.108 165.86C110.912 165.328 110.625 164.859 110.247 164.453C109.869 164.047 109.435 163.725 108.945 163.487C108.455 163.249 107.923 163.13 107.349 163.13C106.985 163.13 106.607 163.2 106.215 163.34C105.823 163.48 105.445 163.683 105.081 163.949C104.731 164.201 104.437 164.488 104.199 164.81C103.961 165.132 103.814 165.475 103.758 165.839V169.199C103.982 169.717 104.283 170.186 104.661 170.606C105.039 171.012 105.473 171.341 105.963 171.593C106.467 171.831 106.985 171.95 107.517 171.95ZM114.409 169.85C114.409 169.164 114.605 168.576 114.997 168.086C115.389 167.582 115.928 167.197 116.614 166.931C117.314 166.651 118.119 166.511 119.029 166.511C119.561 166.511 120.114 166.553 120.688 166.637C121.262 166.721 121.773 166.847 122.221 167.015V166.091C122.221 165.167 121.948 164.432 121.402 163.886C120.856 163.34 120.1 163.067 119.134 163.067C118.546 163.067 117.965 163.179 117.391 163.403C116.831 163.613 116.243 163.928 115.627 164.348L115.081 163.34C115.795 162.85 116.495 162.486 117.181 162.248C117.867 161.996 118.567 161.87 119.281 161.87C120.625 161.87 121.689 162.255 122.473 163.025C123.257 163.795 123.649 164.859 123.649 166.217V171.278C123.649 171.474 123.691 171.621 123.775 171.719C123.859 171.803 123.992 171.852 124.174 171.866V173C124.02 173.014 123.887 173.028 123.775 173.042C123.663 173.056 123.579 173.056 123.523 173.042C123.173 173.028 122.907 172.916 122.725 172.706C122.543 172.496 122.445 172.272 122.431 172.034L122.41 171.236C121.92 171.866 121.283 172.356 120.499 172.706C119.715 173.042 118.917 173.21 118.105 173.21C117.405 173.21 116.768 173.063 116.194 172.769C115.634 172.461 115.193 172.055 114.871 171.551C114.563 171.033 114.409 170.466 114.409 169.85ZM121.738 170.69C121.892 170.494 122.011 170.305 122.095 170.123C122.179 169.941 122.221 169.78 122.221 169.64V168.044C121.745 167.862 121.248 167.722 120.73 167.624C120.226 167.526 119.715 167.477 119.197 167.477C118.175 167.477 117.349 167.68 116.719 168.086C116.089 168.492 115.774 169.045 115.774 169.745C115.774 170.151 115.879 170.536 116.089 170.9C116.299 171.25 116.607 171.544 117.013 171.782C117.419 172.006 117.895 172.118 118.441 172.118C119.127 172.118 119.764 171.985 120.352 171.719C120.954 171.453 121.416 171.11 121.738 170.69ZM132.194 163.319C131.242 163.347 130.402 163.613 129.674 164.117C128.96 164.621 128.456 165.314 128.162 166.196V173H126.734V162.059H128.078V164.684C128.456 163.914 128.953 163.291 129.569 162.815C130.199 162.339 130.864 162.073 131.564 162.017C131.704 162.003 131.823 161.996 131.921 161.996C132.033 161.996 132.124 162.003 132.194 162.017V163.319ZM133.173 169.85C133.173 169.164 133.369 168.576 133.761 168.086C134.153 167.582 134.692 167.197 135.378 166.931C136.078 166.651 136.883 166.511 137.793 166.511C138.325 166.511 138.878 166.553 139.452 166.637C140.026 166.721 140.537 166.847 140.985 167.015V166.091C140.985 165.167 140.712 164.432 140.166 163.886C139.62 163.34 138.864 163.067 137.898 163.067C137.31 163.067 136.729 163.179 136.155 163.403C135.595 163.613 135.007 163.928 134.391 164.348L133.845 163.34C134.559 162.85 135.259 162.486 135.945 162.248C136.631 161.996 137.331 161.87 138.045 161.87C139.389 161.87 140.453 162.255 141.237 163.025C142.021 163.795 142.413 164.859 142.413 166.217V171.278C142.413 171.474 142.455 171.621 142.539 171.719C142.623 171.803 142.756 171.852 142.938 171.866V173C142.784 173.014 142.651 173.028 142.539 173.042C142.427 173.056 142.343 173.056 142.287 173.042C141.937 173.028 141.671 172.916 141.489 172.706C141.307 172.496 141.209 172.272 141.195 172.034L141.174 171.236C140.684 171.866 140.047 172.356 139.263 172.706C138.479 173.042 137.681 173.21 136.869 173.21C136.169 173.21 135.532 173.063 134.958 172.769C134.398 172.461 133.957 172.055 133.635 171.551C133.327 171.033 133.173 170.466 133.173 169.85ZM140.502 170.69C140.656 170.494 140.775 170.305 140.859 170.123C140.943 169.941 140.985 169.78 140.985 169.64V168.044C140.509 167.862 140.012 167.722 139.494 167.624C138.99 167.526 138.479 167.477 137.961 167.477C136.939 167.477 136.113 167.68 135.483 168.086C134.853 168.492 134.538 169.045 134.538 169.745C134.538 170.151 134.643 170.536 134.853 170.9C135.063 171.25 135.371 171.544 135.777 171.782C136.183 172.006 136.659 172.118 137.205 172.118C137.891 172.118 138.528 171.985 139.116 171.719C139.718 171.453 140.18 171.11 140.502 170.69ZM167.126 173H165.698V166.889C165.698 165.615 165.495 164.677 165.089 164.075C164.683 163.473 164.081 163.172 163.283 163.172C162.457 163.172 161.715 163.466 161.057 164.054C160.413 164.642 159.958 165.398 159.692 166.322V173H158.264V166.889C158.264 165.601 158.068 164.663 157.676 164.075C157.284 163.473 156.682 163.172 155.87 163.172C155.058 163.172 154.323 163.459 153.665 164.033C153.007 164.607 152.545 165.363 152.279 166.301V173H150.851V162.059H152.153V164.537C152.615 163.683 153.203 163.025 153.917 162.563C154.645 162.101 155.45 161.87 156.332 161.87C157.242 161.87 157.977 162.129 158.537 162.647C159.097 163.165 159.44 163.844 159.566 164.684C160.07 163.76 160.672 163.06 161.372 162.584C162.086 162.108 162.891 161.87 163.787 161.87C164.403 161.87 164.921 161.982 165.341 162.206C165.775 162.43 166.118 162.752 166.37 163.172C166.636 163.578 166.825 164.075 166.937 164.663C167.063 165.237 167.126 165.881 167.126 166.595V173ZM174.874 173.21C174.09 173.21 173.362 173.063 172.69 172.769C172.018 172.461 171.437 172.048 170.947 171.53C170.457 170.998 170.072 170.389 169.792 169.703C169.526 169.017 169.393 168.282 169.393 167.498C169.393 166.476 169.624 165.538 170.086 164.684C170.562 163.83 171.213 163.151 172.039 162.647C172.865 162.129 173.803 161.87 174.853 161.87C175.931 161.87 176.869 162.129 177.667 162.647C178.479 163.165 179.116 163.851 179.578 164.705C180.04 165.545 180.271 166.469 180.271 167.477C180.271 167.589 180.271 167.701 180.271 167.813C180.271 167.911 180.264 167.988 180.25 168.044H170.884C170.954 168.828 171.171 169.528 171.535 170.144C171.913 170.746 172.396 171.229 172.984 171.593C173.586 171.943 174.237 172.118 174.937 172.118C175.651 172.118 176.323 171.936 176.953 171.572C177.597 171.208 178.045 170.732 178.297 170.144L179.536 170.48C179.312 170.998 178.969 171.467 178.507 171.887C178.045 172.307 177.499 172.636 176.869 172.874C176.253 173.098 175.588 173.21 174.874 173.21ZM170.842 167.015H178.927C178.871 166.217 178.654 165.517 178.276 164.915C177.912 164.313 177.429 163.844 176.827 163.508C176.239 163.158 175.588 162.983 174.874 162.983C174.16 162.983 173.509 163.158 172.921 163.508C172.333 163.844 171.85 164.32 171.472 164.936C171.108 165.538 170.898 166.231 170.842 167.015ZM180.836 176.801C180.374 176.801 179.94 176.738 179.534 176.612C179.114 176.486 178.75 176.276 178.442 175.982L179.135 175.016C179.345 175.212 179.59 175.345 179.87 175.415C180.136 175.485 180.402 175.52 180.668 175.52C181.004 175.52 181.319 175.436 181.613 175.268C181.907 175.1 182.145 174.862 182.327 174.554C182.523 174.26 182.621 173.931 182.621 173.567V162.059H184.049V173.483C184.049 174.127 183.895 174.701 183.587 175.205C183.279 175.709 182.88 176.101 182.39 176.381C181.9 176.661 181.382 176.801 180.836 176.801ZM182.621 159.77V157.67H184.049V159.77H182.621ZM191.853 173.21C191.069 173.21 190.341 173.063 189.669 172.769C189.011 172.461 188.437 172.048 187.947 171.53C187.471 170.998 187.1 170.396 186.834 169.724C186.568 169.038 186.435 168.317 186.435 167.561C186.435 166.777 186.568 166.049 186.834 165.377C187.1 164.691 187.478 164.089 187.968 163.571C188.458 163.039 189.032 162.626 189.69 162.332C190.362 162.024 191.09 161.87 191.874 161.87C192.658 161.87 193.379 162.024 194.037 162.332C194.695 162.626 195.269 163.039 195.759 163.571C196.249 164.089 196.627 164.691 196.893 165.377C197.159 166.049 197.292 166.777 197.292 167.561C197.292 168.317 197.159 169.038 196.893 169.724C196.627 170.396 196.249 170.998 195.759 171.53C195.283 172.048 194.709 172.461 194.037 172.769C193.379 173.063 192.651 173.21 191.853 173.21ZM187.884 167.582C187.884 168.394 188.059 169.136 188.409 169.808C188.773 170.466 189.256 170.991 189.858 171.383C190.46 171.761 191.125 171.95 191.853 171.95C192.581 171.95 193.246 171.754 193.848 171.362C194.45 170.97 194.933 170.438 195.297 169.766C195.661 169.08 195.843 168.338 195.843 167.54C195.843 166.728 195.661 165.986 195.297 165.314C194.933 164.642 194.45 164.11 193.848 163.718C193.246 163.326 192.581 163.13 191.853 163.13C191.125 163.13 190.46 163.333 189.858 163.739C189.27 164.145 188.794 164.684 188.43 165.356C188.066 166.014 187.884 166.756 187.884 167.582ZM205.14 163.319C204.188 163.347 203.348 163.613 202.62 164.117C201.906 164.621 201.402 165.314 201.108 166.196V173H199.68V162.059H201.024V164.684C201.402 163.914 201.899 163.291 202.515 162.815C203.145 162.339 203.81 162.073 204.51 162.017C204.65 162.003 204.769 161.996 204.867 161.996C204.979 161.996 205.07 162.003 205.14 162.017V163.319ZM206.12 169.85C206.12 169.164 206.316 168.576 206.708 168.086C207.1 167.582 207.639 167.197 208.325 166.931C209.025 166.651 209.83 166.511 210.74 166.511C211.272 166.511 211.825 166.553 212.399 166.637C212.973 166.721 213.484 166.847 213.932 167.015V166.091C213.932 165.167 213.659 164.432 213.113 163.886C212.567 163.34 211.811 163.067 210.845 163.067C210.257 163.067 209.676 163.179 209.102 163.403C208.542 163.613 207.954 163.928 207.338 164.348L206.792 163.34C207.506 162.85 208.206 162.486 208.892 162.248C209.578 161.996 210.278 161.87 210.992 161.87C212.336 161.87 213.4 162.255 214.184 163.025C214.968 163.795 215.36 164.859 215.36 166.217V171.278C215.36 171.474 215.402 171.621 215.486 171.719C215.57 171.803 215.703 171.852 215.885 171.866V173C215.731 173.014 215.598 173.028 215.486 173.042C215.374 173.056 215.29 173.056 215.234 173.042C214.884 173.028 214.618 172.916 214.436 172.706C214.254 172.496 214.156 172.272 214.142 172.034L214.121 171.236C213.631 171.866 212.994 172.356 212.21 172.706C211.426 173.042 210.628 173.21 209.816 173.21C209.116 173.21 208.479 173.063 207.905 172.769C207.345 172.461 206.904 172.055 206.582 171.551C206.274 171.033 206.12 170.466 206.12 169.85ZM213.449 170.69C213.603 170.494 213.722 170.305 213.806 170.123C213.89 169.941 213.932 169.78 213.932 169.64V168.044C213.456 167.862 212.959 167.722 212.441 167.624C211.937 167.526 211.426 167.477 210.908 167.477C209.886 167.477 209.06 167.68 208.43 168.086C207.8 168.492 207.485 169.045 207.485 169.745C207.485 170.151 207.59 170.536 207.8 170.9C208.01 171.25 208.318 171.544 208.724 171.782C209.13 172.006 209.606 172.118 210.152 172.118C210.838 172.118 211.475 171.985 212.063 171.719C212.665 171.453 213.127 171.11 213.449 170.69ZM223.905 163.319C222.953 163.347 222.113 163.613 221.385 164.117C220.671 164.621 220.167 165.314 219.873 166.196V173H218.445V162.059H219.789V164.684C220.167 163.914 220.664 163.291 221.28 162.815C221.91 162.339 222.575 162.073 223.275 162.017C223.415 162.003 223.534 161.996 223.632 161.996C223.744 161.996 223.835 162.003 223.905 162.017V163.319ZM230.731 157.67H232.159V170.522C232.159 171.068 232.257 171.425 232.453 171.593C232.649 171.761 232.887 171.845 233.167 171.845C233.419 171.845 233.671 171.817 233.923 171.761C234.175 171.705 234.392 171.649 234.574 171.593L234.826 172.748C234.56 172.86 234.231 172.951 233.839 173.021C233.461 173.091 233.132 173.126 232.852 173.126C232.208 173.126 231.69 172.937 231.298 172.559C230.92 172.181 230.731 171.663 230.731 171.005V157.67ZM235.507 169.85C235.507 169.164 235.703 168.576 236.095 168.086C236.487 167.582 237.026 167.197 237.712 166.931C238.412 166.651 239.217 166.511 240.127 166.511C240.659 166.511 241.212 166.553 241.786 166.637C242.36 166.721 242.871 166.847 243.319 167.015V166.091C243.319 165.167 243.046 164.432 242.5 163.886C241.954 163.34 241.198 163.067 240.232 163.067C239.644 163.067 239.063 163.179 238.489 163.403C237.929 163.613 237.341 163.928 236.725 164.348L236.179 163.34C236.893 162.85 237.593 162.486 238.279 162.248C238.965 161.996 239.665 161.87 240.379 161.87C241.723 161.87 242.787 162.255 243.571 163.025C244.355 163.795 244.747 164.859 244.747 166.217V171.278C244.747 171.474 244.789 171.621 244.873 171.719C244.957 171.803 245.09 171.852 245.272 171.866V173C245.118 173.014 244.985 173.028 244.873 173.042C244.761 173.056 244.677 173.056 244.621 173.042C244.271 173.028 244.005 172.916 243.823 172.706C243.641 172.496 243.543 172.272 243.529 172.034L243.508 171.236C243.018 171.866 242.381 172.356 241.597 172.706C240.813 173.042 240.015 173.21 239.203 173.21C238.503 173.21 237.866 173.063 237.292 172.769C236.732 172.461 236.291 172.055 235.969 171.551C235.661 171.033 235.507 170.466 235.507 169.85ZM242.836 170.69C242.99 170.494 243.109 170.305 243.193 170.123C243.277 169.941 243.319 169.78 243.319 169.64V168.044C242.843 167.862 242.346 167.722 241.828 167.624C241.324 167.526 240.813 167.477 240.295 167.477C239.273 167.477 238.447 167.68 237.817 168.086C237.187 168.492 236.872 169.045 236.872 169.745C236.872 170.151 236.977 170.536 237.187 170.9C237.397 171.25 237.705 171.544 238.111 171.782C238.517 172.006 238.993 172.118 239.539 172.118C240.225 172.118 240.862 171.985 241.45 171.719C242.052 171.453 242.514 171.11 242.836 170.69ZM252.303 169.85C252.303 169.164 252.499 168.576 252.891 168.086C253.283 167.582 253.822 167.197 254.508 166.931C255.208 166.651 256.013 166.511 256.923 166.511C257.455 166.511 258.008 166.553 258.582 166.637C259.156 166.721 259.667 166.847 260.115 167.015V166.091C260.115 165.167 259.842 164.432 259.296 163.886C258.75 163.34 257.994 163.067 257.028 163.067C256.44 163.067 255.859 163.179 255.285 163.403C254.725 163.613 254.137 163.928 253.521 164.348L252.975 163.34C253.689 162.85 254.389 162.486 255.075 162.248C255.761 161.996 256.461 161.87 257.175 161.87C258.519 161.87 259.583 162.255 260.367 163.025C261.151 163.795 261.543 164.859 261.543 166.217V171.278C261.543 171.474 261.585 171.621 261.669 171.719C261.753 171.803 261.886 171.852 262.068 171.866V173C261.914 173.014 261.781 173.028 261.669 173.042C261.557 173.056 261.473 173.056 261.417 173.042C261.067 173.028 260.801 172.916 260.619 172.706C260.437 172.496 260.339 172.272 260.325 172.034L260.304 171.236C259.814 171.866 259.177 172.356 258.393 172.706C257.609 173.042 256.811 173.21 255.999 173.21C255.299 173.21 254.662 173.063 254.088 172.769C253.528 172.461 253.087 172.055 252.765 171.551C252.457 171.033 252.303 170.466 252.303 169.85ZM259.632 170.69C259.786 170.494 259.905 170.305 259.989 170.123C260.073 169.941 260.115 169.78 260.115 169.64V168.044C259.639 167.862 259.142 167.722 258.624 167.624C258.12 167.526 257.609 167.477 257.091 167.477C256.069 167.477 255.243 167.68 254.613 168.086C253.983 168.492 253.668 169.045 253.668 169.745C253.668 170.151 253.773 170.536 253.983 170.9C254.193 171.25 254.501 171.544 254.907 171.782C255.313 172.006 255.789 172.118 256.335 172.118C257.021 172.118 257.658 171.985 258.246 171.719C258.848 171.453 259.31 171.11 259.632 170.69ZM270.215 173.21C269.305 173.21 268.486 172.972 267.758 172.496C267.044 172.02 266.477 171.432 266.057 170.732V177.473H264.629V162.059H265.91V164.18C266.344 163.494 266.925 162.941 267.653 162.521C268.381 162.087 269.158 161.87 269.984 161.87C270.74 161.87 271.433 162.031 272.063 162.353C272.693 162.661 273.239 163.081 273.701 163.613C274.163 164.145 274.52 164.754 274.772 165.44C275.038 166.112 275.171 166.812 275.171 167.54C275.171 168.562 274.961 169.507 274.541 170.375C274.135 171.229 273.561 171.915 272.819 172.433C272.077 172.951 271.209 173.21 270.215 173.21ZM269.816 171.95C270.418 171.95 270.957 171.831 271.433 171.593C271.909 171.341 272.315 171.005 272.651 170.585C273.001 170.165 273.267 169.696 273.449 169.178C273.631 168.646 273.722 168.1 273.722 167.54C273.722 166.952 273.617 166.392 273.407 165.86C273.211 165.328 272.924 164.859 272.546 164.453C272.168 164.047 271.734 163.725 271.244 163.487C270.754 163.249 270.222 163.13 269.648 163.13C269.284 163.13 268.906 163.2 268.514 163.34C268.122 163.48 267.744 163.683 267.38 163.949C267.03 164.201 266.736 164.488 266.498 164.81C266.26 165.132 266.113 165.475 266.057 165.839V169.199C266.281 169.717 266.582 170.186 266.96 170.606C267.338 171.012 267.772 171.341 268.262 171.593C268.766 171.831 269.284 171.95 269.816 171.95ZM283.176 173.21C282.266 173.21 281.447 172.972 280.719 172.496C280.005 172.02 279.438 171.432 279.018 170.732V177.473H277.59V162.059H278.871V164.18C279.305 163.494 279.886 162.941 280.614 162.521C281.342 162.087 282.119 161.87 282.945 161.87C283.701 161.87 284.394 162.031 285.024 162.353C285.654 162.661 286.2 163.081 286.662 163.613C287.124 164.145 287.481 164.754 287.733 165.44C287.999 166.112 288.132 166.812 288.132 167.54C288.132 168.562 287.922 169.507 287.502 170.375C287.096 171.229 286.522 171.915 285.78 172.433C285.038 172.951 284.17 173.21 283.176 173.21ZM282.777 171.95C283.379 171.95 283.918 171.831 284.394 171.593C284.87 171.341 285.276 171.005 285.612 170.585C285.962 170.165 286.228 169.696 286.41 169.178C286.592 168.646 286.683 168.1 286.683 167.54C286.683 166.952 286.578 166.392 286.368 165.86C286.172 165.328 285.885 164.859 285.507 164.453C285.129 164.047 284.695 163.725 284.205 163.487C283.715 163.249 283.183 163.13 282.609 163.13C282.245 163.13 281.867 163.2 281.475 163.34C281.083 163.48 280.705 163.683 280.341 163.949C279.991 164.201 279.697 164.488 279.459 164.81C279.221 165.132 279.074 165.475 279.018 165.839V169.199C279.242 169.717 279.543 170.186 279.921 170.606C280.299 171.012 280.733 171.341 281.223 171.593C281.727 171.831 282.245 171.95 282.777 171.95ZM291.738 168.758C291.738 168.142 291.801 167.617 291.927 167.183C292.067 166.735 292.263 166.35 292.515 166.028C292.781 165.706 293.117 165.426 293.523 165.188C293.789 165.02 294.09 164.845 294.426 164.663C294.776 164.481 295.098 164.271 295.392 164.033C295.7 163.781 295.952 163.48 296.148 163.13C296.344 162.766 296.442 162.332 296.442 161.828C296.442 161.212 296.302 160.708 296.022 160.316C295.756 159.91 295.406 159.609 294.972 159.413C294.538 159.203 294.076 159.098 293.586 159.098C293.096 159.098 292.627 159.196 292.179 159.392C291.745 159.574 291.36 159.826 291.024 160.148C290.688 160.47 290.415 160.834 290.205 161.24L289.218 160.61C289.484 160.036 289.841 159.546 290.289 159.14C290.751 158.734 291.269 158.426 291.843 158.216C292.417 158.006 293.005 157.901 293.607 157.901C294.125 157.901 294.629 157.985 295.119 158.153C295.609 158.307 296.043 158.552 296.421 158.888C296.813 159.224 297.121 159.644 297.345 160.148C297.583 160.638 297.702 161.226 297.702 161.912C297.702 162.472 297.625 162.948 297.471 163.34C297.317 163.718 297.1 164.047 296.82 164.327C296.554 164.593 296.253 164.831 295.917 165.041C295.581 165.251 295.231 165.454 294.867 165.65C294.545 165.832 294.237 166.035 293.943 166.259C293.649 166.483 293.411 166.791 293.229 167.183C293.047 167.561 292.956 168.086 292.956 168.758H291.738ZM291.759 173V170.753H292.998V173H291.759Z" fill="#333333"/>
</svg>
