<svg width="227" height="182" viewBox="0 0 227 182" fill="none" xmlns="http://www.w3.org/2000/svg">
<path fill-rule="evenodd" clip-rule="evenodd" d="M32.9697 73.6567C33.1786 75.1545 32.3133 76.5916 30.867 77.0337C28.7822 77.671 27.0223 78.2255 25.557 78.6791C20.4938 80.2382 18.9829 80.6079 18.2757 82.2152C17.5684 83.8226 17.6649 86.6516 17.2791 88.8376C16.9094 91.0075 16.0575 92.5184 15.3503 96.0546C14.643 99.6068 14.0805 105.184 13.8393 108.496C13.5982 111.791 13.6947 112.835 13.4054 114.105C13.1321 115.391 12.4731 116.902 12.4731 118.879C12.4731 120.872 13.1321 123.331 13.1803 127.012C13.2286 130.693 12.6499 135.612 12.3767 139.067C12.0873 142.507 12.0873 144.5 12.4731 146.059C12.8428 147.619 13.5982 148.744 13.55 150.448C13.5018 152.151 12.6499 154.418 12.6017 156.073C12.5535 157.729 13.325 158.774 13.2768 160.092C13.2286 161.41 12.3767 163.017 11.9427 165.766C11.5248 168.498 11.5248 172.372 11.6212 174.783C11.7176 177.194 11.8944 178.142 13.0357 178.287C13.9519 178.4 15.511 177.982 17.697 177.66C15.1697 178.28 15.6192 182 18.2214 182H223.895C225.551 182 226.895 180.657 226.895 179V148.915C226.895 147.258 225.551 145.915 223.895 145.915H147.177C147.173 145.915 147.17 145.912 147.17 145.908C147.17 145.903 147.165 145.9 147.161 145.901L146.897 145.964C146.867 145.971 146.841 145.944 146.848 145.915C147.427 144.307 147.523 141.848 147.282 139.534C147.041 137.219 146.479 135.049 145.916 132.493C145.337 129.938 144.775 127.012 143.312 123.798C141.849 120.583 139.486 117.095 138.024 114.636C136.561 112.176 135.982 110.762 134.005 107.788C132.012 104.799 128.621 100.266 126.162 95.926C123.702 91.5701 122.191 87.407 121.034 84.1119C120.439 82.3826 119.931 80.8908 119.125 79.3059C118.908 78.8797 118.785 78.4128 118.73 77.9379C118.49 75.8751 117.511 73.5295 116.276 71.8639C114.492 69.501 112.177 68.5206 110.843 67.3311C109.493 66.1577 109.107 64.7754 109.718 63.9557C110.345 63.1198 111.952 62.8466 113.029 61.4321C114.122 60.0016 114.685 57.4619 113.672 55.0187C112.66 52.5916 110.056 50.277 108.481 47.4802C106.889 44.6995 106.327 41.4366 105.282 37.9486C104.237 34.4446 102.726 30.7155 100.588 27.8062C98.4346 24.8969 95.6378 22.8234 93.6607 20.766C89.4655 16.41 87.376 10.3664 82.8111 5.94612C80.4804 3.67975 77.8765 2.36172 74.8546 1.3973C71.8328 0.448962 68.377 -0.14576 65.5641 0.031049C62.7512 0.207858 60.5813 1.1562 58.8293 1.33301C57.0933 1.50982 55.7592 0.915096 54.2805 1.30086C52.7856 1.67055 51.13 3.02073 49.5709 4.82097C48.0118 6.60514 46.5491 8.85544 44.781 11.5879C42.9968 14.3205 40.9233 17.5352 39.2035 20.9588C37.4836 24.3825 36.1013 28.0151 35.3458 32.0818C34.5903 36.1484 34.4457 40.6329 35.0725 44.3941C35.6833 48.1553 37.0496 51.1772 37.4032 53.7168C37.7568 56.2725 37.0978 58.3621 35.8762 61.191C34.6386 64.02 32.8383 67.6204 32.7901 71.2531C32.7824 72.056 32.8585 72.8589 32.9697 73.6567ZM45.1134 170.939C44.6334 171.059 44.3789 170.611 44.8491 170.457C45.148 170.359 45.4481 170.347 45.6811 170.443C45.8764 170.508 45.8128 170.764 45.613 170.814L45.1134 170.939ZM64.7122 166.135C65.8856 165.766 67.5251 165.38 70.1129 164.769C71.0774 164.544 72.1704 164.287 73.408 163.998L64.7122 166.135ZM114.219 123.299C114.862 123.54 115.505 125.051 116.132 126.289C116.758 127.527 117.369 128.507 117.851 129.713C118.334 130.918 118.687 132.349 118.768 133.072C118.864 133.795 118.671 133.795 118.06 133.908C117.466 134.036 116.453 134.261 115.569 134.599C114.701 134.92 113.962 135.354 113.56 134.615C113.158 133.892 113.094 131.995 112.933 130.211C112.788 128.427 112.547 126.755 112.756 125.405C112.949 124.055 113.592 123.042 114.219 123.299Z" fill="#E8E8E8"/>
<path fill-rule="evenodd" clip-rule="evenodd" d="M87.2635 172.211L28.9164 180.794L12.6178 178.175L64.1336 166.328L87.2635 172.211Z" fill="white"/>
<path fill-rule="evenodd" clip-rule="evenodd" d="M79.2106 80.0292C80.1107 83.0671 83.4219 84.4334 85.9454 88.0178C88.469 91.6022 90.221 97.3887 91.4426 102.822C92.6802 108.254 93.3875 113.334 94.2072 117.272C95.0431 121.194 95.9914 123.99 96.8433 127.269C97.6952 130.548 98.4507 134.342 99.0132 136.881C99.5758 139.437 99.9616 140.755 99.9616 141.479C99.9616 142.186 99.5758 142.282 98.9007 142.346C98.2256 142.411 97.2612 142.459 96.6183 142.652C95.9914 142.845 95.686 143.166 94.1108 143.6C92.5356 144.018 89.7066 144.549 87.7135 145.079C85.7043 145.609 84.547 146.156 83.7433 146.51C82.9397 146.863 82.4896 147.024 82.0556 147.104C81.6056 147.185 81.1555 147.185 80.834 147.378C80.5126 147.57 80.3197 147.94 80.1268 148.294C79.95 148.647 79.7571 148.985 79.95 149.017C80.1589 149.049 80.7537 148.792 81.2841 148.696C81.8145 148.599 82.2806 148.679 82.7628 149.017C83.229 149.371 83.6951 149.981 84.2416 151.01C84.7881 152.055 85.3989 153.518 85.8972 154.884C86.3955 156.234 86.7652 157.488 86.9902 158.468C87.1509 159.208 87.2152 159.802 87.1188 160.895C89.0315 160.477 91.0568 160.027 93.2267 159.577C104.044 157.247 118.028 154.418 127.062 152.569C136.079 150.737 140.146 149.885 142.701 149.081C145.241 148.278 146.286 147.522 146.848 145.915C147.427 144.307 147.523 141.848 147.282 139.534C147.041 137.219 146.479 135.049 145.916 132.493C145.337 129.938 144.775 127.012 143.312 123.798C141.849 120.583 139.486 117.095 138.024 114.636C136.561 112.176 135.982 110.762 134.005 107.788C132.012 104.799 128.621 100.266 126.162 95.926C123.702 91.5701 122.191 87.407 121.034 84.1119C120.359 82.1509 119.796 80.4954 118.784 78.663C118.719 76.4448 117.659 73.7284 116.276 71.8639C114.492 69.501 112.177 68.5205 110.843 67.3311C109.493 66.1577 109.107 64.7754 109.718 63.9557C110.345 63.1198 111.952 62.8466 113.029 61.4321C114.122 60.0016 114.685 57.4619 113.672 55.0187C112.949 53.2989 111.422 51.6272 110.04 49.8109C106.552 53.331 103.208 56.9958 99.9616 59.664C93.4678 65.0004 87.376 66.3024 83.5826 69.2921C79.7892 72.2978 78.2944 76.9913 79.2106 80.0292ZM114.219 123.299C114.862 123.54 115.505 125.051 116.132 126.289C116.758 127.527 117.369 128.507 117.851 129.713C118.334 130.918 118.687 132.349 118.768 133.072C118.864 133.795 118.671 133.795 118.06 133.908C117.466 134.036 116.453 134.261 115.569 134.599C114.701 134.92 113.962 135.354 113.56 134.615C113.158 133.892 113.094 131.995 112.933 130.211C112.788 128.427 112.547 126.755 112.756 125.405C112.949 124.055 113.592 123.042 114.219 123.299ZM32.8544 72.6193C39.8786 74.3874 47.1277 76.4127 51.7248 78.0683C58.8614 80.6561 59.5687 82.376 60.7903 86.1211C61.9958 89.8823 63.6996 95.6849 65.2105 103.159C66.7214 110.633 68.0395 119.811 68.8431 128.411C69.6468 137.01 69.9201 145.047 70.0647 149.049C70.2094 153.068 70.2094 153.068 69.3575 153.196C68.5056 153.309 66.8018 153.55 65.2427 153.919C63.6674 154.305 62.2208 154.82 61.1439 155.157C60.067 155.511 59.3597 155.671 58.6203 155.864C57.881 156.073 57.0933 156.314 56.579 156.523C56.0646 156.732 55.7914 156.925 55.6146 157.182C55.4378 157.44 55.3413 157.777 54.9073 158.066C54.4734 158.372 53.7018 158.629 53.0428 158.95C52.3999 159.288 51.8694 159.69 51.6123 160.172C51.3551 160.654 51.3551 161.217 51.1622 161.619C50.9532 162.021 50.5514 162.262 50.0853 162.712C49.6352 163.162 49.1048 163.821 48.928 163.756C48.7512 163.708 48.928 162.921 49.2012 162.181C49.4906 161.442 49.8924 160.735 50.3907 160.027C50.889 159.336 51.4676 158.645 51.6926 157.97C51.9177 157.295 51.7891 156.636 51.2426 155.993C50.7121 155.334 49.7959 154.707 48.4297 154.032C47.0634 153.357 45.2311 152.65 43.8487 152.2C42.4664 151.75 41.5341 151.557 40.7305 151.557C39.9268 151.557 39.2517 151.75 38.5927 152.087C37.9336 152.441 37.2746 152.923 36.1977 153.068C35.1208 153.212 33.642 153.003 32.4365 152.923C31.231 152.843 30.2987 152.891 29.5432 153.18C28.7717 153.469 28.1609 154.016 27.3894 154.868C26.6179 155.72 25.7017 156.877 24.8658 157.954C24.0461 159.031 23.3067 160.011 22.1494 161.056C20.976 162.101 19.3687 163.178 17.906 164.673C16.4433 166.168 15.1092 168.048 14.2091 169.752C13.325 171.456 12.8428 172.967 12.666 174.204C12.4892 175.442 12.6017 176.422 12.6499 177.467C12.666 177.692 12.666 177.917 12.6178 178.174C11.8462 177.853 11.7016 176.856 11.6212 174.783C11.5248 172.372 11.5248 168.498 11.9427 165.766C12.3767 163.017 13.2286 161.41 13.2768 160.092C13.325 158.774 12.5535 157.729 12.6017 156.073C12.6499 154.418 13.5018 152.151 13.55 150.448C13.5983 148.744 12.8428 147.619 12.4731 146.059C12.0873 144.5 12.0873 142.507 12.3767 139.067C12.6499 135.612 13.2286 130.693 13.1803 127.012C13.1321 123.331 12.4731 120.872 12.4731 118.879C12.4731 116.902 13.1321 115.391 13.4054 114.105C13.6947 112.835 13.5983 111.791 13.8394 108.496C14.0805 105.184 14.643 99.6068 15.3503 96.0546C16.0575 92.5184 16.9094 91.0075 17.2791 88.8375C17.6649 86.6515 17.5684 83.8226 18.2757 82.2152C18.9829 80.6079 20.4938 80.2382 25.557 78.679C27.5823 78.0522 30.1701 77.2324 33.4009 76.268C33.208 75.0786 32.9669 73.857 32.8544 72.6193Z" fill="#4D4039" stroke="black" stroke-width="0.2"/>
<path fill-rule="evenodd" clip-rule="evenodd" d="M99.8491 141.977C101.119 141.977 102.308 141.816 103.064 141.398C103.867 140.948 104.173 140.209 105.652 139.244C107.114 138.28 109.75 137.09 111.422 136.351C113.094 135.612 113.817 135.29 114.878 135.017C115.955 134.744 117.401 134.487 118.8 134.133C120.198 133.779 121.548 133.313 123.413 132.879C125.261 132.461 127.608 132.075 128.315 131.577C129.023 131.079 128.074 130.452 128.235 129.922C128.396 129.391 129.682 128.973 131.402 129.102C133.137 129.23 135.323 129.922 137.059 130.613C138.795 131.304 140.081 132.011 141.431 133.538C142.798 135.049 144.212 137.364 145.08 139.116C145.964 140.868 146.286 142.057 146.495 141.961C146.704 141.848 146.784 140.434 146.543 138.859C146.302 137.267 145.739 135.515 143.553 133.795C141.367 132.059 137.59 130.372 135.307 129.439C133.041 128.507 132.286 128.33 131.45 128.105C130.63 127.88 129.746 127.607 130.341 127.398C130.935 127.173 133.025 127.012 134.954 126.803C136.899 126.578 138.699 126.321 138.747 126C138.811 125.694 137.14 125.309 134.809 125.341C132.478 125.373 129.505 125.823 128.444 125.582C127.383 125.325 128.219 124.392 130.035 123.942C131.835 123.508 134.6 123.589 137.011 124.119C139.422 124.666 141.48 125.694 141.946 125.534C142.428 125.373 141.319 124.055 139.422 123.187C137.542 122.303 134.857 121.885 132.671 121.933C130.501 121.981 128.798 122.496 127.287 122.528C125.776 122.56 124.442 122.126 124.876 121.162C125.294 120.197 127.463 118.734 129.071 117.432C130.678 116.114 131.723 114.957 130.501 115.327C129.296 115.697 125.808 117.577 120.697 116.645C115.585 115.697 108.834 111.919 103.241 108.254C97.9845 104.799 93.7733 101.471 90.8639 100.362C91.0729 101.182 91.2658 102.002 91.4426 102.822C92.6803 108.254 93.3875 113.334 94.2072 117.272C95.0431 121.194 95.9914 123.99 96.8433 127.269C97.6952 130.548 98.4507 134.342 99.0132 136.881C99.5758 139.437 99.9616 140.755 99.9616 141.479C99.9616 141.704 99.9134 141.864 99.8491 141.977ZM114.219 123.299C114.862 123.54 115.505 125.051 116.132 126.289C116.758 127.527 117.369 128.507 117.851 129.713C118.334 130.918 118.687 132.349 118.768 133.072C118.864 133.795 118.671 133.795 118.06 133.908C117.466 134.036 116.453 134.261 115.569 134.599C114.701 134.921 113.962 135.354 113.56 134.615C113.158 133.892 113.094 131.995 112.933 130.211C112.788 128.427 112.547 126.755 112.756 125.405C112.949 124.055 113.592 123.042 114.219 123.299ZM50.5836 123.894C49.153 125.55 48.6708 131.4 47.0152 135.981C45.3596 140.562 42.5307 143.873 40.7144 143.15C38.8981 142.411 38.0944 137.637 37.7408 134.101C37.3872 130.548 37.4675 128.234 35.8762 129.118C34.2689 129.986 30.9577 134.053 28.4181 138.746C25.8945 143.456 24.1425 148.792 25.2677 149.933C26.3768 151.058 30.3469 147.988 32.7901 145.963C35.2494 143.922 36.1977 142.925 36.4388 143.729C36.6638 144.533 36.1977 147.136 34.076 149.339C31.9543 151.541 28.1609 153.325 24.8658 154.691C21.5547 156.073 18.7097 157.022 17.2309 155.238C15.736 153.469 15.5914 148.985 17.1987 144.983C18.8061 140.996 22.1655 137.492 24.9783 135.226C27.7912 132.96 30.0576 131.931 29.2057 131.449C28.3538 130.982 24.3836 131.079 21.5708 130.227C18.7579 129.375 17.1023 127.575 16.0897 125.469C15.077 123.364 14.6913 120.953 15.5271 121.435C16.3468 121.901 18.3882 125.26 20.1402 126.835C21.8761 128.427 23.3388 128.234 22.728 126.482C22.1173 124.746 19.4169 121.435 18.0346 116.966C16.6362 112.498 16.5397 106.872 17.1023 100.989C17.6809 95.1063 18.9025 88.9661 20.1402 87.1659C21.3618 85.3817 22.5834 87.9374 23.371 90.7021C24.1425 93.4507 24.4801 96.4404 24.6247 95.5402C24.7694 94.6401 24.7212 89.8663 26.7947 86.3783C28.8682 82.8743 33.0794 80.6561 36.7121 78.5505C40.3608 76.4448 43.4308 74.4678 38.1908 74.6285C36.9371 74.6607 35.2333 74.8214 33.208 75.1589L33.4009 76.268C30.1701 77.2324 27.5823 78.0522 25.557 78.6791C20.4938 80.2382 18.9829 80.6079 18.2757 82.2152C17.5684 83.8226 17.6649 86.6516 17.2791 88.8376C16.9094 91.0075 16.0575 92.5184 15.3503 96.0546C14.643 99.6069 14.0805 105.184 13.8394 108.496C13.5983 111.791 13.6947 112.835 13.4054 114.105C13.1321 115.391 12.4731 116.902 12.4731 118.879C12.4731 120.872 13.1321 123.331 13.1803 127.012C13.2286 130.693 12.6499 135.612 12.3767 139.067C12.0873 142.507 12.0873 144.5 12.4731 146.059C12.8428 147.619 13.5983 148.744 13.55 150.448C13.5018 152.151 12.6499 154.418 12.6017 156.073C12.5535 157.729 13.325 158.774 13.2768 160.092C13.2286 161.41 12.3767 163.017 11.9427 165.766C11.5248 168.498 11.5248 172.372 11.6212 174.783C11.7016 176.856 11.8462 177.853 12.6178 178.174C12.666 177.917 12.666 177.692 12.6499 177.467C12.6017 176.422 12.4892 175.442 12.666 174.204C12.8428 172.967 13.325 171.456 14.2091 169.752C15.1092 168.048 16.4433 166.168 17.906 164.673C19.3687 163.178 20.976 162.101 22.1494 161.056C23.3067 160.011 24.0461 159.031 24.8658 157.954C25.7017 156.877 26.6179 155.72 27.3894 154.868C28.1609 154.016 28.7717 153.469 29.5432 153.18C30.2987 152.891 31.231 152.843 32.4365 152.923C33.642 153.003 35.1208 153.212 36.1977 153.068C37.2746 152.923 37.9337 152.441 38.5927 152.087C39.2517 151.75 39.9268 151.557 40.7305 151.557C41.5341 151.557 42.4664 151.75 43.8487 152.2C45.2311 152.65 47.0634 153.357 48.4297 154.032C49.796 154.707 50.7121 155.334 51.2426 155.993C51.7891 156.636 51.9177 157.295 51.6926 157.97C51.4676 158.645 50.889 159.336 50.3907 160.027C49.8924 160.735 49.4906 161.442 49.2012 162.181C48.928 162.921 48.7512 163.708 48.928 163.756C49.1048 163.821 49.6352 163.162 50.0853 162.712C50.5514 162.262 50.9533 162.021 51.1622 161.619C51.3551 161.217 51.3551 160.654 51.6123 160.172C51.8694 159.69 52.3999 159.288 53.0428 158.951C53.7018 158.629 54.4734 158.372 54.9073 158.066C55.3413 157.777 55.4378 157.44 55.6146 157.182C55.7914 156.925 56.0646 156.732 56.579 156.523C57.0934 156.314 57.881 156.073 58.6203 155.864C59.3597 155.671 60.067 155.511 61.1439 155.157C62.2208 154.82 63.6674 154.305 65.2427 153.919C66.8018 153.55 68.5056 153.309 69.3575 153.196C70.2094 153.068 70.2094 153.068 70.0647 149.049C69.9201 145.047 69.6468 137.01 68.8431 128.411C68.0395 119.811 66.7214 110.633 65.2105 103.159C63.6996 95.6849 61.9958 89.8823 60.7903 86.1211C60.2598 84.4977 59.8259 83.244 58.9097 82.1349C59.424 86.1693 60.6135 92.5506 61.6743 98.5781C63.1852 107.258 64.4068 115.246 64.5033 122.351C64.5997 129.472 63.5549 135.708 61.9797 139.373C60.3884 143.022 58.2667 144.115 57.3184 141.687C56.37 139.244 56.6111 133.297 55.5181 129.038C54.4412 124.794 52.0302 122.238 50.5836 123.894Z" fill="#40352F"/>
<path fill-rule="evenodd" clip-rule="evenodd" d="M58.8293 1.33301C60.5813 1.1562 62.7513 0.207858 65.5642 0.031049C68.377 -0.14576 71.8329 0.448962 74.8547 1.3973C77.8765 2.36172 80.4804 3.67975 82.8111 5.94612C85.1578 8.2125 87.2313 11.4272 88.8708 14.0472C90.4943 16.6833 91.6676 18.7085 93.6608 20.766C95.6378 22.8234 98.4346 24.8969 100.588 27.8062C102.726 30.7155 104.237 34.4446 105.282 37.9486C106.327 41.4366 106.889 44.6995 108.481 47.4802C110.056 50.277 112.66 52.5916 113.672 55.0187C114.685 57.4619 114.122 60.0016 113.029 61.4321C111.952 62.8466 110.345 63.1198 109.718 63.9557C109.107 64.7754 109.493 66.1577 110.843 67.3311C112.178 68.5206 114.492 69.501 116.276 71.8639C118.044 74.2267 119.266 77.9718 118.591 80.3346C117.9 82.6974 115.296 83.6779 113.721 86.1211C112.129 88.5482 111.567 92.422 112.403 95.7492C113.222 99.0925 115.44 101.873 117.851 103.031C120.263 104.188 122.866 103.722 124.442 102.661C126.033 101.584 126.596 99.9444 126.596 100.603C126.596 101.262 126.033 104.236 124.442 105.843C122.866 107.451 120.263 107.692 119.298 108.512C118.334 109.347 118.993 110.762 120.375 111.116C121.773 111.469 123.895 110.762 125.679 109.299C127.447 107.837 128.862 105.602 129.617 105.94C130.373 106.261 130.469 109.155 129.601 111.26C128.717 113.35 126.885 114.684 124.924 115.713C122.963 116.757 120.873 117.513 118.044 117.513C115.215 117.513 111.615 116.757 108.529 115.182C105.427 113.591 102.823 111.18 102.807 112.064C102.774 112.932 105.33 117.095 106.327 120.76C107.323 124.408 106.745 127.575 105.443 129.938C104.157 132.3 102.115 133.86 101.746 132.943C101.36 132.027 102.646 128.62 101.553 123.701C100.46 118.799 97.0201 112.369 93.6768 106.293C90.3496 100.218 87.1349 94.4955 84.8685 90.1717C82.6021 85.8479 81.2841 82.9225 80.8501 78.6308C80.4322 74.3231 80.8983 68.6491 81.8628 64.5022C82.8433 60.3391 84.3059 57.687 85.2543 54.8098C86.1866 51.9326 86.6205 48.8144 86.8134 45.5514C86.9902 42.2885 86.942 38.8809 86.2187 36.9038C85.4793 34.9107 84.0648 34.3481 82.0074 33.3033C79.95 32.2746 77.2657 30.7637 74.9993 28.6259C72.733 26.5042 70.8845 23.7717 69.4379 21.5214C68.0073 19.2711 66.9626 17.5352 65.5159 16.1528C64.0854 14.7866 62.2369 13.79 60.3242 13.6614C58.4275 13.5329 56.4504 14.2722 55.1324 14.3848C53.8144 14.4973 53.1393 13.999 52.3677 14.1597C51.5962 14.3205 50.7122 15.1402 49.7478 16.3457C48.7673 17.5512 47.7064 19.1425 46.9831 21.0553C46.2598 22.968 45.8901 25.1862 45.9865 27.0989C46.083 29.0117 46.6456 30.6191 47.0635 33.0944C47.4975 35.5858 47.7707 38.9291 48.3494 42.0474C48.9119 45.1656 49.7638 48.0589 50.5675 50.486C51.3712 52.9131 52.1266 54.9062 53.4286 56.8833C54.7306 58.8764 56.563 60.8535 58.4114 63.1038C60.2438 65.3541 62.0923 67.8455 62.8959 70.2404C63.6996 72.6193 63.4585 74.8857 62.3977 78.2772C61.3368 81.6527 59.4562 86.1372 58.0739 89.8663C56.7076 93.6114 55.8557 96.585 55.9039 99.7194C55.9522 102.87 56.9005 106.181 58.6847 108.946C60.4849 111.71 63.137 113.928 62.687 114.25C62.2369 114.587 58.6847 113.028 55.9039 110.553C53.1232 108.062 51.0819 104.67 49.7638 104.429C48.4458 104.188 47.8189 107.113 48.8798 111.035C49.9567 114.957 52.6892 119.876 53.5893 123.653C54.4895 127.446 53.5411 130.082 50.8086 132.204C48.06 134.342 43.5273 135.949 43.0933 135.258C42.6754 134.567 46.3562 131.593 46.3402 127.253C46.308 122.897 42.5789 117.191 40.1518 113.285C37.7086 109.396 36.5835 107.306 35.0887 107.097C33.5938 106.888 31.7614 108.544 31.6811 111.164C31.6168 113.784 33.3206 117.368 33.642 119.956C33.9796 122.528 32.9348 124.087 31.1185 125.292C29.3022 126.498 26.6982 127.35 26.5857 126.803C26.4732 126.257 28.836 124.312 29.3504 121.981C29.8647 119.635 28.5467 116.902 27.0036 114.234C25.4767 111.566 23.7246 108.962 24.3837 106.486C25.0427 103.995 28.1127 101.632 28.5146 98.7871C28.9164 95.926 26.65 92.5666 27.4859 89.7377C28.3056 86.8926 32.2276 84.5781 33.3366 81.5723C34.4457 78.5826 32.758 74.8857 32.7901 71.2531C32.8384 67.6204 34.6386 64.02 35.8763 61.191C37.0979 58.3621 37.7569 56.2725 37.4033 53.7168C37.0496 51.1772 35.6834 48.1553 35.0726 44.3941C34.4457 40.6329 34.5904 36.1484 35.3458 32.0818C36.1013 28.0151 37.4836 24.3825 39.2035 20.9588C40.9234 17.5352 42.9969 14.3205 44.781 11.5879C46.5491 8.85544 48.0118 6.60514 49.5709 4.82097C51.1301 3.02073 52.7857 1.67055 54.2805 1.30086C55.7593 0.915096 57.0934 1.50982 58.8293 1.33301Z" fill="#B35353"/>
<path fill-rule="evenodd" clip-rule="evenodd" d="M86.2187 36.9038C85.4793 34.9107 84.0648 34.3481 82.0074 33.3034C79.95 32.2746 77.2657 30.7637 74.9993 28.6259C72.7329 26.5042 70.8845 23.7717 69.4378 21.5214C68.0073 19.2711 66.9625 17.5352 65.5159 16.1528C64.0853 14.7866 62.2369 13.79 60.3241 13.6614C58.4274 13.5329 56.4504 14.2722 55.1324 14.3848C53.8143 14.4973 53.1392 13.999 52.3677 14.1597C51.5962 14.3205 50.7121 15.1402 49.7477 16.3457C48.7672 17.5512 47.7064 19.1425 46.9831 21.0553C46.2597 22.968 45.8901 25.1862 45.9865 27.099C46.0829 29.0117 46.6455 30.6191 47.0634 33.0944C47.4974 35.5858 47.7707 38.9291 48.3493 42.0474C48.9119 45.1657 49.7638 48.0589 50.5675 50.486C51.3711 52.9131 52.1266 54.9062 53.4286 56.8833C54.7305 58.8764 56.5629 60.8535 58.4114 63.1038C60.2438 65.3541 62.0922 67.8455 62.8959 70.2404C63.6996 72.6193 63.4585 74.8857 62.3976 78.2772C62.2851 78.6308 62.1726 78.9845 62.044 79.3702C62.7352 80.1739 63.362 80.8168 63.9407 81.4919C65.757 83.5654 67.2197 85.7836 67.718 88.2107C68.2163 90.6539 67.734 93.2899 68.1198 95.7492C68.4895 98.2085 69.7272 100.475 71.2381 102.918C72.749 105.345 74.5492 107.949 75.4976 108.946C76.4298 109.926 76.5263 109.315 76.9603 107.403C77.3782 105.49 78.1336 102.275 79.0981 99.1568C80.0786 96.0385 81.2519 93.0167 83.1968 89.9949C83.4701 89.5448 83.7755 89.1108 84.0809 88.6607C82.2967 85.1246 81.2358 82.4081 80.8501 78.6308C80.4322 74.3231 80.8983 68.6492 81.8627 64.5022C82.8432 60.3391 84.3059 57.687 85.2542 54.8098C86.1865 51.9326 86.6205 48.8144 86.8134 45.5514C86.9902 42.2885 86.942 38.8809 86.2187 36.9038Z" fill="#FAD7BB"/>
<path fill-rule="evenodd" clip-rule="evenodd" d="M55.5503 59.7122C56.9647 60.6606 58.106 61.6893 59.1186 62.5412C60.4527 63.6985 61.5457 64.5504 62.5744 65.3219C63.6192 66.1095 64.6158 66.8167 65.8213 67.2347C67.0429 67.6686 68.4895 67.7972 69.9361 67.6204C71.3988 67.4436 72.8615 66.9614 74.3081 66.1095C75.7547 65.2576 77.2014 64.0521 78.7444 62.5572C80.3036 61.0785 81.9591 59.2943 83.02 57.6387C84.0969 55.9671 84.5952 54.4079 84.9971 52.3345C85.3989 50.2449 85.7043 47.657 85.4953 44.8924C85.2864 42.1438 84.547 39.2345 82.9879 36.727C81.718 34.7017 79.9178 32.9497 78.873 31.5674C79.9821 32.2586 81.059 32.8372 82.0074 33.3033C84.0648 34.3481 85.4793 34.9107 86.2186 36.9038C86.942 38.8809 86.9902 42.2885 86.8134 45.5514C86.6205 48.8143 86.1865 51.9326 85.2542 54.8098C84.3059 57.687 82.8432 60.3391 81.8627 64.5022C80.8983 68.6491 80.4322 74.3231 80.8501 78.6308C81.2358 82.4081 82.2967 85.1245 84.0809 88.6607C83.7755 89.1108 83.4701 89.5448 83.1968 89.9948C81.2519 93.0167 80.0785 96.0385 79.0981 99.1568C78.1336 102.275 77.3782 105.49 76.9603 107.403C76.7995 108.11 76.687 108.64 76.5584 108.978C76.3495 109.556 76.0923 109.572 75.4976 108.946C74.5492 107.949 72.749 105.345 71.2381 102.918C69.7272 100.475 68.4895 98.2084 68.1198 95.7492C67.734 93.2899 68.2162 90.6539 67.718 88.2107C67.509 87.198 67.1232 86.2015 66.625 85.2531C65.9177 83.9351 64.9855 82.6814 63.9407 81.4919C63.362 80.8168 62.7352 80.1739 62.044 79.3702C62.1726 78.9844 62.2851 78.6308 62.3976 78.2772C63.4585 74.8857 63.6996 72.6193 62.8959 70.2404C62.0922 67.8455 60.2437 65.354 58.4114 63.1037C57.4309 61.9143 56.4504 60.7892 55.5503 59.7122Z" fill="#E3C3A8"/>
<path fill-rule="evenodd" clip-rule="evenodd" d="M77.2335 27.9348C78.3426 29.285 79.3874 30.8762 81.7502 32.4997C84.113 34.1392 87.7939 35.7948 90.9282 37.5789C94.0786 39.3631 96.6665 41.2437 98.0649 43.4136C99.4633 45.5996 99.6562 48.0589 99.1097 50.6467C98.5632 53.2507 97.2934 55.9832 96.8915 55.8706C96.4897 55.7581 96.9558 52.7845 96.6986 50.9521C96.4415 49.1358 95.4449 48.4768 94.593 50.3413C93.7411 52.2059 93.0339 56.61 94.2876 61.1106C95.5413 65.6273 98.7561 70.2565 100.733 75.0786C102.726 79.9006 103.482 84.9156 102.839 84.8834C102.196 84.8674 100.171 79.8042 97.647 76.5252C95.1074 73.2301 92.0855 71.7192 90.4621 73.6641C88.8226 75.5929 88.5976 80.9936 89.9317 86.4908C91.2818 92.004 94.2072 97.6137 96.5058 102.741C98.8043 107.869 100.46 112.498 101.649 116.195C102.855 119.876 103.61 122.624 103.562 125.26C103.514 127.462 102.887 129.6 101.698 131.963C101.81 130.42 102.389 127.511 101.553 123.701C100.46 118.799 97.0201 112.369 93.6768 106.293C90.3496 100.218 87.1349 94.4954 84.8685 90.1717C82.6021 85.8479 81.2841 82.9225 80.8501 78.6308C80.4322 74.3231 80.8983 68.6491 81.8627 64.5022C82.8432 60.3391 84.3059 57.687 85.2542 54.8098C86.1865 51.9326 86.6205 48.8143 86.8134 45.5514C86.9902 42.2885 86.942 38.8809 86.2187 36.9038C85.4793 34.9107 84.0648 34.3481 82.0074 33.3033C79.95 32.2746 77.2657 30.7637 74.9993 28.6259C72.7329 26.5042 70.8845 23.7717 69.4379 21.5214C68.0073 19.2711 66.9625 17.5352 65.5159 16.1528C64.0854 14.7866 62.2369 13.79 60.3241 13.6614C59.0543 13.5811 57.7524 13.8704 56.6272 14.1115C57.6881 13.1792 59.4562 12.4559 61.4332 12.3113C63.7317 12.1344 66.3357 12.7613 68.4413 14.8991C70.5469 17.053 72.1543 20.7338 73.5366 23.1288C74.935 25.5077 76.1245 26.6007 77.2335 27.9348ZM46.6777 21.9554C45.3757 23.4985 44.3149 25.4916 43.7041 27.6294C42.9486 30.3297 42.9004 33.2551 42.2414 35.9394C41.5823 38.6076 40.2965 41.0187 40.5054 41.4848C40.7304 41.9509 42.4182 40.4882 43.4951 38.6237C44.556 36.7592 44.9739 34.4928 45.6811 34.9911C46.3883 35.5054 47.3688 38.7684 47.5778 42.4171C47.7867 46.0497 47.2402 50.052 48.0118 54.0865C48.7994 58.1209 50.9372 62.1876 53.2196 65.3058C55.5181 68.4241 57.9774 70.594 58.4275 74.1624C58.8614 77.7307 57.3023 82.6814 55.8718 86.6515C54.4251 90.6217 53.1071 93.6114 52.657 96.2475C52.207 98.8996 52.6249 101.214 53.2196 103.079C53.8143 104.943 54.5698 106.358 56.1772 108.158C57.6559 109.797 59.858 111.758 62.0119 114.218C62.3494 114.314 62.5905 114.33 62.687 114.25C63.137 113.928 60.4849 111.71 58.6846 108.946C56.9005 106.181 55.9521 102.87 55.9039 99.7194C55.8557 96.585 56.7076 93.6114 58.0738 89.8663C59.4562 86.1372 61.3368 81.6527 62.3976 78.2772C63.4585 74.8857 63.6996 72.6193 62.8959 70.2404C62.0922 67.8455 60.2438 65.3541 58.4114 63.1038C56.5629 60.8535 54.7305 58.8764 53.4286 56.8833C52.1266 54.9062 51.3712 52.9131 50.5675 50.486C49.7638 48.0589 48.9119 45.1656 48.3493 42.0474C47.7707 38.9291 47.4974 35.5858 47.0634 33.0944C46.6455 30.6191 46.0829 29.0117 45.9865 27.0989C45.9061 25.4755 46.1633 23.6431 46.6777 21.9554Z" fill="#CB685A"/>
<path fill-rule="evenodd" clip-rule="evenodd" d="M94.2072 117.272C93.3875 113.334 92.6802 108.254 91.4426 102.822C91.3783 102.484 91.2979 102.146 91.2175 101.809C88.8065 97.4369 86.5723 93.4185 84.8685 90.1717C84.5952 89.6573 84.3381 89.1429 84.0809 88.6607C83.7755 89.1108 83.4701 89.5448 83.1968 89.9948C81.2519 93.0167 80.0786 96.0385 79.0981 99.1568C78.1337 102.275 77.3782 105.49 76.9603 107.403C76.5263 109.315 76.4299 109.926 75.4976 108.946C74.5493 107.949 72.749 105.345 71.2381 102.918C69.7272 100.475 68.4895 98.2084 68.1198 95.7492C67.7341 93.2899 68.2163 90.6539 67.718 88.2107C67.2197 85.7836 65.757 83.5654 63.9407 81.4919C63.362 80.8168 62.7352 80.1739 62.044 79.3702C61.5136 80.9133 60.8546 82.6492 60.1795 84.3852C60.3884 84.9156 60.5813 85.4942 60.7903 86.1211C61.9958 89.8823 63.6996 95.6849 65.2105 103.159C66.7214 110.633 68.0395 119.811 68.8431 128.411C69.6468 137.01 69.9201 145.047 70.0647 149.049C70.1772 152.135 70.2094 152.859 69.8236 153.068C70.5952 153.116 71.0452 153.1 71.4471 152.971C71.9293 152.794 72.2829 152.457 72.8133 152.119C73.3277 151.782 74.0027 151.46 74.7261 151.219C75.4494 150.978 76.237 150.833 77.0407 150.833C77.8283 150.817 78.648 150.93 79.7249 151.621C80.8019 152.296 82.136 153.534 83.2451 154.9C84.3541 156.266 85.2382 157.745 85.8972 159.079C86.1865 159.626 86.4276 160.156 86.733 160.976C86.8616 160.944 86.9902 160.928 87.1188 160.895C87.2152 159.802 87.1509 159.208 86.9902 158.468C86.7652 157.488 86.3955 156.234 85.8972 154.884C85.3989 153.518 84.7881 152.055 84.2416 151.01C83.6951 149.981 83.229 149.371 82.7628 149.017C82.2806 148.679 81.8145 148.599 81.2841 148.696C80.7537 148.792 80.1589 149.049 79.95 149.017C79.7571 148.985 79.95 148.647 80.1268 148.294C80.3197 147.94 80.5125 147.57 80.834 147.378C81.1555 147.185 81.6055 147.185 82.0556 147.104C82.4896 147.024 82.9397 146.863 83.7433 146.51C84.547 146.156 85.7043 145.609 87.7135 145.079C89.7066 144.549 92.5356 144.018 94.1108 143.6C95.686 143.166 95.9914 142.845 96.6183 142.652C97.2612 142.459 98.2256 142.411 98.9007 142.346C99.5758 142.282 99.9616 142.186 99.9616 141.479C99.9616 140.755 99.5758 139.437 99.0132 136.881C98.4507 134.342 97.6952 130.548 96.8433 127.269C95.9914 123.99 95.0431 121.194 94.2072 117.272Z" fill="white"/>
<path fill-rule="evenodd" clip-rule="evenodd" d="M17.7292 176.037C17.0701 173.979 16.9576 172.356 17.1505 170.748C17.3273 169.157 17.8256 167.598 18.6454 166.055C19.3204 164.785 20.1884 163.531 20.9599 162.037C19.9955 162.808 18.9186 163.644 17.906 164.673C16.4433 166.168 15.1092 168.048 14.209 169.752C13.325 171.456 12.8428 172.967 12.666 174.204C12.4892 175.442 12.6017 176.422 12.6499 177.467C12.666 177.692 12.666 177.917 12.6178 178.174C12.7303 178.223 12.8749 178.255 13.0357 178.287C14.0322 178.416 15.7843 177.901 18.2757 177.596C18.0828 177.065 17.8899 176.535 17.7292 176.037Z" fill="white" stroke="#332C2B" stroke-width="0.2"/>
<path fill-rule="evenodd" clip-rule="evenodd" d="M17.7291 168.177C17.3273 168.257 17.038 168.546 16.813 168.868C16.2665 169.639 16.1379 170.54 15.7842 171.279C15.4146 172.018 14.8198 172.613 14.3858 173.336C13.9679 174.06 13.7268 174.895 13.6786 175.683C13.6304 176.455 13.775 177.178 14.0322 178.046C14.0483 178.11 14.0644 178.191 14.0965 178.255C15.1092 178.126 16.5076 177.805 18.2757 177.596C18.0828 177.065 17.8899 176.535 17.7291 176.037C17.0701 173.979 16.9576 172.356 17.1505 170.748C17.2469 169.881 17.4398 169.029 17.7291 168.177Z" fill="#CCCCCC"/>
<path fill-rule="evenodd" clip-rule="evenodd" d="M94.2073 117.272C93.3875 113.334 92.6803 108.254 91.4426 102.822C91.3783 102.484 91.2979 102.146 91.2176 101.809C89.4977 98.7228 87.8903 95.7974 86.4919 93.2096C85.4311 94.0936 84.5631 94.9616 84.1291 95.6206C82.9236 97.4851 85.1418 97.8709 86.6366 99.1407C88.1154 100.427 88.8708 102.597 88.3083 105.876C87.7457 109.155 85.849 113.559 84.3863 116.822C82.9236 120.085 81.8788 122.206 82.9718 121.821C84.0488 121.451 87.2635 118.558 89.1762 116.982C91.1051 115.391 91.7159 115.118 92.6963 117.947C93.6929 120.792 95.0592 126.739 94.9788 130.404C94.8823 134.069 93.3232 135.435 91.1694 136.303C89.0155 137.187 86.283 137.557 85.1739 137.203C84.0488 136.849 84.5792 135.772 85.4954 134.486C86.4116 133.217 87.7457 131.754 87.2153 130.918C86.7009 130.098 84.3381 129.906 82.8272 129.439C81.3163 128.957 80.6572 128.202 80.7537 129.922C80.8501 131.658 81.6859 135.853 81.911 138.746C82.1199 141.623 81.6859 143.182 79.9018 143.922C78.1015 144.645 74.935 144.549 74.1314 143.697C73.3277 142.861 74.8868 141.253 76.2531 139.55C77.6354 137.846 78.8088 136.046 78.0372 135.531C77.2496 135.017 74.5171 135.772 72.0257 136.785C71.1738 137.139 70.3541 137.508 69.5665 137.991C69.8397 142.652 69.9844 146.606 70.0647 149.049C70.1773 152.135 70.2094 152.859 69.8236 153.068C70.5952 153.116 71.0452 153.1 71.4471 152.971C71.9293 152.794 72.2829 152.457 72.8133 152.119C73.3277 151.782 74.0028 151.46 74.7261 151.219C75.0958 151.107 75.4655 151.01 75.8512 150.946C76.4299 150.544 76.8317 150.287 77.3943 150.014C78.0855 149.708 79.0177 149.355 80.2715 149.001C80.6412 148.888 81.043 148.776 81.5895 148.663C81.477 148.663 81.3805 148.679 81.2841 148.696C80.7537 148.792 80.159 149.049 79.95 149.017C79.7571 148.985 79.95 148.647 80.1268 148.294C80.3197 147.94 80.5126 147.57 80.834 147.378C81.1555 147.185 81.6056 147.185 82.0556 147.104C82.4896 147.024 82.9397 146.863 83.7434 146.51C84.547 146.156 85.7043 145.609 87.7135 145.079C89.7067 144.549 92.5356 144.018 94.1108 143.6C95.686 143.166 95.9914 142.845 96.6183 142.652C97.2612 142.459 98.2257 142.411 98.9007 142.346C99.5758 142.282 99.9616 142.186 99.9616 141.479C99.9616 140.755 99.5758 139.437 99.0133 136.881C98.4507 134.342 97.6952 130.548 96.8433 127.269C95.9914 123.99 95.0431 121.194 94.2073 117.272Z" fill="#E6E6E6"/>
<path fill-rule="evenodd" clip-rule="evenodd" d="M69.3575 153.196C68.5056 153.309 66.8018 153.55 65.2427 153.919C63.6675 154.305 62.2208 154.82 61.1439 155.157C60.067 155.511 59.3598 155.671 58.6204 155.864C57.881 156.073 57.0934 156.314 56.579 156.523C56.0647 156.732 55.7914 156.925 55.6146 157.182C55.4378 157.44 55.3414 157.777 54.9074 158.066C54.4734 158.372 53.7019 158.629 53.0428 158.95C52.3999 159.288 51.8695 159.69 51.6123 160.172C51.3551 160.654 51.3551 161.217 51.1622 161.619C50.9533 162.021 50.5514 162.262 50.0853 162.712C49.6352 163.162 49.1048 163.821 48.928 163.756C48.7512 163.708 48.928 162.921 49.2013 162.181C49.4906 161.442 49.8924 160.735 50.3907 160.027C50.889 159.336 51.4676 158.645 51.6927 157.97C51.9177 157.295 51.7891 156.636 51.2426 155.993C50.7122 155.334 49.796 154.707 48.4297 154.032C47.0635 153.357 45.2311 152.65 43.8488 152.2C42.4664 151.75 41.5342 151.557 40.7305 151.557C39.9268 151.557 39.2517 151.75 38.5927 152.087C37.9337 152.441 37.2747 152.923 36.1977 153.068C35.1208 153.212 33.642 153.003 32.4365 152.923C31.231 152.843 30.2987 152.891 29.5433 153.18C28.7717 153.469 28.1609 154.016 27.3894 154.868C26.6179 155.72 25.7017 156.877 24.8659 157.954C24.0461 159.031 23.3067 160.011 22.1494 161.056C21.7797 161.378 21.3779 161.699 20.96 162.037C20.1885 163.531 19.3205 164.785 18.6454 166.055C18.2757 166.746 17.9703 167.453 17.7292 168.177C17.4399 169.029 17.247 169.881 17.1505 170.748C16.9577 172.356 17.0702 173.979 17.7292 176.037C17.8899 176.535 18.0828 177.065 18.2757 177.596C18.5972 177.548 18.9347 177.515 19.2723 177.483C22.2941 177.194 26.2643 177.29 29.9933 177.146C33.7385 177.001 37.2264 176.631 39.541 176.149C41.8556 175.683 42.9969 175.12 43.3665 174.269C43.7523 173.417 43.3665 172.275 43.7041 171.472C44.0256 170.668 45.0703 170.202 45.6811 170.443C46.308 170.668 46.4848 171.616 47.4332 172.002C48.3815 172.372 50.0853 172.179 51.548 171.954C53.0107 171.713 54.2323 171.424 55.1324 170.957C56.0325 170.491 56.5951 169.816 57.222 169.736C57.8328 169.639 58.4918 170.106 59.3437 169.688C60.1956 169.254 61.2243 167.936 62.5584 167.084C63.8764 166.232 65.4838 165.862 70.113 164.769C73.7617 163.917 79.2749 162.615 86.7331 160.976C86.4277 160.156 86.1866 159.626 85.8972 159.079C85.2382 157.745 84.3542 156.266 83.2451 154.9C82.136 153.534 80.8019 152.296 79.725 151.621C78.648 150.93 77.8283 150.817 77.0407 150.833C76.6388 150.833 76.237 150.865 75.8512 150.946C75.4655 151.01 75.0958 151.107 74.7261 151.219C74.0028 151.46 73.3277 151.782 72.8133 152.119C72.2829 152.457 71.9293 152.794 71.4471 152.971C71.0452 153.1 70.5952 153.116 69.8237 153.068C69.7111 153.148 69.5665 153.164 69.3575 153.196Z" fill="#FAD7BB"/>
<path fill-rule="evenodd" clip-rule="evenodd" d="M77.0407 150.833C77.6193 151.316 78.2141 151.862 78.7606 152.473C80.1429 154.016 81.2841 155.945 81.6217 157.359C81.9431 158.79 81.477 159.738 80.7698 160.252C80.0786 160.751 79.1624 160.831 78.5355 160.252C77.9087 159.674 77.5711 158.436 77.4265 158.597C77.2979 158.742 77.3461 160.285 76.7192 161.185C76.0923 162.085 74.7904 162.342 73.1348 162.422C71.4792 162.503 69.47 162.406 68.1038 162.278C66.7375 162.149 65.9981 161.988 65.6124 161.763C65.2266 161.538 65.1784 161.249 64.7926 161.458C64.4229 161.651 63.6996 162.342 63.0888 163.21C62.478 164.094 61.9637 165.155 61.6101 166.039C61.2886 166.891 61.1278 167.582 60.7099 168.595C61.2564 168.096 61.8672 167.518 62.5584 167.084C63.8764 166.232 65.4838 165.862 70.113 164.769C73.7617 163.917 79.2749 162.615 86.7331 160.976C86.4277 160.156 86.1866 159.626 85.8972 159.079C85.2382 157.745 84.3542 156.266 83.2451 154.9C82.136 153.534 80.8019 152.296 79.725 151.621C78.648 150.946 77.8444 150.817 77.0407 150.833Z" fill="#E3C3A8"/>
<path fill-rule="evenodd" clip-rule="evenodd" d="M39.2356 154.948C40.3929 155.109 41.4056 155.173 42.3378 155.511C43.254 155.848 44.1059 156.459 45.0543 156.636C46.0026 156.829 47.0635 156.572 47.1278 156.781C47.1921 156.989 46.2759 157.649 45.9705 158.436C45.6651 159.224 45.9865 160.124 46.4205 160.911C46.8545 161.683 47.3849 162.31 47.1438 162.149C46.8867 161.988 45.8258 161.008 45.2472 160.236C44.6524 159.465 44.5238 158.886 44.0095 158.243C43.5112 157.584 42.6272 156.877 41.3573 156.298C40.1036 155.704 38.4802 155.27 37.4193 154.964C36.3745 154.643 35.8923 154.466 36.3263 154.498C36.7442 154.53 38.0783 154.787 39.2356 154.948ZM59.0544 158.581C59.0704 158.661 58.9901 159.481 58.8454 160.381C58.7007 161.281 58.4757 162.262 58.3793 163.081C58.2668 163.901 58.2989 164.56 58.1382 165.38C57.9774 166.216 57.6399 167.212 57.5434 167.855C57.447 168.514 57.5917 168.836 57.9453 169.077C58.2828 169.334 58.8133 169.511 59.2633 169.495C59.424 169.495 59.5848 169.479 59.7134 169.447C59.5848 169.543 59.4562 169.623 59.3437 169.688C58.4918 170.106 57.8328 169.639 57.222 169.736C56.5951 169.816 56.0325 170.491 55.1324 170.957C54.2323 171.424 53.0107 171.713 51.548 171.954C51.2265 172.002 50.9051 172.05 50.5836 172.083L50.5354 172.099H50.4711L50.4228 172.115H50.3425L50.246 172.131H50.1978L50.1657 172.147H50.021L49.9889 172.163H49.8603L49.796 172.179H49.6192L49.587 172.195H49.3298L49.3138 172.211H48.6065C48.5583 172.211 48.494 172.195 48.4458 172.195H48.3494L48.3011 172.179H48.1886L48.1404 172.163H48.0922C47.8511 172.131 47.626 172.067 47.4332 172.002C46.4848 171.616 46.308 170.668 45.6811 170.443C45.3757 170.314 44.9418 170.379 44.556 170.588C44.7328 170.186 45.0221 169.736 45.1507 169.141C45.3275 168.273 45.1668 167.116 44.8453 166.184C44.5238 165.235 44.0416 164.496 43.4791 164.271C42.9165 164.046 42.2575 164.335 40.4894 163.837C38.7052 163.339 35.828 162.037 34.0599 161.217C32.2919 160.381 31.6489 159.995 31.6007 159.786C31.5525 159.561 32.099 159.497 33.2402 159.947C34.3814 160.397 36.1174 161.329 37.5801 161.972C39.0588 162.615 40.2965 162.969 41.2609 163.162C42.2253 163.339 42.9165 163.371 43.463 163.114C44.0256 162.84 44.4435 162.278 44.5721 162.358C44.7167 162.422 44.5721 163.13 44.7489 163.933C44.9418 164.737 45.44 165.637 45.9222 166.184C46.4045 166.73 46.8706 166.939 47.2564 166.762C47.626 166.585 47.9314 166.023 48.1404 166.168C48.3494 166.312 48.4779 167.148 48.4619 167.871C48.4458 168.595 48.2851 169.189 48.4458 169.591C48.6065 170.009 49.1048 170.218 49.6352 170.25C49.9889 170.282 50.3746 170.218 50.6157 170.347C50.889 169.993 51.1301 169.607 51.3712 169.205C51.9177 168.321 52.4642 167.405 52.866 166.505C53.2679 165.589 53.5411 164.673 53.7179 163.998C53.8947 163.306 53.9912 162.84 54.2162 162.213C54.4573 161.587 54.8431 160.783 54.9234 160.879C55.0038 160.976 54.7627 161.956 54.5055 162.872C54.2323 163.789 53.943 164.624 53.6697 165.492C53.3965 166.344 53.1393 167.212 52.9625 167.952C52.7857 168.675 52.6571 169.254 52.9303 169.575C53.2036 169.913 53.8626 169.993 54.5538 169.736C55.2288 169.463 55.9522 168.852 56.4987 168.032C57.0452 167.212 57.4309 166.184 57.6399 165.235C57.8488 164.287 57.8649 163.419 58.0417 162.535C58.2025 161.635 58.5079 160.719 58.7168 159.931C58.9258 159.143 59.0222 158.5 59.0544 158.581ZM43.7845 171.311C43.4951 170.893 43.1897 170.54 42.8843 170.218C42.0485 169.366 41.1966 168.868 39.8143 168.37C38.432 167.871 36.5031 167.389 34.4618 166.875C32.4204 166.376 30.2505 165.878 29.8969 165.91C29.5272 165.959 30.9738 166.569 32.7901 167.116C34.6064 167.678 36.8085 168.193 38.4963 168.739C40.1679 169.302 41.3413 169.929 42.0164 170.604C42.6754 171.279 42.8522 172.018 42.8843 172.645C42.9165 173.272 42.82 173.786 41.8878 173.947C40.9394 174.092 39.1553 173.899 36.7282 173.401C34.285 172.902 31.2149 172.115 30.7649 172.083C30.3148 172.067 32.5008 172.806 33.9796 173.433C35.4423 174.044 36.2138 174.542 36.2138 175.024C36.2138 175.506 35.4423 175.956 33.8831 176.197C32.3079 176.422 29.929 176.422 27.8555 176.005C25.7821 175.587 24.014 174.767 22.8727 174.654C21.7476 174.558 21.2493 175.169 20.7028 175.185C20.1563 175.217 19.5455 174.654 19.0954 173.738C18.6454 172.822 18.3561 171.552 18.3882 170.234C18.4204 168.932 18.774 167.566 19.1276 166.087C19.2723 165.557 19.4008 165.026 19.4812 164.608C19.1758 165.091 18.9026 165.573 18.6454 166.055C18.2757 166.746 17.9703 167.453 17.7292 168.177C17.4399 169.029 17.247 169.881 17.1505 170.748C16.9577 172.356 17.0702 173.979 17.7292 176.037C17.8899 176.535 18.0828 177.065 18.2757 177.596C18.5972 177.548 18.9347 177.515 19.2723 177.483C22.2941 177.194 26.2643 177.29 29.9933 177.146C33.7385 177.001 37.2264 176.631 39.541 176.149C41.8556 175.683 42.9969 175.12 43.3665 174.269C43.7523 173.417 43.3665 172.275 43.7041 171.472C43.7202 171.424 43.7523 171.359 43.7845 171.311Z" fill="#E3C3A8"/>
<path fill-rule="evenodd" clip-rule="evenodd" d="M19.3687 132.606C20.5099 133.924 22.6477 136.528 25.3802 139.839C28.1288 143.166 31.4721 147.201 33.5616 149.756C35.6351 152.296 36.4388 153.373 36.9692 154.064C37.4997 154.755 37.7569 155.093 37.355 155.012C36.9532 154.932 35.8923 154.434 34.9922 154.016C34.0921 153.598 33.3688 153.277 32.9669 153.068C32.5651 152.875 32.5008 152.794 30.588 150.48C28.6914 148.165 24.9623 143.616 22.2941 140.353C19.6419 137.09 18.0506 135.129 17.2309 134.036C16.3951 132.96 16.3147 132.751 16.3308 132.526C16.3308 132.3 16.4433 132.059 16.588 131.85C16.7326 131.641 16.9094 131.481 17.1345 131.368C17.3595 131.272 17.6327 131.24 17.8578 131.24C18.0667 131.24 18.2275 131.288 19.3687 132.606Z" fill="#FEDDA6"/>
<path fill-rule="evenodd" clip-rule="evenodd" d="M16.4111 132.188C17.6006 133.088 18.8222 134.39 20.1402 135.901C22.9209 139.067 26.1196 143.134 28.4502 146.011C30.7809 148.872 32.2436 150.528 33.5938 151.83C34.7832 152.971 35.8602 153.839 37.4354 155.012H37.355C36.9532 154.932 35.8923 154.434 34.9922 154.016C34.0921 153.598 33.3688 153.277 32.9669 153.068C32.5651 152.875 32.5008 152.794 30.588 150.48C28.6914 148.165 24.9623 143.616 22.2941 140.353C19.6419 137.09 18.0506 135.129 17.2309 134.036C16.3951 132.96 16.3147 132.751 16.3308 132.526C16.3308 132.413 16.3629 132.3 16.4111 132.188Z" fill="#BDA274"/>
<path fill-rule="evenodd" clip-rule="evenodd" d="M21.2654 134.84C20.8474 135.403 20.4456 135.756 19.883 136.094C19.6741 136.239 19.433 136.367 19.1437 136.464C18.2757 135.387 17.6488 134.599 17.2309 134.036C16.3951 132.96 16.3147 132.751 16.3308 132.526C16.3308 132.3 16.4433 132.059 16.588 131.85C16.7326 131.641 16.9094 131.481 17.1345 131.368C17.3595 131.272 17.6327 131.24 17.8578 131.24C18.0667 131.24 18.2275 131.288 19.3687 132.606C19.8348 133.152 20.4778 133.908 21.2654 134.84Z" fill="white"/>
<path fill-rule="evenodd" clip-rule="evenodd" d="M20.6224 134.085C20.3492 134.422 20.0438 134.728 19.7223 134.985C19.3526 135.29 18.9668 135.547 18.5489 135.724C17.9864 135.017 17.5524 134.47 17.2309 134.036C16.3951 132.96 16.3147 132.751 16.3308 132.526C16.3308 132.3 16.4433 132.059 16.588 131.85C16.7326 131.641 16.9094 131.481 17.1345 131.368C17.3595 131.272 17.6327 131.24 17.8578 131.24C18.0667 131.24 18.2275 131.288 19.3687 132.606C19.7062 132.992 20.1241 133.49 20.6224 134.085Z" fill="#C97463"/>
<path fill-rule="evenodd" clip-rule="evenodd" d="M18.6453 131.786C18.6132 132.172 18.4203 132.493 18.0185 132.799C17.6809 133.056 17.1826 133.281 16.7004 133.345C16.3468 132.847 16.3147 132.686 16.3307 132.526C16.3307 132.3 16.4433 132.059 16.5879 131.85C16.7326 131.641 16.9094 131.481 17.1344 131.368C17.3595 131.272 17.6327 131.24 17.8577 131.24C18.0185 131.24 18.131 131.256 18.6453 131.786Z" fill="#FFCC00"/>
<path fill-rule="evenodd" clip-rule="evenodd" d="M17.5202 132.831C17.1023 132.22 16.9737 131.915 16.9737 131.465C16.829 131.561 16.7004 131.706 16.5879 131.85C16.4433 132.059 16.3307 132.301 16.3307 132.526C16.3147 132.686 16.3468 132.847 16.7004 133.345C16.9737 133.313 17.2469 133.217 17.488 133.104C17.5523 133.072 17.6006 133.056 17.6649 133.024C17.6166 132.96 17.5684 132.895 17.5202 132.831Z" fill="#E8BA03"/>
<path fill-rule="evenodd" clip-rule="evenodd" d="M18.4846 134.085C18.1953 133.731 17.8899 133.345 17.6649 133.024C17.6006 133.056 17.5524 133.072 17.4881 133.104C17.247 133.217 16.9737 133.313 16.7005 133.345C16.8291 133.522 17.0059 133.747 17.2309 134.036C17.5524 134.47 17.9864 135.017 18.5489 135.724C18.8704 135.596 19.1597 135.419 19.4491 135.21C19.3526 135.113 19.2722 135.017 19.1758 134.904C18.9668 134.663 18.7257 134.39 18.4846 134.085Z" fill="#AB6152"/>
<path fill-rule="evenodd" clip-rule="evenodd" d="M202.865 153.068L150.417 172.211L92.1498 171.215L161.748 148.117L202.865 153.068Z" fill="#949596"/>
<path fill-rule="evenodd" clip-rule="evenodd" d="M20.1402 135.933C19.9473 135.724 19.7544 135.547 19.449 135.21C19.1597 135.419 18.8704 135.596 18.5489 135.724C18.7418 135.965 18.9347 136.206 19.1436 136.464C19.433 136.367 19.6741 136.239 19.883 136.094C19.9795 136.046 20.0598 135.981 20.1402 135.933Z" fill="#E6E6E6"/>
<path fill-rule="evenodd" clip-rule="evenodd" d="M164.931 98.1924L220.144 84.1601C221.542 83.8065 222.008 83.903 221.671 86.1533L210.435 145.69C210.146 146.751 209.632 147.49 208.603 147.892L179.831 159.433L151.59 169.929C150.722 170.202 149.822 170.395 148.906 170.491L96.0235 168.53C94.5608 168.482 96.1682 167.228 96.9397 166.987L154.435 148.085L159.82 112.514L161.25 101.053C161.604 99.8962 163.034 98.6264 164.931 98.1924Z" fill="#D7D7E3"/>
<path fill-rule="evenodd" clip-rule="evenodd" d="M95.67 167.791L151.268 166.955L154.435 148.085L96.9398 166.987C96.5701 167.1 96.0075 167.453 95.67 167.791Z" fill="#C5C5D4"/>
<path fill-rule="evenodd" clip-rule="evenodd" d="M96.0235 168.53L148.906 170.491C149.822 170.395 150.722 170.202 151.59 169.929L179.831 159.433L199.441 151.573L151.574 168.707C150.786 168.98 150.899 169.061 151.043 168.225L151.268 166.955L95.6699 167.791C95.3324 168.161 95.2681 168.498 96.0235 168.53Z" fill="#ECF2FD"/>
<path fill-rule="evenodd" clip-rule="evenodd" d="M217.893 91.554C218.97 90.7021 220.047 89.8341 221.124 88.9822L221.671 86.1533C222.008 83.903 221.542 83.8065 220.144 84.1601L217.893 84.7227L164.931 98.1924C163.034 98.6264 161.604 99.8962 161.25 101.053L159.82 112.514L154.435 148.085C173.82 128.154 195.31 109.524 217.893 91.554Z" fill="#C5C5D4"/>
<path fill-rule="evenodd" clip-rule="evenodd" d="M119.475 166.216L151.493 165.541L153.294 154.868L119.475 166.216Z" fill="#969AA3"/>
</svg>
