<svg width="276" height="221" viewBox="0 0 276 221" fill="none" xmlns="http://www.w3.org/2000/svg">
<g clip-path="url(#clip0_8_1051)">
<path d="M108.681 84.736C108.087 85.1855 106.027 84.7738 105.41 84.119C100.348 78.752 104.097 69.7391 104.097 69.7391C104.097 69.7391 119.148 61.9242 119.41 71.9706C119.673 82.017 118.359 80.965 118.359 80.965L119.883 87.3821L109.316 86.4248L108.681 84.736Z" fill="#FFAD8A"/>
<path d="M91.1029 104.523C91.1029 104.523 91.3456 116.46 93.7899 120.559C93.9755 120.947 94.183 121.073 94.491 121.167C95.1487 121.369 96.7323 121.847 99.531 122.643C103.386 123.74 98.2082 105.204 98.2082 105.204L91.1029 104.523Z" fill="#FFAD8A"/>
<path d="M21.3686 147.481C21.3794 146.028 22.4174 144.795 23.851 144.558C35.2296 142.676 82.5882 135.112 93.0769 137.77C105.02 140.796 136.918 132.777 144.326 133.836C151.734 134.895 177.396 130.129 182.876 132.928C188.357 135.727 222.636 125.06 233.823 131.264C239.138 134.211 243.498 134.699 246.61 134.4C249.002 134.17 251.964 136.015 251.964 138.419V198.625C251.964 200.282 250.621 201.625 248.964 201.625H23.9877C22.3221 201.625 20.9754 200.268 20.9878 198.602L21.3686 147.481Z" fill="#48290A"/>
<path d="M99.043 125.603C99.043 125.603 94.9554 129.248 97.3336 137.207C99.7118 145.167 114.864 143.653 114.864 143.653C114.864 143.653 135.659 144.146 135.831 136.017C136.004 127.835 134.79 125.975 134.79 125.975C134.79 125.975 131.966 120.545 125.5 123.372C119.035 126.198 99.043 125.603 99.043 125.603Z" fill="#56494E"/>
<path d="M132.015 123.994C132.015 123.994 128.688 123.673 126.416 118.644C124.145 113.615 126.229 112.893 126.229 112.893L131.948 118.243L132.015 123.994Z" fill="#FFA17A"/>
<path d="M149.239 105.243C149.239 105.243 142.758 112.942 140.334 114.296C137.909 115.65 138.132 115.733 136.786 115.14C135.439 114.546 134.434 111.502 134.434 111.502L135.236 99.1439C135.236 99.1439 134.59 95.2606 134.808 94.65C135.026 94.0395 135.43 93.9223 136.465 93.6603C137.009 93.5227 138.777 92.7509 140.487 94.4628C141.737 96.4379 141.681 97.9957 140.941 98.8496C140.941 98.8496 139.805 100.093 139.298 99.9463C138.781 99.7967 138.63 101.926 139.565 104.788L143.333 99.8126L149.239 105.243Z" fill="#FFAD8A"/>
<path d="M129.169 107.65C129.169 107.65 127.539 116.317 129.436 121.078C131.334 125.839 133.587 123.525 133.926 122.843C134.328 122.037 136.385 118.483 134.888 108.238L129.169 107.65Z" fill="#FFAD8A"/>
<path d="M107.289 85.5801C107.289 85.5801 113.7 81.004 122.581 87.4211C122.581 87.4211 127.854 89.3406 131.41 91.1556C135.378 93.1807 135.404 101.833 135.404 101.833L135.299 109.513C135.299 109.513 131.988 108.093 128.888 108.987C128.888 108.987 126.158 115.945 128.907 129.658C128.993 130.054 128.652 130.3 128.652 130.3C125.557 132.272 102.316 146.371 98.1976 127.87C98.1976 127.87 99.091 110.249 97.4093 107.619C97.4093 107.619 90.5251 106.357 89.2639 102.99C89.2639 102.99 91.8389 97.8883 91.8389 97.3097C91.8389 96.7311 92.5682 90.4421 96.9889 88.5257C101.096 86.7453 107.289 85.5801 107.289 85.5801H107.289Z" fill="#748A66"/>
<path d="M104.097 69.7391C104.097 69.7391 102.175 67.9754 104.766 66.5776C107.214 65.2566 107.12 64.7774 109.633 63.8997C112.147 63.0221 117.639 61.4926 120.744 67.3587C123.94 73.3973 118.589 81.9336 118.589 81.9336C118.589 81.9336 118.59 81.9175 118.535 81.7791C118.472 81.7438 118.432 81.7287 118.4 81.6988C117.567 81.1448 115.188 79.7589 111.789 80.5251C111.789 80.5251 110.333 81.2752 109.478 76.7004C108.623 72.1257 106.511 75.7029 106.179 76.183C105.847 76.663 105.812 77.5238 104.951 75.504C104.061 73.413 103.614 72.5658 104.097 69.7391L104.097 69.7391Z" fill="#56494E"/>
<path d="M138.175 133.329C138.175 133.329 137.55 142.369 151.457 142.317C165.675 142.263 166.372 140.208 167.439 139.428C168.506 138.647 173.238 132.259 173.238 132.259L174.788 132.098C174.788 132.098 174.467 123.004 171.848 124.074C169.229 125.144 138.175 133.329 138.175 133.329Z" fill="#56494E"/>
<path d="M165.675 68.8374C165.675 68.8374 160.544 70.6025 160.758 79.2158C160.786 80.3373 160.825 81.276 160.738 82.0669C160.488 84.3479 160.587 83.8645 161.074 84.3668C161.888 85.2069 163.858 85.7962 163.858 85.7962L164.539 90.2499C164.539 90.2499 171.842 101.722 176.896 94.1203C176.896 94.1203 174.815 94.1953 176.017 84.2715C177.22 74.3477 165.675 68.8374 165.675 68.8374Z" fill="#FFBB9E"/>
<path d="M196.382 85.4484C196.382 85.4484 185.442 86.17 182.182 89.7276C178.921 93.2852 181.63 96.897 184.997 97.8064C188.364 98.7159 202.552 87.2252 202.552 87.2252C202.552 87.2252 200.075 83.6717 196.382 85.4484Z" fill="#FFAD8A"/>
<path d="M188.257 98.2344C188.257 98.2344 184.088 119.74 190.235 128.889C196.382 138.037 224.442 121.345 224.442 121.345C224.442 121.345 228.237 109.094 225.404 99.8393C222.572 90.5842 188.257 98.2344 188.257 98.2344Z" fill="#373737"/>
<path d="M179.542 114.094C179.542 114.094 180.487 123.362 186.685 124.459C186.685 124.459 190.616 124.761 187.668 114.812C184.72 104.864 179.542 114.094 179.542 114.094Z" fill="#FFAD8A"/>
<path d="M165.029 89.2782C165.029 89.2782 170.925 98.0544 176.896 94.1203C176.896 94.1203 179.722 94.5554 186.154 100.822C186.628 101.196 186.791 101.729 186.954 102.154C187.715 104.134 189.333 109.16 189.217 115.834C189.217 115.834 185.287 119.238 181.205 116.212L180.978 114.094C180.978 114.094 172.21 119.39 172.436 124.156C172.663 128.923 176.594 133.386 160.115 139.288C143.637 145.189 137.741 134.446 137.741 134.446C137.741 134.446 135.927 128.696 139.706 122.113C143.486 115.531 148.172 106.074 148.172 106.074C148.172 106.074 144.166 106.982 141.899 101.686C141.899 101.686 147.163 90.8666 151.672 88.3196C152.09 88.0208 152.429 88.0913 152.933 88.1388L165.029 89.2782Z" fill="#9762DA"/>
<path d="M160.758 79.2158C160.758 79.2158 161.4 81.9395 162.043 82.5447C162.685 83.15 165.709 76.4165 165.709 76.4165C165.709 76.4165 163.252 75.1303 166.767 72.1797C166.767 72.1797 164.386 70.7044 164.764 69.0021C164.764 69.0021 162.912 65.8245 165.841 66.4297C165.841 66.4297 166.389 62.8171 168.714 65.0868C168.714 65.0868 169.897 63.5144 171.447 65.2531C171.447 65.2531 177.38 64.2634 180.908 70.7366C184.436 77.2098 175.83 86.0102 175.83 86.0102L171.94 84.569C171.745 84.522 171.708 84.3486 171.687 84.1385C171.55 82.7875 170.759 77.997 166.503 78.895L165.139 85.5713C165.086 85.8797 164.988 85.9885 164.702 86.0711C163.805 86.3279 161.479 86.8074 160.624 85.181C160.08 84.1474 160.842 83.9091 161.017 82.66C161.1 82.066 160.849 81.1759 160.766 80.4727C160.679 79.7461 160.758 79.2158 160.758 79.2158H160.758Z" fill="#56494E"/>
<path d="M229.734 88.3373C230.79 87.1063 213.34 83.5433 209.115 84.6436C205.043 85.7042 224.12 92.3607 224.12 92.3607L229.734 88.3373Z" fill="#FFAD8A"/>
<path d="M192.656 72.3687C192.656 72.3687 190.155 80.2863 195 85.0037C196.01 85.9872 198.341 86.9165 199.681 85.8334L200.366 87.6514C200.366 87.6514 209.438 92.4755 213.331 86.3851C213.331 86.3851 211.213 85.4573 209.21 78.5347C207.221 71.6607 195.719 74.7761 195.557 74.8204L192.656 72.3687Z" fill="#FFBB9E"/>
<path d="M200.15 86.8126C200.15 86.8126 209.049 92.9916 212.47 85.5554C212.982 86.1128 227.127 87.2885 228.986 87.0534C230.844 86.8182 234.316 91.5617 230.375 98.7961C229.81 99.8335 227.736 98.9579 227.224 100.014C223.921 106.836 223.834 108.896 224.336 114.819C224.837 120.741 227.813 130.057 225.992 134.399C224.172 138.741 212.309 141.354 212.309 141.354C212.309 141.354 183.928 143.493 189.807 123.485C189.807 123.485 194.885 108.934 187.616 100.749C187.616 100.749 183.981 100.695 182.057 95.3455C180.133 89.9957 184.819 89.0266 186.333 88.6583C187.848 88.29 198.813 88.2036 200.15 86.8126Z" fill="black"/>
<path d="M195.74 77.9587C195.74 77.9587 194.725 77.6912 194.35 74.8559C194.35 74.8559 190.449 74.2139 189.54 69.2921C188.631 64.3703 193.068 62.4444 193.068 62.4444C193.068 62.4444 201.563 59.1937 208.675 64.4773C213.567 68.1118 209.824 80.3661 209.824 80.3661L202.917 81.0406C202.478 81.1441 202.056 80.8226 201.966 80.5247C201.211 78.2628 198.317 70.6349 195.74 77.9587Z" fill="black"/>
<path d="M83.6385 102.31L76.0985 107.852L72.3191 102.745L83.6385 102.31Z" fill="#FFA17A"/>
<path d="M42.501 120.222C42.501 120.222 40.5768 118.671 41.913 134.506C43.2493 150.341 59.3375 148.094 59.3375 148.094C59.3375 148.094 73.6887 148.148 76.9758 138.518C79.532 131.03 78.4961 115.987 78.2892 109.551C78.2733 105.458 75.4912 103.716 73.7063 106.047L55.3288 101.016L42.501 120.222Z" fill="#56494E"/>
<path d="M37.6617 111.975C37.6617 111.975 39.2113 120.903 44.1245 123.286C49.0378 125.669 43.1419 109.025 37.6617 111.975Z" fill="#FFAD8A"/>
<path d="M77.2965 95.6665C77.2965 95.6665 82.6948 94.9978 84.0578 99.7323C85.4208 104.467 78.1517 102.969 78.1517 102.969L77.2965 95.6665Z" fill="#FFAD8A"/>
<path d="M47.1243 79.5904C47.1243 79.5904 45.9238 88.2894 48.976 91.0115C51.9796 93.6903 46.4323 96.9199 50.2244 96.4155L60.4327 92.6345L61.3201 83.2562L47.1243 79.5904Z" fill="#FFAD8A"/>
<path d="M49.8315 92.8341C49.8315 92.8341 57.0475 93.604 60.6002 91.2587C60.6002 91.2587 64.6846 92.1532 70.3538 91.4344C70.3538 91.4344 73.7175 91.2075 77.7993 95.4443C81.8811 99.6811 78.4418 103.35 78.4418 103.35L75.4182 104.864C75.4182 104.864 72.2188 121.934 74.9447 131.563C77.6706 141.193 66.3394 143.975 66.3394 143.975C66.3394 143.975 46.1355 149.699 42.7148 135.683C42.7148 135.683 42.7682 118.51 40.7371 115.033L37.6371 114.605C37.6371 114.605 35.0181 101.016 38.7595 98.8229C42.501 96.6295 46.7928 95.3514 49.8315 92.8341Z" fill="#FF76FA"/>
<path d="M61.2695 82.3335C61.2695 82.3335 63.5666 81.5363 62.6354 85.02C61.7041 88.5037 60.3383 85.4629 60.3383 85.4629L61.2695 82.3335Z" fill="#FFA17A"/>
<path d="M46.3922 76.8704C46.3922 76.8704 47.7528 71.3474 54.2534 71.7635C59.3099 72.0872 61.2336 75.4322 61.8387 76.9023C61.9775 77.2833 62.0775 77.7172 62.0561 77.9661L61.6315 83.4978C61.5852 84.0737 61.395 85.0384 61.1998 85.4637L59.6322 88.4296C59.5821 88.5289 59.4848 88.6061 59.3638 88.6213L52.4153 89.5439C52.2026 89.5616 52.0888 89.4425 52.0151 89.2944C51.5452 88.2186 49.785 84.4513 47.9417 83.8687C45.7875 83.1878 46.3922 76.8704 46.3922 76.8704Z" fill="#56494E"/>
<path d="M47.092 82.7306C46.9861 82.6218 44.7949 81.9335 45.7262 85.4172C46.6575 88.9009 48.0233 85.8601 48.0233 85.8601C48.0233 85.8601 47.198 82.8395 47.092 82.7306Z" fill="#FFA17A"/>
<path d="M107.168 75.3705C107.168 75.3705 107.329 73.5453 108.821 74.3208C110.314 75.0962 109.795 78.6427 107.47 79.8721C105.146 81.1015 107.168 75.3705 107.168 75.3705Z" fill="#FFA17A"/>
<path d="M197.076 76.1398C197.076 76.1398 197.45 74.6954 198.626 75.2839C199.802 75.8723 199.161 78.574 199.161 78.574L197.076 76.1398Z" fill="#FFA17A"/>
</g>
<defs>
<clipPath id="clip0_8_1051">
<rect width="276" height="221" fill="white"/>
</clipPath>
</defs>
</svg>
